<svg width="39" height="38" viewBox="0 0 39 38" fill="none" xmlns="http://www.w3.org/2000/svg">
<g filter="url(#filter0_d)">
<path fill-rule="evenodd" clip-rule="evenodd" d="M7.08337 10.5001H10.1663C10.1667 11.05 10.479 11.5792 11.0189 11.8418C11.7804 12.2123 12.7065 11.9119 13.0873 11.171L13.432 10.5001H25.4013L25.7461 11.171C26.1268 11.9119 27.0529 12.2123 27.8144 11.8418C28.3543 11.5792 28.6665 11.05 28.667 10.5001H31.75V13.5001H7.08337V10.5001ZM27.3069 7.50022H31.75C33.4529 7.50022 34.8334 8.84335 34.8334 10.5002V13.5001C34.8334 14.7602 34.0349 15.8388 32.9034 16.2832C32.9087 16.3548 32.9114 16.4272 32.9114 16.5001C32.9114 16.719 32.8868 16.9372 32.838 17.1509L30.4398 27.6508C30.1263 29.0234 28.8751 29.9999 27.4299 29.9999H11.4033C9.95813 29.9999 8.70687 29.0234 8.39337 27.6508L5.99523 17.1509C5.92847 16.8586 5.90801 16.5669 5.92909 16.2828C4.79805 15.8383 4 14.7599 4 13.5001V10.5002C4 8.84335 5.38046 7.50022 7.08334 7.50022H11.5264L14.9545 0.829496C15.3353 0.0885392 16.2613 -0.211793 17.0229 0.158686C17.7844 0.529164 18.0931 1.43016 17.7123 2.17112L14.9737 7.50022H23.8597L21.1211 2.17112C20.7403 1.43016 21.049 0.529164 21.8105 0.158686C22.5721 -0.211793 23.4981 0.0885392 23.8789 0.829496L27.3069 7.50022ZM29.8281 16.5001H9.00513L11.4033 26.9999H27.43L29.8281 16.5001Z" fill="white"/>
</g>
<defs>
<filter id="filter0_d" x="0" y="0" width="38.8334" height="37.9999" filterUnits="userSpaceOnUse" color-interpolation-filters="sRGB">
<feFlood flood-opacity="0" result="BackgroundImageFix"/>
<feColorMatrix in="SourceAlpha" type="matrix" values="0 0 0 0 0 0 0 0 0 0 0 0 0 0 0 0 0 0 127 0"/>
<feOffset dy="4"/>
<feGaussianBlur stdDeviation="2"/>
<feColorMatrix type="matrix" values="0 0 0 0 0 0 0 0 0 0 0 0 0 0 0 0 0 0 0.25 0"/>
<feBlend mode="normal" in2="BackgroundImageFix" result="effect1_dropShadow"/>
<feBlend mode="normal" in="SourceGraphic" in2="effect1_dropShadow" result="shape"/>
</filter>
</defs>
</svg>
