<svg width="16" height="15" viewBox="0 0 16 15" fill="none" xmlns="http://www.w3.org/2000/svg">
<path fill-rule="evenodd" clip-rule="evenodd" d="M5.75 0.199219H10.25C11.0784 0.199219 11.75 0.768898 11.75 1.47163V2.10785H14C14.8284 2.10785 15.5 2.67752 15.5 3.38025V4.65265C15.5 5.35538 14.8284 5.92505 14 5.92505H13.94L13.2501 12.9233C13.2501 13.626 12.5785 14.1957 11.7501 14.1957H4.25005C3.42162 14.1957 2.75004 13.626 2.75263 12.9761L2.05994 5.92505H2C1.17157 5.92505 0.5 5.35538 0.5 4.65265V3.38025C0.5 2.67752 1.17157 2.10785 2 2.10785H4.25V1.47163C4.25 0.768898 4.92157 0.199219 5.75 0.199219ZM2 3.38025H4.25H11.75H14V4.65262H2V3.38025ZM3.56506 5.92505H12.4351L11.7528 12.8704L11.7502 12.9232H4.25019L3.56506 5.92505ZM10.25 1.47162V2.10724H5.75V1.47162H10.25Z" fill="black"/>
</svg>
