<svg width="329" height="160" viewBox="0 0 329 160" fill="none" xmlns="http://www.w3.org/2000/svg">
<path d="M58.525 132.8L57.4 134.475C58.875 135.325 61.575 137.125 62.775 138.025L63.95 136.325C62.875 135.525 60 133.625 58.525 132.8ZM54.775 150.675L55.925 152.7C58.25 152.225 61.7 151.05 64.225 149.6C68.2 147.25 71.675 144.025 73.825 140.65L72.625 138.6C70.6 142.125 67.3 145.375 63.15 147.75C60.625 149.2 57.525 150.2 54.775 150.675ZM54.75 138.425L53.65 140.125C55.15 140.9 57.875 142.65 59.1 143.55L60.25 141.8C59.15 141 56.225 139.225 54.75 138.425ZM81.375 133.5V135.575C82 135.525 82.825 135.5 83.65 135.5H93.75C94.475 135.5 95.35 135.525 96.075 135.575V133.5C95.35 133.6 94.45 133.65 93.75 133.65H83.625C82.825 133.65 82.075 133.575 81.375 133.5ZM78.375 139.775V141.85C79.075 141.8 79.8 141.8 80.55 141.8H88.05C87.975 144.15 87.7 146.25 86.6 148C85.625 149.575 83.825 151.025 81.875 151.825L83.725 153.2C85.85 152.1 87.75 150.3 88.65 148.625C89.65 146.775 90.05 144.5 90.125 141.8H96.925C97.525 141.8 98.325 141.825 98.875 141.85V139.775C98.275 139.875 97.45 139.9 96.925 139.9H80.55C79.775 139.9 79.075 139.85 78.375 139.775ZM102.561 145.55L103.511 147.4C106.336 146.525 109.236 145.225 111.336 144.1V151.75C111.336 152.525 111.286 153.55 111.236 153.95H113.536C113.436 153.55 113.411 152.525 113.411 151.75V142.85C115.686 141.375 117.811 139.55 119.061 138.175L117.511 136.675C116.236 138.275 113.936 140.325 111.561 141.775C109.536 143.025 105.861 144.775 102.561 145.55ZM143.386 133.525C143.386 132.65 144.086 131.925 144.961 131.925C145.861 131.925 146.586 132.65 146.586 133.525C146.586 134.425 145.861 135.125 144.961 135.125C144.086 135.125 143.386 134.425 143.386 133.525ZM142.236 133.525C142.236 135.05 143.461 136.25 144.961 136.25C146.486 136.25 147.711 135.05 147.711 133.525C147.711 132.025 146.486 130.775 144.961 130.775C143.461 130.775 142.236 132.025 142.236 133.525ZM138.061 132.725H135.711C135.811 133.1 135.886 133.95 135.886 134.5V137.075H128.936C128.136 137.075 127.511 137.025 126.811 136.95V139.05C127.486 139 128.186 138.975 128.936 138.975H135.886V150.25C135.886 150.9 135.586 151.2 134.911 151.2C134.261 151.2 133.111 151.1 132.036 150.9L132.211 152.9C133.211 153 134.711 153.075 135.761 153.075C137.261 153.075 137.911 152.4 137.911 151.075V138.975H144.536C145.136 138.975 145.886 138.975 146.561 139.025V136.95C145.936 137.025 145.111 137.075 144.511 137.075H137.911V134.525C137.911 133.975 137.986 133.075 138.061 132.725ZM143.011 142L141.311 142.9C142.636 144.475 144.511 147.6 145.486 149.55L147.336 148.525C146.336 146.725 144.336 143.6 143.011 142ZM132.561 142.825L130.811 141.975C129.836 144 127.686 146.975 126.036 148.525L127.761 149.675C129.161 148.15 131.511 144.975 132.561 142.825ZM161.586 137.6L159.761 138.225C160.286 139.35 161.436 142.525 161.711 143.65L163.561 143C163.236 141.9 162.011 138.6 161.586 137.6ZM170.636 139L168.486 138.325C168.111 141.525 166.811 144.7 165.036 146.875C162.986 149.45 159.811 151.35 156.911 152.2L158.561 153.875C161.361 152.8 164.411 150.875 166.711 147.925C168.511 145.675 169.586 143 170.261 140.25C170.361 139.925 170.461 139.525 170.636 139ZM155.786 138.85L153.936 139.575C154.436 140.45 155.786 143.9 156.161 145.2L158.061 144.5C157.586 143.2 156.286 139.925 155.786 138.85ZM194.636 134.05C194.636 133.125 195.386 132.375 196.286 132.375C197.211 132.375 197.961 133.125 197.961 134.05C197.961 134.95 197.211 135.7 196.286 135.7C195.386 135.7 194.636 134.95 194.636 134.05ZM193.486 134.05C193.486 134.325 193.536 134.6 193.611 134.85C193.311 134.875 193.036 134.875 192.811 134.875H180.261C179.436 134.875 178.461 134.8 177.761 134.7V136.925C178.411 136.9 179.261 136.85 180.261 136.85H193.036C192.711 139.25 191.536 142.725 189.761 145C187.686 147.675 184.861 149.8 180.011 151L181.711 152.875C186.311 151.45 189.286 149.125 191.561 146.2C193.536 143.625 194.761 139.6 195.286 136.975C195.311 136.875 195.336 136.775 195.336 136.7C195.636 136.8 195.961 136.85 196.286 136.85C197.836 136.85 199.111 135.6 199.111 134.05C199.111 132.5 197.836 131.225 196.286 131.225C194.736 131.225 193.486 132.5 193.486 134.05ZM222.211 143.25C222.211 138.175 218.486 134.05 212.636 134.05C206.536 134.05 201.711 138.8 201.711 144.225C201.711 148.35 203.936 150.9 206.161 150.9C208.486 150.9 210.461 148.275 211.986 143.125C212.686 140.8 213.161 138.25 213.486 135.925C217.736 136.275 220.161 139.4 220.161 143.175C220.161 147.5 217.011 149.875 213.811 150.6C213.236 150.725 212.461 150.85 211.661 150.925L212.836 152.775C218.761 152 222.211 148.5 222.211 143.25ZM203.661 144.05C203.661 140.65 206.611 136.55 211.411 135.95C211.136 138.25 210.636 140.625 210.011 142.7C208.736 146.925 207.411 148.6 206.236 148.6C205.111 148.6 203.661 147.2 203.661 144.05ZM239.036 145.375H234.686V145V141.65H239.036V145.375ZM243.836 141.65V140.7C244.936 141.575 246.136 142.325 247.411 142.875C247.686 142.4 248.286 141.675 248.686 141.325C246.986 140.65 245.411 139.65 244.011 138.425C245.286 137.5 246.786 136.3 247.936 135.2L246.536 134.2C245.661 135.15 244.211 136.475 242.961 137.425C242.386 136.825 241.836 136.175 241.336 135.5C242.536 134.625 243.911 133.45 245.011 132.35L243.611 131.35C242.836 132.225 241.636 133.4 240.536 134.325C239.911 133.325 239.386 132.275 238.961 131.175L237.361 131.65C238.611 134.875 240.511 137.75 242.936 139.925H231.186C233.411 138.05 235.311 135.6 236.386 132.675L235.161 132.075L234.836 132.15H227.711V133.8H233.911C233.286 134.975 232.486 136.075 231.586 137.1C230.786 136.35 229.561 135.375 228.561 134.65L227.411 135.625C228.436 136.4 229.661 137.45 230.411 138.25C228.861 139.675 227.061 140.8 225.336 141.5C225.686 141.85 226.236 142.5 226.486 142.9C227.736 142.325 229.011 141.6 230.211 140.7V141.65H232.836V144.975V145.375H227.086V147.1H232.636C232.186 149.175 230.761 151.15 226.586 152.55C226.961 152.9 227.536 153.6 227.761 154.025C232.661 152.325 234.136 149.775 234.536 147.1H239.036V151.1C239.036 153.15 239.586 153.7 241.686 153.7H244.961C246.786 153.7 247.311 152.825 247.486 149.65C246.986 149.525 246.211 149.2 245.811 148.875C245.711 151.55 245.586 152.05 244.811 152.05H241.961C241.111 152.05 240.961 151.9 240.961 151.125V147.1H246.886V145.375H240.961V141.65H243.836ZM255.986 141.875H268.036V144.475H255.986V141.875ZM255.986 137.725H268.036V140.3H255.986V137.725ZM255.986 133.625H268.036V136.175H255.986V133.625ZM266.761 151.95C265.686 151.95 265.486 151.825 265.486 151.1V146.125H269.911V131.95H254.186V146.125H257.561C257.036 149.325 255.711 151.275 250.586 152.3C250.961 152.675 251.486 153.45 251.636 153.925C257.311 152.625 258.911 150.125 259.511 146.125H263.611V151.125C263.611 153.15 264.236 153.7 266.586 153.7H270.611C272.711 153.7 273.261 152.8 273.486 149.175C272.961 149.05 272.161 148.75 271.761 148.425C271.661 151.5 271.461 151.95 270.461 151.95H266.761Z" fill="#00E2AC"/>
<path d="M58.525 132.8L59.5013 131.054L57.8925 130.155L56.8647 131.685L58.525 132.8ZM57.4 134.475L55.7397 133.36L54.5453 135.138L56.4014 136.208L57.4 134.475ZM62.775 138.025L61.575 139.625L63.2382 140.872L64.4203 139.162L62.775 138.025ZM63.95 136.325L65.5953 137.462L66.6933 135.873L65.144 134.721L63.95 136.325ZM54.775 150.675L54.4346 148.704L51.6308 149.188L53.0359 151.663L54.775 150.675ZM55.925 152.7L54.1859 153.688L54.9028 154.95L56.3253 154.66L55.925 152.7ZM64.225 149.6L65.221 151.334L65.2319 151.328L65.2428 151.322L64.225 149.6ZM73.825 140.65L75.5118 141.725L76.1683 140.694L75.551 139.64L73.825 140.65ZM72.625 138.6L74.351 137.59L72.6087 134.613L70.8908 137.604L72.625 138.6ZM63.15 147.75L62.1566 146.014L62.154 146.016L63.15 147.75ZM54.75 138.425L55.7035 136.667L54.0764 135.784L53.0709 137.338L54.75 138.425ZM53.65 140.125L51.9709 139.038L50.773 140.89L52.732 141.902L53.65 140.125ZM59.1 143.55L57.9158 145.162L59.6141 146.409L60.7714 144.648L59.1 143.55ZM60.25 141.8L61.9214 142.898L62.9689 141.304L61.4263 140.183L60.25 141.8ZM56.8647 131.685L55.7397 133.36L59.0603 135.59L60.1853 133.915L56.8647 131.685ZM56.4014 136.208C57.8021 137.015 60.4351 138.77 61.575 139.625L63.975 136.425C62.7149 135.48 59.9479 133.635 58.3986 132.742L56.4014 136.208ZM64.4203 139.162L65.5953 137.462L62.3047 135.188L61.1297 136.888L64.4203 139.162ZM65.144 134.721C64.0085 133.876 61.061 131.927 59.5013 131.054L57.5487 134.546C58.939 135.323 61.7415 137.174 62.756 137.929L65.144 134.721ZM53.0359 151.663L54.1859 153.688L57.6641 151.712L56.5141 149.687L53.0359 151.663ZM56.3253 154.66C58.8254 154.149 62.4827 152.907 65.221 151.334L63.229 147.866C60.9173 149.193 57.6746 150.301 55.5247 150.74L56.3253 154.66ZM65.2428 151.322C69.442 148.839 73.1659 145.407 75.5118 141.725L72.1382 139.575C70.1841 142.643 66.958 145.661 63.2072 147.878L65.2428 151.322ZM75.551 139.64L74.351 137.59L70.899 139.61L72.099 141.66L75.551 139.64ZM70.8908 137.604C69.0616 140.788 66.033 143.796 62.1566 146.014L64.1434 149.486C68.567 146.954 72.1384 143.462 74.3592 139.596L70.8908 137.604ZM62.154 146.016C59.8691 147.328 57.0002 148.261 54.4346 148.704L55.1154 152.646C58.0498 152.139 61.3809 151.072 64.146 149.484L62.154 146.016ZM53.0709 137.338L51.9709 139.038L55.3291 141.212L56.4291 139.512L53.0709 137.338ZM52.732 141.902C54.1187 142.618 56.7544 144.308 57.9158 145.162L60.2842 141.938C58.9956 140.992 56.1813 139.182 54.568 138.348L52.732 141.902ZM60.7714 144.648L61.9214 142.898L58.5786 140.702L57.4286 142.452L60.7714 144.648ZM61.4263 140.183C60.2278 139.311 57.2188 137.489 55.7035 136.667L53.7965 140.183C55.2312 140.961 58.0722 142.689 59.0737 143.417L61.4263 140.183ZM81.375 133.5L81.5881 131.511L79.375 131.274V133.5H81.375ZM81.375 135.575H79.375V137.741L81.5345 137.569L81.375 135.575ZM96.075 135.575L95.9374 137.57L98.075 137.718V135.575H96.075ZM96.075 133.5H98.075V131.205L95.8017 131.519L96.075 133.5ZM78.375 139.775L78.5881 137.786L76.375 137.549V139.775H78.375ZM78.375 141.85H76.375V143.998L78.5175 143.845L78.375 141.85ZM88.05 141.8L90.049 141.864L90.1148 139.8H88.05V141.8ZM86.6 148L84.9067 146.936L84.8995 146.947L86.6 148ZM81.875 151.825L81.1159 149.975L77.8406 151.318L80.682 153.43L81.875 151.825ZM83.725 153.2L82.532 154.805L83.5348 155.551L84.6444 154.976L83.725 153.2ZM88.65 148.625L86.8906 147.674L86.8882 147.678L88.65 148.625ZM90.125 141.8V139.8H88.1798L88.1258 141.744L90.125 141.8ZM98.875 141.85L98.7842 143.848L100.875 143.943V141.85H98.875ZM98.875 139.775H100.875V137.414L98.5462 137.802L98.875 139.775ZM79.375 133.5V135.575H83.375V133.5H79.375ZM81.5345 137.569C82.088 137.524 82.8558 137.5 83.65 137.5V133.5C82.7942 133.5 81.912 133.526 81.2155 133.581L81.5345 137.569ZM83.65 137.5H93.75V133.5H83.65V137.5ZM93.75 137.5C94.438 137.5 95.2663 137.524 95.9374 137.57L96.2126 133.58C95.4337 133.526 94.512 133.5 93.75 133.5V137.5ZM98.075 135.575V133.5H94.075V135.575H98.075ZM95.8017 131.519C95.1839 131.604 94.3771 131.65 93.75 131.65V135.65C94.5229 135.65 95.5161 135.596 96.3483 135.481L95.8017 131.519ZM93.75 131.65H83.625V135.65H93.75V131.65ZM83.625 131.65C82.942 131.65 82.2858 131.586 81.5881 131.511L81.1619 135.489C81.8642 135.564 82.708 135.65 83.625 135.65V131.65ZM76.375 139.775V141.85H80.375V139.775H76.375ZM78.5175 143.845C79.1337 143.801 79.7857 143.8 80.55 143.8V139.8C79.8143 139.8 79.0163 139.799 78.2325 139.855L78.5175 143.845ZM80.55 143.8H88.05V139.8H80.55V143.8ZM86.051 141.736C85.9779 144.027 85.7061 145.664 84.9067 146.936L88.2933 149.064C89.6939 146.836 89.9721 144.273 90.049 141.864L86.051 141.736ZM84.8995 146.947C84.1792 148.111 82.7377 149.309 81.1159 149.975L82.6341 153.675C84.9123 152.741 87.0708 151.039 88.3005 149.053L84.8995 146.947ZM80.682 153.43L82.532 154.805L84.918 151.595L83.068 150.22L80.682 153.43ZM84.6444 154.976C87.0592 153.726 89.2876 151.664 90.4118 149.572L86.8882 147.678C86.2124 148.936 84.6408 150.474 82.8056 151.424L84.6444 154.976ZM90.4094 149.576C91.6252 147.327 92.0455 144.689 92.1242 141.856L88.1258 141.744C88.0545 144.311 87.6748 146.223 86.8906 147.674L90.4094 149.576ZM90.125 143.8H96.925V139.8H90.125V143.8ZM96.925 143.8C97.4838 143.8 98.2511 143.824 98.7842 143.848L98.9658 139.852C98.3989 139.826 97.5662 139.8 96.925 139.8V143.8ZM100.875 141.85V139.775H96.875V141.85H100.875ZM98.5462 137.802C98.1173 137.874 97.4295 137.9 96.925 137.9V141.9C97.4705 141.9 98.4327 141.876 99.2038 141.748L98.5462 137.802ZM96.925 137.9H80.55V141.9H96.925V137.9ZM80.55 137.9C79.8646 137.9 79.2384 137.856 78.5881 137.786L78.1619 141.764C78.9116 141.844 79.6854 141.9 80.55 141.9V137.9ZM102.561 145.55L102.103 143.603L99.613 144.188L100.782 146.464L102.561 145.55ZM103.511 147.4L101.732 148.314L102.499 149.807L104.102 149.31L103.511 147.4ZM111.336 144.1H113.336V140.76L110.391 142.337L111.336 144.1ZM111.236 153.95L109.251 153.702L108.97 155.95H111.236V153.95ZM113.536 153.95V155.95H116.097L115.476 153.465L113.536 153.95ZM113.411 142.85L112.323 141.172L111.411 141.763V142.85H113.411ZM119.061 138.175L120.541 139.52L121.845 138.086L120.452 136.738L119.061 138.175ZM117.511 136.675L118.902 135.238L117.319 133.706L115.947 135.429L117.511 136.675ZM111.561 141.775L110.519 140.068L110.51 140.073L111.561 141.775ZM100.782 146.464L101.732 148.314L105.29 146.486L104.34 144.636L100.782 146.464ZM104.102 149.31C107.072 148.391 110.09 147.036 112.28 145.863L110.391 142.337C108.381 143.414 105.6 144.659 102.919 145.49L104.102 149.31ZM109.336 144.1V151.75H113.336V144.1H109.336ZM109.336 151.75C109.336 152.489 109.286 153.421 109.251 153.702L113.22 154.198C113.285 153.679 113.336 152.561 113.336 151.75H109.336ZM111.236 155.95H113.536V151.95H111.236V155.95ZM115.476 153.465C115.487 153.508 115.478 153.484 115.464 153.348C115.452 153.231 115.442 153.078 115.434 152.898C115.417 152.537 115.411 152.121 115.411 151.75H111.411C111.411 152.154 111.417 152.638 111.438 153.084C111.456 153.466 111.49 154.014 111.595 154.435L115.476 153.465ZM115.411 151.75V142.85H111.411V151.75H115.411ZM114.499 144.528C116.9 142.971 119.161 141.038 120.541 139.52L117.581 136.83C116.46 138.062 114.471 139.779 112.323 141.172L114.499 144.528ZM120.452 136.738L118.902 135.238L116.12 138.112L117.67 139.612L120.452 136.738ZM115.947 135.429C114.832 136.827 112.715 138.727 110.519 140.068L112.603 143.482C115.156 141.923 117.639 139.723 119.075 137.921L115.947 135.429ZM110.51 140.073C108.622 141.239 105.146 142.888 102.103 143.603L103.018 147.497C106.575 146.662 110.45 144.811 112.611 143.477L110.51 140.073ZM138.061 132.725L140.016 133.144L140.535 130.725H138.061V132.725ZM135.711 132.725V130.725H133.108L133.778 133.24L135.711 132.725ZM135.886 137.075V139.075H137.886V137.075H135.886ZM126.811 136.95L127.024 134.961L124.811 134.724V136.95H126.811ZM126.811 139.05H124.811V141.204L126.958 141.045L126.811 139.05ZM135.886 138.975H137.886V136.975H135.886V138.975ZM132.036 150.9L132.402 148.934L129.814 148.452L130.043 151.074L132.036 150.9ZM132.211 152.9L130.218 153.074L130.363 154.725L132.012 154.89L132.211 152.9ZM137.911 138.975V136.975H135.911V138.975H137.911ZM146.561 139.025L146.413 141.02L148.561 141.179V139.025H146.561ZM146.561 136.95H148.561V134.696L146.322 134.964L146.561 136.95ZM137.911 137.075H135.911V139.075H137.911V137.075ZM143.011 142L144.551 140.724L143.513 139.471L142.075 140.232L143.011 142ZM141.311 142.9L140.375 141.132L138.185 142.292L139.78 144.188L141.311 142.9ZM145.486 149.55L143.697 150.444L144.63 152.311L146.455 151.299L145.486 149.55ZM147.336 148.525L148.305 150.274L150.056 149.304L149.084 147.554L147.336 148.525ZM132.561 142.825L134.358 143.703L135.237 141.902L133.435 141.026L132.561 142.825ZM130.811 141.975L131.685 140.176L129.879 139.299L129.009 141.107L130.811 141.975ZM126.036 148.525L124.666 147.067L122.831 148.792L124.926 150.189L126.036 148.525ZM127.761 149.675L126.651 151.339L128.076 152.289L129.234 151.028L127.761 149.675ZM145.386 133.525C145.386 133.713 145.231 133.925 144.961 133.925V129.925C142.94 129.925 141.386 131.587 141.386 133.525H145.386ZM144.961 133.925C144.776 133.925 144.586 133.775 144.586 133.525H148.586C148.586 131.525 146.945 129.925 144.961 129.925V133.925ZM144.586 133.525C144.586 133.422 144.632 133.311 144.712 133.233C144.789 133.158 144.884 133.125 144.961 133.125V137.125C146.925 137.125 148.586 135.57 148.586 133.525H144.586ZM144.961 133.125C145.07 133.125 145.184 133.172 145.267 133.256C145.35 133.34 145.386 133.444 145.386 133.525H141.386C141.386 135.509 142.961 137.125 144.961 137.125V133.125ZM140.236 133.525C140.236 136.167 142.368 138.25 144.961 138.25V134.25C144.553 134.25 144.236 133.933 144.236 133.525H140.236ZM144.961 138.25C147.566 138.25 149.711 136.178 149.711 133.525H145.711C145.711 133.922 145.405 134.25 144.961 134.25V138.25ZM149.711 133.525C149.711 130.932 147.602 128.775 144.961 128.775V132.775C145.369 132.775 145.711 133.118 145.711 133.525H149.711ZM144.961 128.775C142.333 128.775 140.236 130.944 140.236 133.525H144.236C144.236 133.106 144.589 132.775 144.961 132.775V128.775ZM138.061 130.725H135.711V134.725H138.061V130.725ZM133.778 133.24C133.776 133.23 133.786 133.271 133.802 133.379C133.817 133.477 133.832 133.6 133.845 133.736C133.871 134.016 133.886 134.302 133.886 134.5H137.886C137.886 133.884 137.809 132.832 137.643 132.21L133.778 133.24ZM133.886 134.5V137.075H137.886V134.5H133.886ZM135.886 135.075H128.936V139.075H135.886V135.075ZM128.936 135.075C128.232 135.075 127.683 135.032 127.024 134.961L126.598 138.939C127.339 139.018 128.04 139.075 128.936 139.075V135.075ZM124.811 136.95V139.05H128.811V136.95H124.811ZM126.958 141.045C127.58 140.998 128.231 140.975 128.936 140.975V136.975C128.141 136.975 127.391 137.002 126.663 137.055L126.958 141.045ZM128.936 140.975H135.886V136.975H128.936V140.975ZM133.886 138.975V150.25H137.886V138.975H133.886ZM133.886 150.25C133.886 150.307 133.87 149.915 134.251 149.541C134.624 149.175 134.999 149.2 134.911 149.2V153.2C135.498 153.2 136.36 153.075 137.052 152.397C137.752 151.71 137.886 150.843 137.886 150.25H133.886ZM134.911 149.2C134.402 149.2 133.375 149.115 132.402 148.934L131.67 152.866C132.846 153.085 134.12 153.2 134.911 153.2V149.2ZM130.043 151.074L130.218 153.074L134.203 152.726L134.028 150.726L130.043 151.074ZM132.012 154.89C133.079 154.997 134.645 155.075 135.761 155.075V151.075C134.776 151.075 133.343 151.003 132.41 150.91L132.012 154.89ZM135.761 155.075C136.767 155.075 137.905 154.853 138.78 154.018C139.674 153.164 139.911 152.037 139.911 151.075H135.911C135.911 151.16 135.905 151.22 135.9 151.259C135.894 151.298 135.889 151.312 135.891 151.306C135.893 151.299 135.903 151.274 135.925 151.238C135.948 151.202 135.978 151.162 136.017 151.126C136.055 151.089 136.091 151.065 136.117 151.05C136.143 151.036 136.153 151.034 136.139 151.038C136.125 151.042 136.089 151.052 136.025 151.06C135.961 151.069 135.874 151.075 135.761 151.075V155.075ZM139.911 151.075V138.975H135.911V151.075H139.911ZM137.911 140.975H144.536V136.975H137.911V140.975ZM144.536 140.975C145.15 140.975 145.825 140.976 146.413 141.02L146.708 137.03C145.947 136.974 145.122 136.975 144.536 136.975V140.975ZM148.561 139.025V136.95H144.561V139.025H148.561ZM146.322 134.964C145.774 135.03 145.028 135.075 144.511 135.075V139.075C145.193 139.075 146.098 139.02 146.799 138.936L146.322 134.964ZM144.511 135.075H137.911V139.075H144.511V135.075ZM139.911 137.075V134.525H135.911V137.075H139.911ZM139.911 134.525C139.911 134.324 139.925 134.02 139.951 133.716C139.963 133.568 139.977 133.433 139.991 133.322C139.997 133.267 140.004 133.222 140.009 133.188C140.014 133.152 140.017 133.139 140.016 133.144L136.105 132.306C135.989 132.846 135.911 133.901 135.911 134.525H139.911ZM142.075 140.232L140.375 141.132L142.247 144.668L143.947 143.768L142.075 140.232ZM139.78 144.188C140.962 145.592 142.756 148.562 143.697 150.444L147.275 148.656C146.266 146.638 144.309 143.358 142.841 141.612L139.78 144.188ZM146.455 151.299L148.305 150.274L146.366 146.776L144.516 147.801L146.455 151.299ZM149.084 147.554C148.052 145.696 145.984 142.455 144.551 140.724L141.47 143.276C142.687 144.745 144.62 147.754 145.587 149.496L149.084 147.554ZM133.435 141.026L131.685 140.176L129.937 143.774L131.687 144.624L133.435 141.026ZM129.009 141.107C128.136 142.921 126.129 145.693 124.666 147.067L127.405 149.983C129.242 148.257 131.536 145.079 132.613 142.843L129.009 141.107ZM124.926 150.189L126.651 151.339L128.87 148.011L127.145 146.861L124.926 150.189ZM129.234 151.028C130.723 149.405 133.2 146.073 134.358 143.703L130.764 141.947C129.821 143.877 127.598 146.895 126.287 148.322L129.234 151.028ZM161.586 137.6L163.426 136.818L162.698 135.105L160.938 135.708L161.586 137.6ZM159.761 138.225L159.113 136.333L157.007 137.054L157.948 139.071L159.761 138.225ZM161.711 143.65L159.768 144.125L160.292 146.268L162.374 145.537L161.711 143.65ZM163.561 143L164.224 144.887L166.018 144.257L165.479 142.433L163.561 143ZM170.636 139L172.533 139.632L173.177 137.702L171.235 137.092L170.636 139ZM168.486 138.325L169.085 136.417L166.78 135.693L166.499 138.092L168.486 138.325ZM165.036 146.875L163.486 145.61L163.479 145.62L163.471 145.629L165.036 146.875ZM156.911 152.2L156.348 150.281L153.139 151.221L155.486 153.604L156.911 152.2ZM158.561 153.875L157.136 155.279L158.055 156.212L159.278 155.742L158.561 153.875ZM166.711 147.925L165.149 146.676L165.141 146.685L165.133 146.695L166.711 147.925ZM170.261 140.25L168.349 139.662L168.332 139.717L168.318 139.773L170.261 140.25ZM155.786 138.85L157.599 138.007L156.806 136.302L155.056 136.988L155.786 138.85ZM153.936 139.575L153.206 137.713L151.051 138.557L152.199 140.567L153.936 139.575ZM156.161 145.2L154.239 145.754L154.835 147.82L156.852 147.077L156.161 145.2ZM158.061 144.5L158.752 146.377L160.624 145.687L159.939 143.814L158.061 144.5ZM160.938 135.708L159.113 136.333L160.409 140.117L162.234 139.492L160.938 135.708ZM157.948 139.071C158.427 140.096 159.529 143.147 159.768 144.125L163.654 143.175C163.343 141.903 162.144 138.604 161.573 137.379L157.948 139.071ZM162.374 145.537L164.224 144.887L162.898 141.113L161.048 141.763L162.374 145.537ZM165.479 142.433C165.127 141.241 163.872 137.867 163.426 136.818L159.745 138.382C160.149 139.333 161.345 142.559 161.643 143.567L165.479 142.433ZM171.235 137.092L169.085 136.417L167.887 140.233L170.037 140.908L171.235 137.092ZM166.499 138.092C166.163 140.958 164.994 143.764 163.486 145.61L166.585 148.14C168.628 145.636 170.058 142.092 170.472 138.558L166.499 138.092ZM163.471 145.629C161.716 147.834 158.916 149.528 156.348 150.281L157.473 154.119C160.705 153.172 164.255 151.066 166.6 148.121L163.471 145.629ZM155.486 153.604L157.136 155.279L159.986 152.471L158.336 150.796L155.486 153.604ZM159.278 155.742C162.35 154.562 165.724 152.443 168.288 149.155L165.133 146.695C163.097 149.307 160.371 151.038 157.844 152.008L159.278 155.742ZM168.272 149.174C170.312 146.624 171.485 143.651 172.203 140.727L168.318 139.773C167.686 142.349 166.709 144.726 165.149 146.676L168.272 149.174ZM172.172 140.838C172.321 140.354 172.356 140.164 172.533 139.632L168.738 138.368C168.566 138.886 168.4 139.496 168.349 139.662L172.172 140.838ZM155.056 136.988L153.206 137.713L154.665 141.437L156.515 140.712L155.056 136.988ZM152.199 140.567C152.365 140.857 152.776 141.799 153.234 142.961C153.678 144.088 154.08 145.201 154.239 145.754L158.082 144.646C157.867 143.899 157.406 142.637 156.956 141.495C156.52 140.389 156.007 139.168 155.672 138.583L152.199 140.567ZM156.852 147.077L158.752 146.377L157.369 142.623L155.469 143.323L156.852 147.077ZM159.939 143.814C159.457 142.494 158.135 139.158 157.599 138.007L153.972 139.693C154.437 140.692 155.714 143.906 156.182 145.186L159.939 143.814ZM193.611 134.85L193.777 136.843L196.235 136.638L195.526 134.275L193.611 134.85ZM177.761 134.7L178.044 132.72L175.761 132.394V134.7H177.761ZM177.761 136.925H175.761V139.003L177.838 138.924L177.761 136.925ZM193.036 136.85L195.018 137.118L195.325 134.85H193.036V136.85ZM189.761 145L188.184 143.77L188.18 143.774L189.761 145ZM180.011 151L179.53 149.059L176.28 149.863L178.529 152.343L180.011 151ZM181.711 152.875L180.229 154.218L181.085 155.163L182.303 154.785L181.711 152.875ZM191.561 146.2L193.139 147.428L193.148 147.417L191.561 146.2ZM195.286 136.975L193.345 136.49L193.334 136.536L193.325 136.583L195.286 136.975ZM195.336 136.7L195.968 134.803L193.336 133.925V136.7H195.336ZM196.636 134.05C196.636 134.138 196.598 134.219 196.545 134.272C196.492 134.325 196.402 134.375 196.286 134.375V130.375C194.262 130.375 192.636 132.04 192.636 134.05H196.636ZM196.286 134.375C196.106 134.375 195.961 134.23 195.961 134.05H199.961C199.961 132.02 198.315 130.375 196.286 130.375V134.375ZM195.961 134.05C195.961 133.934 196.01 133.843 196.063 133.791C196.117 133.738 196.197 133.7 196.286 133.7V137.7C198.296 137.7 199.961 136.074 199.961 134.05H195.961ZM196.286 133.7C196.401 133.7 196.488 133.748 196.537 133.798C196.587 133.848 196.636 133.935 196.636 134.05H192.636C192.636 136.055 194.281 137.7 196.286 137.7V133.7ZM191.486 134.05C191.486 134.56 191.577 135.031 191.695 135.425L195.526 134.275C195.495 134.169 195.486 134.09 195.486 134.05H191.486ZM193.445 132.857C193.238 132.874 193.04 132.875 192.811 132.875V136.875C193.032 136.875 193.384 136.876 193.777 136.843L193.445 132.857ZM192.811 132.875H180.261V136.875H192.811V132.875ZM180.261 132.875C179.533 132.875 178.652 132.807 178.044 132.72L177.478 136.68C178.269 136.793 179.339 136.875 180.261 136.875V132.875ZM175.761 134.7V136.925H179.761V134.7H175.761ZM177.838 138.924C178.533 138.897 179.312 138.85 180.261 138.85V134.85C179.21 134.85 178.289 134.903 177.684 134.926L177.838 138.924ZM180.261 138.85H193.036V134.85H180.261V138.85ZM191.054 136.582C190.763 138.727 189.688 141.841 188.184 143.77L191.338 146.23C193.383 143.609 194.658 139.773 195.018 137.118L191.054 136.582ZM188.18 143.774C186.387 146.087 183.952 147.964 179.53 149.059L180.491 152.941C185.769 151.636 188.985 149.263 191.341 146.226L188.18 143.774ZM178.529 152.343L180.229 154.218L183.192 151.532L181.492 149.657L178.529 152.343ZM182.303 154.785C187.312 153.234 190.625 150.661 193.139 147.428L189.982 144.972C187.947 147.589 185.31 149.666 181.119 150.965L182.303 154.785ZM193.148 147.417C195.406 144.473 196.704 140.082 197.247 137.367L193.325 136.583C192.818 139.118 191.666 142.777 189.974 144.983L193.148 147.417ZM197.226 137.46C197.227 137.456 197.336 137.078 197.336 136.7H193.336C193.336 136.612 193.343 136.545 193.347 136.508C193.352 136.47 193.357 136.444 193.359 136.436C193.361 136.427 193.361 136.426 193.358 136.437C193.356 136.449 193.352 136.463 193.345 136.49L197.226 137.46ZM194.703 138.597C195.221 138.77 195.76 138.85 196.286 138.85V134.85C196.161 134.85 196.051 134.83 195.968 134.803L194.703 138.597ZM196.286 138.85C198.917 138.85 201.111 136.728 201.111 134.05H197.111C197.111 134.472 196.754 134.85 196.286 134.85V138.85ZM201.111 134.05C201.111 131.395 198.94 129.225 196.286 129.225V133.225C196.731 133.225 197.111 133.605 197.111 134.05H201.111ZM196.286 129.225C193.608 129.225 191.486 131.419 191.486 134.05H195.486C195.486 133.581 195.863 133.225 196.286 133.225V129.225ZM211.986 143.125L210.071 142.548L210.068 142.557L211.986 143.125ZM213.486 135.925L213.65 133.932L211.767 133.777L211.505 135.648L213.486 135.925ZM213.811 150.6L214.236 152.554L214.244 152.552L214.253 152.551L213.811 150.6ZM211.661 150.925L211.474 148.934L208.22 149.239L209.972 151.997L211.661 150.925ZM212.836 152.775L211.147 153.847L211.831 154.923L213.095 154.758L212.836 152.775ZM211.411 135.95L213.397 136.187L213.7 133.648L211.163 133.965L211.411 135.95ZM210.011 142.7L211.925 143.278L211.926 143.277L210.011 142.7ZM224.211 143.25C224.211 137.074 219.594 132.05 212.636 132.05V136.05C217.378 136.05 220.211 139.276 220.211 143.25H224.211ZM212.636 132.05C205.534 132.05 199.711 137.595 199.711 144.225H203.711C203.711 140.005 207.538 136.05 212.636 136.05V132.05ZM199.711 144.225C199.711 146.638 200.361 148.734 201.481 150.282C202.59 151.814 204.251 152.9 206.161 152.9V148.9C205.845 148.9 205.281 148.711 204.722 147.937C204.173 147.178 203.711 145.937 203.711 144.225H199.711ZM206.161 152.9C208.181 152.9 209.782 151.732 210.973 150.144C212.153 148.571 213.111 146.369 213.903 143.693L210.068 142.557C209.336 145.031 208.544 146.717 207.773 147.744C207.014 148.756 206.466 148.9 206.161 148.9V152.9ZM213.901 143.702C214.641 141.242 215.134 138.582 215.466 136.202L211.505 135.648C211.188 137.918 210.73 140.358 210.071 142.548L213.901 143.702ZM213.322 137.918C214.97 138.054 216.144 138.707 216.913 139.584C217.695 140.476 218.161 141.716 218.161 143.175H222.161C222.161 140.859 221.414 138.649 219.921 136.947C218.415 135.23 216.252 134.146 213.65 133.932L213.322 137.918ZM218.161 143.175C218.161 146.259 215.995 148.054 213.369 148.649L214.253 152.551C218.026 151.696 222.161 148.741 222.161 143.175H218.161ZM213.386 148.646C212.892 148.753 212.197 148.866 211.474 148.934L211.847 152.916C212.724 152.834 213.579 152.697 214.236 152.554L213.386 148.646ZM209.972 151.997L211.147 153.847L214.524 151.703L213.349 149.853L209.972 151.997ZM213.095 154.758C216.383 154.328 219.18 153.115 221.17 151.094C223.183 149.05 224.211 146.339 224.211 143.25H220.211C220.211 145.411 219.514 147.075 218.32 148.287C217.104 149.522 215.214 150.447 212.576 150.792L213.095 154.758ZM205.661 144.05C205.661 141.647 207.871 138.408 211.659 137.935L211.163 133.965C205.35 134.692 201.661 139.653 201.661 144.05H205.661ZM209.425 135.713C209.163 137.899 208.687 140.16 208.096 142.123L211.926 143.277C212.585 141.09 213.108 138.601 213.397 136.187L209.425 135.713ZM208.096 142.122C207.483 144.154 206.902 145.411 206.427 146.117C205.904 146.894 205.802 146.6 206.236 146.6V150.6C207.845 150.6 208.993 149.468 209.745 148.351C210.544 147.164 211.263 145.471 211.925 143.278L208.096 142.122ZM206.236 146.6C206.514 146.6 206.426 146.744 206.183 146.386C205.957 146.051 205.661 145.332 205.661 144.05H201.661C201.661 145.918 202.09 147.474 202.87 148.627C203.633 149.756 204.832 150.6 206.236 150.6V146.6ZM239.036 145.375V147.375H241.036V145.375H239.036ZM234.686 145.375H232.686V147.375H234.686V145.375ZM234.686 141.65V139.65H232.686V141.65H234.686ZM239.036 141.65H241.036V139.65H239.036V141.65ZM243.836 141.65V143.65H245.836V141.65H243.836ZM243.836 140.7L245.081 139.135L241.836 136.554V140.7H243.836ZM247.411 142.875L246.619 144.711L248.251 145.416L249.142 143.877L247.411 142.875ZM248.686 141.325L250.003 142.83L252.467 140.674L249.424 139.466L248.686 141.325ZM244.011 138.425L242.836 136.806L240.806 138.279L242.694 139.93L244.011 138.425ZM247.936 135.2L249.318 136.645L251.063 134.976L249.098 133.573L247.936 135.2ZM246.536 134.2L247.698 132.573L246.261 131.546L245.065 132.845L246.536 134.2ZM242.961 137.425L241.517 138.809L242.751 140.097L244.171 139.017L242.961 137.425ZM241.336 135.5L240.157 133.884L238.529 135.071L239.729 136.69L241.336 135.5ZM245.011 132.35L246.425 133.764L248.094 132.095L246.173 130.723L245.011 132.35ZM243.611 131.35L244.773 129.723L243.308 128.676L242.114 130.024L243.611 131.35ZM240.536 134.325L238.84 135.385L240.06 137.338L241.823 135.856L240.536 134.325ZM238.961 131.175L240.826 130.454L240.161 128.732L238.392 129.258L238.961 131.175ZM237.361 131.65L236.792 129.733L234.712 130.35L235.496 132.373L237.361 131.65ZM242.936 139.925V141.925H248.161L244.271 138.436L242.936 139.925ZM231.186 139.925L229.897 138.396L225.709 141.925H231.186V139.925ZM236.386 132.675L238.263 133.365L238.885 131.672L237.265 130.879L236.386 132.675ZM235.161 132.075L236.04 130.279L235.403 129.967L234.711 130.126L235.161 132.075ZM234.836 132.15V134.15H235.064L235.285 134.099L234.836 132.15ZM227.711 132.15V130.15H225.711V132.15H227.711ZM227.711 133.8H225.711V135.8H227.711V133.8ZM233.911 133.8L235.676 134.739L237.24 131.8H233.911V133.8ZM231.586 137.1L230.218 138.559L231.725 139.972L233.089 138.42L231.586 137.1ZM228.561 134.65L229.735 133.031L228.464 132.11L227.267 133.124L228.561 134.65ZM227.411 135.625L226.117 134.099L224.213 135.714L226.205 137.22L227.411 135.625ZM230.411 138.25L231.764 139.722L233.251 138.355L231.87 136.882L230.411 138.25ZM225.336 141.5L224.584 139.647L221.788 140.781L223.922 142.914L225.336 141.5ZM226.486 142.9L224.79 143.96L225.723 145.453L227.322 144.717L226.486 142.9ZM230.211 140.7H232.211V136.7L229.011 139.1L230.211 140.7ZM230.211 141.65H228.211V143.65H230.211V141.65ZM232.836 141.65H234.836V139.65H232.836V141.65ZM232.836 145.375V147.375H234.836V145.375H232.836ZM227.086 145.375V143.375H225.086V145.375H227.086ZM227.086 147.1H225.086V149.1H227.086V147.1ZM232.636 147.1L234.59 147.524L235.116 145.1H232.636V147.1ZM226.586 152.55L225.95 150.654L222.767 151.721L225.221 154.012L226.586 152.55ZM227.761 154.025L225.993 154.961L226.796 156.477L228.416 155.915L227.761 154.025ZM234.536 147.1V145.1H232.813L232.558 146.804L234.536 147.1ZM239.036 147.1H241.036V145.1H239.036V147.1ZM247.486 149.65L249.483 149.76L249.574 148.11L247.971 147.71L247.486 149.65ZM245.811 148.875L247.072 147.323L243.962 144.796L243.812 148.8L245.811 148.875ZM240.961 147.1V145.1H238.961V147.1H240.961ZM246.886 147.1V149.1H248.886V147.1H246.886ZM246.886 145.375H248.886V143.375H246.886V145.375ZM240.961 145.375H238.961V147.375H240.961V145.375ZM240.961 141.65V139.65H238.961V141.65H240.961ZM239.036 143.375H234.686V147.375H239.036V143.375ZM236.686 145.375V145H232.686V145.375H236.686ZM236.686 145V141.65H232.686V145H236.686ZM234.686 143.65H239.036V139.65H234.686V143.65ZM237.036 141.65V145.375H241.036V141.65H237.036ZM245.836 141.65V140.7H241.836V141.65H245.836ZM242.591 142.265C243.807 143.233 245.158 144.081 246.619 144.711L248.203 141.039C247.114 140.569 246.064 139.917 245.081 139.135L242.591 142.265ZM249.142 143.877C249.306 143.593 249.765 143.038 250.003 142.83L247.369 139.82C246.806 140.312 246.066 141.207 245.68 141.873L249.142 143.877ZM249.424 139.466C247.959 138.884 246.576 138.012 245.328 136.92L242.694 139.93C244.245 141.288 246.013 142.416 247.948 143.184L249.424 139.466ZM245.185 140.044C246.507 139.085 248.083 137.827 249.318 136.645L246.553 133.755C245.488 134.773 244.064 135.915 242.836 136.806L245.185 140.044ZM249.098 133.573L247.698 132.573L245.373 135.827L246.773 136.827L249.098 133.573ZM245.065 132.845C244.274 133.704 242.912 134.95 241.751 135.833L244.171 139.017C245.51 138 247.048 136.596 248.007 135.555L245.065 132.845ZM244.405 136.041C243.887 135.501 243.392 134.916 242.943 134.31L239.729 136.69C240.28 137.434 240.884 138.149 241.517 138.809L244.405 136.041ZM242.514 137.116C243.799 136.179 245.253 134.937 246.425 133.764L243.597 130.936C242.569 131.963 241.273 133.071 240.157 133.884L242.514 137.116ZM246.173 130.723L244.773 129.723L242.448 132.977L243.848 133.977L246.173 130.723ZM242.114 130.024C241.407 130.822 240.278 131.929 239.249 132.794L241.823 135.856C242.994 134.871 244.265 133.628 245.108 132.676L242.114 130.024ZM242.232 133.265C241.674 132.372 241.206 131.436 240.826 130.454L237.095 131.896C237.566 133.114 238.148 134.278 238.84 135.385L242.232 133.265ZM238.392 129.258L236.792 129.733L237.93 133.567L239.53 133.092L238.392 129.258ZM235.496 132.373C236.845 135.854 238.913 139.004 241.6 141.414L244.271 138.436C242.108 136.496 240.376 133.896 239.226 130.927L235.496 132.373ZM242.936 137.925H231.186V141.925H242.936V137.925ZM232.475 141.454C234.92 139.393 237.049 136.667 238.263 133.365L234.509 131.985C233.572 134.533 231.901 136.707 229.897 138.396L232.475 141.454ZM237.265 130.879L236.04 130.279L234.281 133.871L235.506 134.471L237.265 130.879ZM234.711 130.126L234.386 130.201L235.285 134.099L235.61 134.024L234.711 130.126ZM234.836 130.15H227.711V134.15H234.836V130.15ZM225.711 132.15V133.8H229.711V132.15H225.711ZM227.711 135.8H233.911V131.8H227.711V135.8ZM232.145 132.861C231.608 133.87 230.905 134.844 230.083 135.78L233.089 138.42C234.067 137.306 234.964 136.08 235.676 134.739L232.145 132.861ZM232.954 135.641C232.071 134.814 230.774 133.785 229.735 133.031L227.387 136.269C228.347 136.965 229.5 137.886 230.218 138.559L232.954 135.641ZM227.267 133.124L226.117 134.099L228.704 137.151L229.854 136.176L227.267 133.124ZM226.205 137.22C227.178 137.956 228.307 138.93 228.952 139.618L231.87 136.882C231.015 135.97 229.694 134.844 228.617 134.03L226.205 137.22ZM229.057 136.778C227.679 138.045 226.081 139.039 224.584 139.647L226.088 143.353C228.04 142.561 230.043 141.305 231.764 139.722L229.057 136.778ZM223.922 142.914C224.207 143.199 224.646 143.73 224.79 143.96L228.182 141.84C227.825 141.269 227.165 140.501 226.75 140.086L223.922 142.914ZM227.322 144.717C228.68 144.092 230.081 143.297 231.411 142.3L229.011 139.1C227.941 139.903 226.791 140.558 225.65 141.083L227.322 144.717ZM228.211 140.7V141.65H232.211V140.7H228.211ZM230.211 143.65H232.836V139.65H230.211V143.65ZM230.836 141.65V144.975H234.836V141.65H230.836ZM230.836 144.975V145.375H234.836V144.975H230.836ZM232.836 143.375H227.086V147.375H232.836V143.375ZM225.086 145.375V147.1H229.086V145.375H225.086ZM227.086 149.1H232.636V145.1H227.086V149.1ZM230.681 146.676C230.527 147.385 230.225 148.036 229.598 148.659C228.945 149.308 227.844 150.019 225.95 150.654L227.222 154.446C229.502 153.681 231.202 152.704 232.417 151.497C233.659 150.264 234.294 148.89 234.59 147.524L230.681 146.676ZM225.221 154.012C225.317 154.102 225.49 154.288 225.671 154.513C225.757 154.62 225.834 154.722 225.895 154.81C225.926 154.853 225.949 154.889 225.967 154.918C225.986 154.947 225.993 154.961 225.993 154.961L229.528 153.089C229.171 152.414 228.437 151.542 227.95 151.088L225.221 154.012ZM228.416 155.915C231.094 154.985 233.022 153.76 234.344 152.241C235.682 150.705 236.272 149.015 236.514 147.396L232.558 146.804C232.4 147.86 232.052 148.783 231.327 149.615C230.587 150.465 229.327 151.365 227.105 152.135L228.416 155.915ZM234.536 149.1H239.036V145.1H234.536V149.1ZM237.036 147.1V151.1H241.036V147.1H237.036ZM237.036 151.1C237.036 152.139 237.131 153.571 238.17 154.594C239.198 155.606 240.629 155.7 241.686 155.7V151.7C241.227 151.7 240.979 151.668 240.854 151.638C240.751 151.613 240.848 151.617 240.976 151.743C241.107 151.872 241.117 151.976 241.096 151.889C241.068 151.778 241.036 151.545 241.036 151.1H237.036ZM241.686 155.7H244.961V151.7H241.686V155.7ZM244.961 155.7C245.555 155.7 246.231 155.633 246.885 155.353C247.59 155.053 248.145 154.56 248.542 153.919C249.227 152.813 249.398 151.301 249.483 149.76L245.489 149.54C245.447 150.297 245.388 150.843 245.31 151.242C245.232 151.649 245.154 151.793 245.142 151.813C245.141 151.814 245.159 151.785 245.202 151.748C245.246 151.709 245.289 151.686 245.316 151.674C245.353 151.658 245.279 151.7 244.961 151.7V155.7ZM247.971 147.71C247.856 147.681 247.65 147.612 247.43 147.513C247.325 147.466 247.234 147.42 247.163 147.379C247.087 147.336 247.062 147.315 247.072 147.323L244.55 150.427C244.945 150.748 245.418 150.994 245.792 151.162C246.184 151.338 246.615 151.494 247.001 151.59L247.971 147.71ZM243.812 148.8C243.787 149.465 243.762 149.953 243.729 150.321C243.713 150.503 243.696 150.637 243.68 150.736C243.672 150.785 243.665 150.821 243.66 150.846C243.654 150.871 243.651 150.881 243.651 150.88C243.652 150.879 243.657 150.862 243.67 150.833C243.682 150.803 243.704 150.758 243.738 150.703C243.809 150.587 243.927 150.441 244.106 150.311C244.285 150.181 244.463 150.113 244.6 150.08C244.725 150.049 244.808 150.05 244.811 150.05V154.05C245.19 154.05 245.839 153.995 246.454 153.549C247.069 153.103 247.341 152.492 247.476 152.051C247.711 151.286 247.763 150.189 247.809 148.95L243.812 148.8ZM244.811 150.05H241.961V154.05H244.811V150.05ZM241.961 150.05C241.781 150.05 241.769 150.04 241.83 150.052C241.906 150.067 242.208 150.137 242.508 150.417C242.821 150.71 242.921 151.033 242.95 151.163C242.972 151.261 242.961 151.285 242.961 151.125H238.961C238.961 151.353 238.969 151.686 239.045 152.03C239.129 152.406 239.319 152.912 239.776 153.339C240.22 153.754 240.719 153.91 241.061 153.977C241.39 154.042 241.716 154.05 241.961 154.05V150.05ZM242.961 151.125V147.1H238.961V151.125H242.961ZM240.961 149.1H246.886V145.1H240.961V149.1ZM248.886 147.1V145.375H244.886V147.1H248.886ZM246.886 143.375H240.961V147.375H246.886V143.375ZM242.961 145.375V141.65H238.961V145.375H242.961ZM240.961 143.65H243.836V139.65H240.961V143.65ZM255.986 141.875V139.875H253.986V141.875H255.986ZM268.036 141.875H270.036V139.875H268.036V141.875ZM268.036 144.475V146.475H270.036V144.475H268.036ZM255.986 144.475H253.986V146.475H255.986V144.475ZM255.986 137.725V135.725H253.986V137.725H255.986ZM268.036 137.725H270.036V135.725H268.036V137.725ZM268.036 140.3V142.3H270.036V140.3H268.036ZM255.986 140.3H253.986V142.3H255.986V140.3ZM255.986 133.625V131.625H253.986V133.625H255.986ZM268.036 133.625H270.036V131.625H268.036V133.625ZM268.036 136.175V138.175H270.036V136.175H268.036ZM255.986 136.175H253.986V138.175H255.986V136.175ZM265.486 146.125V144.125H263.486V146.125H265.486ZM269.911 146.125V148.125H271.911V146.125H269.911ZM269.911 131.95H271.911V129.95H269.911V131.95ZM254.186 131.95V129.95H252.186V131.95H254.186ZM254.186 146.125H252.186V148.125H254.186V146.125ZM257.561 146.125L259.534 146.449L259.916 144.125H257.561V146.125ZM250.586 152.3L250.194 150.339L246.529 151.072L249.172 153.714L250.586 152.3ZM251.636 153.925L249.729 154.527L250.284 156.286L252.082 155.875L251.636 153.925ZM259.511 146.125V144.125H257.788L257.533 145.828L259.511 146.125ZM263.611 146.125H265.611V144.125H263.611V146.125ZM273.486 149.175L275.482 149.299L275.586 147.619L273.949 147.229L273.486 149.175ZM271.761 148.425L273.022 146.873L269.893 144.33L269.762 148.36L271.761 148.425ZM255.986 143.875H268.036V139.875H255.986V143.875ZM266.036 141.875V144.475H270.036V141.875H266.036ZM268.036 142.475H255.986V146.475H268.036V142.475ZM257.986 144.475V141.875H253.986V144.475H257.986ZM255.986 139.725H268.036V135.725H255.986V139.725ZM266.036 137.725V140.3H270.036V137.725H266.036ZM268.036 138.3H255.986V142.3H268.036V138.3ZM257.986 140.3V137.725H253.986V140.3H257.986ZM255.986 135.625H268.036V131.625H255.986V135.625ZM266.036 133.625V136.175H270.036V133.625H266.036ZM268.036 134.175H255.986V138.175H268.036V134.175ZM257.986 136.175V133.625H253.986V136.175H257.986ZM266.761 149.95C266.511 149.95 266.407 149.941 266.377 149.937C266.333 149.931 266.551 149.949 266.823 150.128C266.972 150.227 267.114 150.359 267.231 150.523C267.345 150.681 267.408 150.832 267.443 150.942C267.5 151.125 267.486 151.228 267.486 151.1H263.486C263.486 151.46 263.48 152.713 264.617 153.465C265.073 153.767 265.543 153.861 265.839 153.901C266.148 153.943 266.473 153.95 266.761 153.95V149.95ZM267.486 151.1V146.125H263.486V151.1H267.486ZM265.486 148.125H269.911V144.125H265.486V148.125ZM271.911 146.125V131.95H267.911V146.125H271.911ZM269.911 129.95H254.186V133.95H269.911V129.95ZM252.186 131.95V146.125H256.186V131.95H252.186ZM254.186 148.125H257.561V144.125H254.186V148.125ZM255.587 145.801C255.356 147.21 255 148.011 254.399 148.599C253.761 149.223 252.589 149.86 250.194 150.339L250.978 154.261C253.707 153.715 255.76 152.864 257.197 151.457C258.671 150.014 259.241 148.24 259.534 146.449L255.587 145.801ZM249.172 153.714C249.232 153.775 249.373 153.944 249.523 154.172C249.592 154.278 249.649 154.374 249.69 154.452C249.735 154.539 249.739 154.562 249.729 154.527L253.543 153.323C253.385 152.823 253.098 152.33 252.867 151.978C252.623 151.606 252.314 151.2 252 150.886L249.172 153.714ZM252.082 155.875C255.13 155.176 257.385 154.091 258.948 152.392C260.52 150.683 261.162 148.602 261.489 146.422L257.533 145.828C257.26 147.648 256.802 148.817 256.004 149.683C255.199 150.559 253.817 151.374 251.189 151.975L252.082 155.875ZM259.511 148.125H263.611V144.125H259.511V148.125ZM261.611 146.125V151.125H265.611V146.125H261.611ZM261.611 151.125C261.611 152.2 261.739 153.67 262.906 154.682C263.972 155.608 265.427 155.7 266.586 155.7V151.7C266.057 151.7 265.738 151.667 265.548 151.627C265.368 151.588 265.418 151.566 265.528 151.662C265.656 151.773 265.682 151.882 265.669 151.836C265.647 151.756 265.611 151.552 265.611 151.125H261.611ZM266.586 155.7H270.611V151.7H266.586V155.7ZM270.611 155.7C271.252 155.7 271.971 155.636 272.661 155.358C273.409 155.057 274.009 154.551 274.443 153.865C274.843 153.23 275.061 152.506 275.2 151.795C275.341 151.073 275.424 150.236 275.482 149.299L271.49 149.051C271.435 149.926 271.365 150.561 271.274 151.028C271.181 151.505 271.088 151.686 271.06 151.729C271.053 151.741 271.064 151.721 271.098 151.692C271.133 151.663 271.162 151.65 271.168 151.647C271.168 151.647 271.132 151.662 271.038 151.675C270.943 151.689 270.805 151.7 270.611 151.7V155.7ZM273.949 147.229C273.797 147.193 273.568 147.121 273.344 147.028C273.236 146.983 273.147 146.941 273.08 146.904C273.007 146.865 272.996 146.851 273.022 146.873L270.5 149.977C270.922 150.32 271.43 150.564 271.808 150.722C272.216 150.891 272.649 151.032 273.023 151.121L273.949 147.229ZM269.762 148.36C269.737 149.119 269.708 149.667 269.666 150.07C269.646 150.269 269.625 150.411 269.606 150.511C269.586 150.614 269.573 150.646 269.577 150.635C269.595 150.588 269.726 150.293 270.094 150.087C270.389 149.922 270.611 149.95 270.461 149.95V153.95C270.811 153.95 271.433 153.922 272.05 153.576C272.739 153.19 273.114 152.59 273.319 152.047C273.506 151.551 273.592 150.999 273.646 150.476C273.701 149.93 273.734 149.268 273.76 148.49L269.762 148.36ZM270.461 149.95H266.761V153.95H270.461V149.95Z" fill="#F5F5F5"/>
<path d="M40.133 99.252C40.133 106.13 38.252 111.317 34.49 114.813C30.766 118.271 25.56 120 18.872 120H7.529V79.302H20.069C24.173 79.302 27.726 80.062 30.728 81.582C33.73 83.102 36.048 85.344 37.682 88.308C39.316 91.234 40.133 94.882 40.133 99.252ZM34.718 99.423C34.718 93.989 33.369 90.018 30.671 87.51C28.011 84.964 24.23 83.691 19.328 83.691H12.659V115.611H18.188C29.208 115.611 34.718 110.215 34.718 99.423ZM62.9027 120H48.1967V117.036L52.9847 115.953V83.406L48.1967 82.266V79.302H62.9027V82.266L58.1147 83.406V115.953L62.9027 117.036V120ZM96.1261 109.113C96.1261 112.723 94.8151 115.535 92.1931 117.549C89.5711 119.563 86.0371 120.57 81.5911 120.57C79.3111 120.57 77.2021 120.399 75.2641 120.057C73.3261 119.715 71.7111 119.24 70.4191 118.632V113.73C71.7871 114.338 73.4781 114.889 75.4921 115.383C77.5441 115.877 79.6531 116.124 81.8191 116.124C84.8591 116.124 87.1391 115.535 88.6591 114.357C90.2171 113.179 90.9961 111.583 90.9961 109.569C90.9961 108.239 90.7111 107.118 90.1411 106.206C89.5711 105.294 88.5831 104.458 87.1771 103.698C85.8091 102.9 83.8901 102.064 81.4201 101.19C77.9621 99.936 75.3401 98.397 73.5541 96.573C71.8061 94.749 70.9321 92.26 70.9321 89.106C70.9321 86.94 71.4831 85.097 72.5851 83.577C73.6871 82.019 75.2071 80.822 77.1451 79.986C79.1211 79.15 81.3821 78.732 83.9281 78.732C86.1701 78.732 88.2221 78.941 90.0841 79.359C91.9461 79.777 93.6371 80.328 95.1571 81.012L93.5611 85.401C92.1551 84.793 90.6161 84.28 88.9441 83.862C87.3101 83.444 85.6001 83.235 83.8141 83.235C81.2681 83.235 79.3491 83.786 78.0571 84.888C76.7651 85.952 76.1191 87.377 76.1191 89.163C76.1191 90.531 76.4041 91.671 76.9741 92.583C77.5441 93.495 78.4751 94.312 79.7671 95.034C81.0591 95.756 82.8071 96.535 85.0111 97.371C87.4051 98.245 89.4191 99.195 91.0531 100.221C92.7251 101.209 93.9791 102.406 94.8151 103.812C95.6891 105.218 96.1261 106.985 96.1261 109.113ZM124.046 83.235C119.676 83.235 116.237 84.698 113.729 87.624C111.221 90.55 109.967 94.559 109.967 99.651C109.967 104.705 111.126 108.714 113.444 111.678C115.8 114.604 119.315 116.067 123.989 116.067C125.775 116.067 127.466 115.915 129.062 115.611C130.658 115.307 132.216 114.927 133.736 114.471V118.917C132.216 119.487 130.639 119.905 129.005 120.171C127.409 120.437 125.49 120.57 123.248 120.57C119.106 120.57 115.648 119.715 112.874 118.005C110.1 116.295 108.01 113.863 106.604 110.709C105.236 107.555 104.552 103.85 104.552 99.594C104.552 95.49 105.293 91.88 106.775 88.764C108.295 85.61 110.518 83.159 113.444 81.411C116.37 79.625 119.923 78.732 124.103 78.732C128.397 78.732 132.14 79.53 135.332 81.126L133.28 85.458C132.026 84.888 130.62 84.375 129.062 83.919C127.542 83.463 125.87 83.235 124.046 83.235ZM179.297 99.594C179.297 103.812 178.575 107.498 177.131 110.652C175.725 113.768 173.635 116.2 170.861 117.948C168.087 119.696 164.648 120.57 160.544 120.57C156.326 120.57 152.811 119.696 149.999 117.948C147.225 116.2 145.154 113.749 143.786 110.595C142.418 107.441 141.734 103.755 141.734 99.537C141.734 95.357 142.418 91.709 143.786 88.593C145.154 85.477 147.225 83.045 149.999 81.297C152.811 79.549 156.345 78.675 160.601 78.675C164.667 78.675 168.087 79.549 170.861 81.297C173.635 83.007 175.725 85.439 177.131 88.593C178.575 91.709 179.297 95.376 179.297 99.594ZM147.149 99.594C147.149 104.724 148.232 108.771 150.398 111.735C152.564 114.661 155.946 116.124 160.544 116.124C165.18 116.124 168.562 114.661 170.69 111.735C172.818 108.771 173.882 104.724 173.882 99.594C173.882 94.464 172.818 90.455 170.69 87.567C168.562 84.641 165.199 83.178 160.601 83.178C156.003 83.178 152.602 84.641 150.398 87.567C148.232 90.455 147.149 94.464 147.149 99.594ZM218.711 79.302L204.176 120H199.046L184.511 79.302H189.869L199.046 105.408C199.654 107.08 200.167 108.657 200.585 110.139C201.003 111.583 201.345 112.97 201.611 114.3C201.877 112.97 202.219 111.564 202.637 110.082C203.055 108.6 203.568 107.004 204.176 105.294L213.296 79.302H218.711ZM249.241 120H226.498V79.302H249.241V83.805H231.628V96.516H248.215V100.962H231.628V115.497H249.241V120ZM271.68 79.302C276.734 79.302 280.458 80.271 282.852 82.209C285.284 84.109 286.5 86.997 286.5 90.873C286.5 93.039 286.101 94.844 285.303 96.288C284.505 97.732 283.479 98.891 282.225 99.765C281.009 100.601 279.717 101.266 278.349 101.76L289.521 120H283.536L273.675 103.185H265.581V120H260.451V79.302H271.68ZM271.395 83.748H265.581V98.853H271.68C274.986 98.853 277.399 98.207 278.919 96.915C280.439 95.585 281.199 93.647 281.199 91.101C281.199 88.441 280.401 86.56 278.805 85.458C277.209 84.318 274.739 83.748 271.395 83.748ZM308.791 99.309L319.393 79.302H324.922L311.356 104.211V120H306.226V104.439L292.66 79.302H298.246L308.791 99.309Z" fill="#7546D9"/>
<path d="M34.49 114.813L35.8509 116.279L35.8515 116.278L34.49 114.813ZM7.529 120H5.529V122H7.529V120ZM7.529 79.302V77.302H5.529V79.302H7.529ZM37.682 88.308L35.9305 89.2736L35.9358 89.2831L37.682 88.308ZM30.671 87.51L29.2881 88.9548L29.2986 88.9649L29.3093 88.9748L30.671 87.51ZM12.659 83.691V81.691H10.659V83.691H12.659ZM12.659 115.611H10.659V117.611H12.659V115.611ZM38.133 99.252C38.133 105.771 36.3587 110.346 33.1285 113.348L35.8515 116.278C40.1454 112.288 42.133 106.489 42.133 99.252H38.133ZM33.1291 113.347C29.8797 116.365 25.2189 118 18.872 118V122C25.9011 122 31.6523 120.177 35.8509 116.279L33.1291 113.347ZM18.872 118H7.529V122H18.872V118ZM9.529 120V79.302H5.529V120H9.529ZM7.529 81.302H20.069V77.302H7.529V81.302ZM20.069 81.302C23.9271 81.302 27.1575 82.0159 29.8245 83.3663L31.6315 79.7977C28.2945 78.1081 24.4189 77.302 20.069 77.302V81.302ZM29.8245 83.3663C32.4658 84.7037 34.4893 86.6593 35.9305 89.2736L39.4335 87.3424C37.6067 84.0287 34.9942 81.5003 31.6315 79.7977L29.8245 83.3663ZM35.9358 89.2831C37.3603 91.834 38.133 95.1226 38.133 99.252H42.133C42.133 94.6414 41.2717 90.634 39.4282 87.3329L35.9358 89.2831ZM36.718 99.423C36.718 93.699 35.2983 89.0808 32.0327 86.0451L29.3093 88.9748C31.4397 90.9552 32.718 94.279 32.718 99.423H36.718ZM32.0539 86.0652C28.9118 83.0577 24.57 81.691 19.328 81.691V85.691C23.89 85.691 27.1102 86.8703 29.2881 88.9548L32.0539 86.0652ZM19.328 81.691H12.659V85.691H19.328V81.691ZM10.659 83.691V115.611H14.659V83.691H10.659ZM12.659 117.611H18.188V113.611H12.659V117.611ZM18.188 117.611C23.9959 117.611 28.7212 116.189 31.9849 112.993C35.2563 109.789 36.718 105.138 36.718 99.423H32.718C32.718 104.5 31.4247 107.943 29.1861 110.135C26.9398 112.335 23.4001 113.611 18.188 113.611V117.611ZM62.9027 120V122H64.9027V120H62.9027ZM48.1967 120H46.1967V122H48.1967V120ZM48.1967 117.036L47.7555 115.085L46.1967 115.438V117.036H48.1967ZM52.9847 115.953L53.426 117.904L54.9847 117.551V115.953H52.9847ZM52.9847 83.406H54.9847V81.8263L53.448 81.4604L52.9847 83.406ZM48.1967 82.266H46.1967V83.8457L47.7335 84.2116L48.1967 82.266ZM48.1967 79.302V77.302H46.1967V79.302H48.1967ZM62.9027 79.302H64.9027V77.302H62.9027V79.302ZM62.9027 82.266L63.366 84.2116L64.9027 83.8457V82.266H62.9027ZM58.1147 83.406L57.6515 81.4604L56.1147 81.8263V83.406H58.1147ZM58.1147 115.953H56.1147V117.551L57.6735 117.904L58.1147 115.953ZM62.9027 117.036H64.9027V115.438L63.344 115.085L62.9027 117.036ZM62.9027 118H48.1967V122H62.9027V118ZM50.1967 120V117.036H46.1967V120H50.1967ZM48.638 118.987L53.426 117.904L52.5435 114.002L47.7555 115.085L48.638 118.987ZM54.9847 115.953V83.406H50.9847V115.953H54.9847ZM53.448 81.4604L48.66 80.3204L47.7335 84.2116L52.5215 85.3516L53.448 81.4604ZM50.1967 82.266V79.302H46.1967V82.266H50.1967ZM48.1967 81.302H62.9027V77.302H48.1967V81.302ZM60.9027 79.302V82.266H64.9027V79.302H60.9027ZM62.4395 80.3204L57.6515 81.4604L58.578 85.3516L63.366 84.2116L62.4395 80.3204ZM56.1147 83.406V115.953H60.1147V83.406H56.1147ZM57.6735 117.904L62.4615 118.987L63.344 115.085L58.556 114.002L57.6735 117.904ZM60.9027 117.036V120H64.9027V117.036H60.9027ZM92.1931 117.549L90.9748 115.963L90.9748 115.963L92.1931 117.549ZM75.2641 120.057L75.6117 118.087L75.6117 118.087L75.2641 120.057ZM70.4191 118.632H68.4191V119.901L69.5676 120.442L70.4191 118.632ZM70.4191 113.73L71.2314 111.902L68.4191 110.652V113.73H70.4191ZM75.4921 115.383L75.0157 117.325L75.024 117.327L75.4921 115.383ZM88.6591 114.357L87.4529 112.762L87.4434 112.769L87.434 112.776L88.6591 114.357ZM90.1411 106.206L88.4451 107.266L88.4452 107.266L90.1411 106.206ZM87.1771 103.698L86.1694 105.426L86.1975 105.442L86.2261 105.457L87.1771 103.698ZM81.4201 101.19L80.7383 103.07L80.7456 103.073L80.753 103.075L81.4201 101.19ZM73.5541 96.573L72.1102 97.9568L72.1176 97.9646L72.1251 97.9722L73.5541 96.573ZM72.5851 83.577L74.2044 84.7509L74.2112 84.7415L74.218 84.7319L72.5851 83.577ZM77.1451 79.986L76.3658 78.144L76.353 78.1496L77.1451 79.986ZM90.0841 79.359L90.5222 77.4076L90.5222 77.4076L90.0841 79.359ZM95.1571 81.012L97.0367 81.6955L97.6714 79.9502L95.9779 79.1882L95.1571 81.012ZM93.5611 85.401L92.7673 87.2367L94.7154 88.0791L95.4407 86.0845L93.5611 85.401ZM88.9441 83.862L88.4485 85.7996L88.4591 85.8023L88.9441 83.862ZM78.0571 84.888L79.3286 86.4319L79.3419 86.4209L79.355 86.4097L78.0571 84.888ZM76.9741 92.583L78.6701 91.523L78.6701 91.523L76.9741 92.583ZM79.7671 95.034L78.7915 96.7799L78.7915 96.7799L79.7671 95.034ZM85.0111 97.371L84.3018 99.241L84.3135 99.2454L84.3253 99.2497L85.0111 97.371ZM91.0531 100.221L89.9896 101.915L90.0125 101.929L90.0357 101.943L91.0531 100.221ZM94.8151 103.812L93.0961 104.834L93.1062 104.851L93.1166 104.868L94.8151 103.812ZM94.1261 109.113C94.1261 112.167 93.0541 114.366 90.9748 115.963L93.4115 119.135C96.5762 116.704 98.1261 113.279 98.1261 109.113H94.1261ZM90.9748 115.963C88.8055 117.629 85.7474 118.57 81.5911 118.57V122.57C86.3269 122.57 90.3368 121.497 93.4115 119.135L90.9748 115.963ZM81.5911 118.57C79.4098 118.57 77.4186 118.406 75.6117 118.087L74.9166 122.027C76.9857 122.392 79.2125 122.57 81.5911 122.57V118.57ZM75.6117 118.087C73.7874 117.765 72.355 117.333 71.2707 116.822L69.5676 120.442C71.0673 121.147 72.8649 121.665 74.9166 122.027L75.6117 118.087ZM72.4191 118.632V113.73H68.4191V118.632H72.4191ZM69.6069 115.558C71.1155 116.228 72.927 116.813 75.0157 117.325L75.9686 113.441C74.0293 112.965 72.4588 112.448 71.2314 111.902L69.6069 115.558ZM75.024 117.327C77.2333 117.859 79.4996 118.124 81.8191 118.124V114.124C79.8067 114.124 77.855 113.895 75.9603 113.439L75.024 117.327ZM81.8191 118.124C85.062 118.124 87.8619 117.505 89.8843 115.938L87.434 112.776C86.4164 113.565 84.6563 114.124 81.8191 114.124V118.124ZM89.8654 115.952C91.9413 114.383 92.9961 112.187 92.9961 109.569H88.9961C88.9961 110.979 88.493 111.975 87.4529 112.762L89.8654 115.952ZM92.9961 109.569C92.9961 107.953 92.648 106.443 91.8371 105.146L88.4452 107.266C88.7742 107.793 88.9961 108.525 88.9961 109.569H92.9961ZM91.8371 105.146C91.0155 103.831 89.7015 102.789 88.1282 101.939L86.2261 105.457C87.4648 106.127 88.1268 106.757 88.4451 107.266L91.8371 105.146ZM88.1849 101.97C86.6614 101.082 84.6096 100.197 82.0873 99.3046L80.753 103.075C83.1707 103.931 84.9569 104.718 86.1694 105.426L88.1849 101.97ZM82.102 99.3098C78.8107 98.1163 76.4877 96.7103 74.9832 95.1737L72.1251 97.9722C74.1926 100.084 77.1136 101.756 80.7383 103.07L82.102 99.3098ZM74.9981 95.1892C73.6903 93.8245 72.9321 91.8788 72.9321 89.106H68.9321C68.9321 92.6412 69.922 95.6735 72.1102 97.9568L74.9981 95.1892ZM72.9321 89.106C72.9321 87.2945 73.3866 85.8789 74.2044 84.7509L70.9659 82.4031C69.5797 84.3151 68.9321 86.5855 68.9321 89.106H72.9321ZM74.218 84.7319C75.0857 83.5052 76.3 82.5287 77.9373 81.8224L76.353 78.1496C74.1143 79.1153 72.2886 80.5328 70.9523 82.4221L74.218 84.7319ZM77.9244 81.8279C79.6123 81.1138 81.6008 80.732 83.9281 80.732V76.732C81.1635 76.732 78.63 77.1862 76.3659 78.1441L77.9244 81.8279ZM83.9281 80.732C86.0477 80.732 87.9503 80.9297 89.6461 81.3104L90.5222 77.4076C88.494 76.9523 86.2926 76.732 83.9281 76.732V80.732ZM89.6461 81.3104C91.3951 81.7031 92.9555 82.2144 94.3364 82.8358L95.9779 79.1882C94.3188 78.4416 92.4972 77.8509 90.5222 77.4076L89.6461 81.3104ZM93.2776 80.3285L91.6816 84.7175L95.4407 86.0845L97.0367 81.6955L93.2776 80.3285ZM94.355 83.5653C92.8376 82.9091 91.1939 82.3629 89.4292 81.9217L88.4591 85.8023C90.0383 86.1971 91.4727 86.6769 92.7673 87.2367L94.355 83.5653ZM89.4398 81.9244C87.6346 81.4626 85.7575 81.235 83.8141 81.235V85.235C85.4428 85.235 86.9857 85.4254 88.4485 85.7996L89.4398 81.9244ZM83.8141 81.235C81.0219 81.235 78.5562 81.8337 76.7593 83.3663L79.355 86.4097C80.1421 85.7383 81.5144 85.235 83.8141 85.235V81.235ZM76.7857 83.3441C74.9981 84.8163 74.1191 86.8253 74.1191 89.163H78.1191C78.1191 87.9287 78.5322 87.0877 79.3286 86.4319L76.7857 83.3441ZM74.1191 89.163C74.1191 90.8049 74.4621 92.3372 75.2782 93.643L78.6701 91.523C78.3462 91.0048 78.1191 90.2571 78.1191 89.163H74.1191ZM75.2781 93.643C76.0812 94.9279 77.3108 95.9524 78.7915 96.7799L80.7428 93.2881C79.6395 92.6716 79.007 92.062 78.6701 91.523L75.2781 93.643ZM78.7915 96.7799C80.2039 97.5692 82.053 98.388 84.3018 99.241L85.7205 95.501C83.5613 94.682 81.9144 93.9428 80.7428 93.2881L78.7915 96.7799ZM84.3253 99.2497C86.6266 100.09 88.5055 100.983 89.9896 101.915L92.1167 98.5272C90.3328 97.4071 88.1837 96.4001 85.697 95.4923L84.3253 99.2497ZM90.0357 101.943C91.4729 102.792 92.461 103.766 93.0961 104.834L96.5342 102.79C95.4973 101.046 93.9774 99.6259 92.0706 98.4991L90.0357 101.943ZM93.1166 104.868C93.7447 105.878 94.1261 107.253 94.1261 109.113H98.1261C98.1261 106.717 97.6336 104.558 96.5137 102.756L93.1166 104.868ZM113.729 87.624L115.248 88.9256L115.248 88.9256L113.729 87.624ZM113.444 111.678L111.869 112.91L111.878 112.921L111.887 112.932L113.444 111.678ZM129.062 115.611L128.688 113.646L128.688 113.646L129.062 115.611ZM133.736 114.471H135.736V111.783L133.162 112.555L133.736 114.471ZM133.736 118.917L134.439 120.79L135.736 120.303V118.917H133.736ZM129.005 120.171L128.684 118.197L128.677 118.198L129.005 120.171ZM112.874 118.005L113.924 116.302L113.924 116.302L112.874 118.005ZM106.604 110.709L104.77 111.505L104.774 111.514L104.778 111.523L106.604 110.709ZM106.775 88.764L104.974 87.8957L104.969 87.905L106.775 88.764ZM113.444 81.411L114.47 83.1279L114.478 83.1231L114.486 83.1181L113.444 81.411ZM135.332 81.126L137.14 81.9822L137.978 80.2127L136.227 79.3371L135.332 81.126ZM133.28 85.458L132.453 87.2787L134.245 88.0934L135.088 86.3142L133.28 85.458ZM129.062 83.919L128.488 85.8347L128.501 85.8385L129.062 83.919ZM124.046 81.235C119.18 81.235 115.152 82.8908 112.211 86.3224L115.248 88.9256C117.323 86.5052 120.173 85.235 124.046 85.235V81.235ZM112.211 86.3224C109.304 89.7137 107.967 94.237 107.967 99.651H111.967C111.967 94.881 113.139 91.3863 115.248 88.9256L112.211 86.3224ZM107.967 99.651C107.967 104.999 109.195 109.491 111.869 112.91L115.02 110.446C113.058 107.937 111.967 104.411 111.967 99.651H107.967ZM111.887 112.932C114.713 116.443 118.872 118.067 123.989 118.067V114.067C119.759 114.067 116.887 112.765 115.002 110.424L111.887 112.932ZM123.989 118.067C125.889 118.067 127.706 117.905 129.437 117.576L128.688 113.646C127.227 113.925 125.662 114.067 123.989 114.067V118.067ZM129.437 117.576C131.099 117.259 132.724 116.863 134.311 116.387L133.162 112.555C131.709 112.991 130.218 113.355 128.688 113.646L129.437 117.576ZM131.736 114.471V118.917H135.736V114.471H131.736ZM133.034 117.044C131.64 117.567 130.191 117.952 128.684 118.197L129.327 122.145C131.088 121.858 132.793 121.407 134.439 120.79L133.034 117.044ZM128.677 118.198C127.222 118.441 125.419 118.57 123.248 118.57V122.57C125.562 122.57 127.597 122.433 129.334 122.144L128.677 118.198ZM123.248 118.57C119.378 118.57 116.307 117.772 113.924 116.302L111.825 119.708C114.989 121.658 118.835 122.57 123.248 122.57V118.57ZM113.924 116.302C111.513 114.817 109.684 112.704 108.431 109.895L104.778 111.523C106.337 115.022 108.687 117.773 111.825 119.708L113.924 116.302ZM108.439 109.913C107.203 107.063 106.552 103.639 106.552 99.594H102.552C102.552 104.061 103.27 108.047 104.77 111.505L108.439 109.913ZM106.552 99.594C106.552 95.7315 107.249 92.4245 108.581 89.623L104.969 87.905C103.338 91.3355 102.552 95.2485 102.552 99.594H106.552ZM108.577 89.6323C109.932 86.8209 111.89 84.6694 114.47 83.1279L112.419 79.694C109.147 81.6486 106.659 84.3991 104.974 87.8957L108.577 89.6323ZM114.486 83.1181C117.036 81.5618 120.21 80.732 124.103 80.732V76.732C119.636 76.732 115.705 77.6882 112.402 79.7039L114.486 83.1181ZM124.103 80.732C128.149 80.732 131.575 81.4832 134.438 82.9149L136.227 79.3371C132.706 77.5768 128.645 76.732 124.103 76.732V80.732ZM133.525 80.2698L131.473 84.6018L135.088 86.3142L137.14 81.9822L133.525 80.2698ZM134.108 83.6373C132.754 83.0219 131.257 82.4776 129.624 81.9995L128.501 85.8385C129.983 86.2724 131.298 86.7541 132.453 87.2787L134.108 83.6373ZM129.637 82.0033C127.905 81.4838 126.037 81.235 124.046 81.235V85.235C125.704 85.235 127.18 85.4422 128.488 85.8347L129.637 82.0033ZM177.131 110.652L175.312 109.819L175.308 109.829L177.131 110.652ZM170.861 117.948L169.794 116.256L169.794 116.256L170.861 117.948ZM149.999 117.948L148.932 119.64L148.943 119.647L149.999 117.948ZM143.786 88.593L145.617 89.397L145.617 89.397L143.786 88.593ZM149.999 81.297L148.943 79.5984L148.932 79.6049L149.999 81.297ZM170.861 81.297L169.794 82.9891L169.803 82.9943L169.811 82.9995L170.861 81.297ZM177.131 88.593L175.304 89.4073L175.31 89.4207L175.316 89.4339L177.131 88.593ZM150.398 111.735L148.783 112.915L148.79 112.925L150.398 111.735ZM170.69 111.735L172.307 112.911L172.314 112.901L170.69 111.735ZM170.69 87.567L169.072 88.7434L169.08 88.7534L170.69 87.567ZM150.398 87.567L148.8 86.3637L148.798 86.367L150.398 87.567ZM177.297 99.594C177.297 103.585 176.614 106.977 175.312 109.819L178.949 111.485C180.536 108.019 181.297 104.039 181.297 99.594H177.297ZM175.308 109.829C174.056 112.604 172.222 114.726 169.794 116.256L171.927 119.64C175.048 117.674 177.394 114.932 178.954 111.475L175.308 109.829ZM169.794 116.256C167.411 117.758 164.365 118.57 160.544 118.57V122.57C164.931 122.57 168.762 121.634 171.927 119.64L169.794 116.256ZM160.544 118.57C156.598 118.57 153.474 117.753 151.055 116.249L148.943 119.647C152.148 121.639 156.054 122.57 160.544 122.57V118.57ZM151.065 116.256C148.649 114.733 146.837 112.603 145.621 109.799L141.951 111.391C143.471 114.895 145.801 117.667 148.932 119.64L151.065 116.256ZM145.621 109.799C144.383 106.946 143.734 103.542 143.734 99.537H139.734C139.734 103.968 140.452 107.936 141.951 111.391L145.621 109.799ZM143.734 99.537C143.734 95.5722 144.383 92.2087 145.617 89.397L141.954 87.789C140.453 91.2093 139.734 95.1418 139.734 99.537H143.734ZM145.617 89.397C146.831 86.6321 148.642 84.5157 151.065 82.9891L148.932 79.6049C145.807 81.5743 143.477 84.3219 141.954 87.789L145.617 89.397ZM151.055 82.9956C153.471 81.4935 156.613 80.675 160.601 80.675V76.675C156.077 76.675 152.15 77.6045 148.943 79.5984L151.055 82.9956ZM160.601 80.675C164.38 80.675 167.408 81.4856 169.794 82.9891L171.927 79.6049C168.765 77.6124 164.954 76.675 160.601 76.675V80.675ZM169.811 82.9995C172.222 84.4855 174.052 86.5977 175.304 89.4073L178.957 87.7787C177.398 84.2803 175.048 81.5285 171.91 79.5945L169.811 82.9995ZM175.316 89.4339C176.613 92.2333 177.297 95.6017 177.297 99.594H181.297C181.297 95.1503 180.536 91.1847 178.945 87.7521L175.316 89.4339ZM145.149 99.594C145.149 104.984 146.285 109.496 148.783 112.915L152.012 110.555C150.179 108.046 149.149 104.464 149.149 99.594H145.149ZM148.79 112.925C151.431 116.493 155.497 118.124 160.544 118.124V114.124C156.395 114.124 153.696 112.829 152.005 110.545L148.79 112.925ZM160.544 118.124C165.62 118.124 169.699 116.497 172.307 112.911L169.072 110.559C167.424 112.825 164.739 114.124 160.544 114.124V118.124ZM172.314 112.901C174.768 109.484 175.882 104.978 175.882 99.594H171.882C171.882 104.47 170.868 108.058 169.065 110.569L172.314 112.901ZM175.882 99.594C175.882 94.2144 174.769 89.7319 172.3 86.3806L169.08 88.7534C170.866 91.1781 171.882 94.7136 171.882 99.594H175.882ZM172.307 86.3907C169.702 82.8092 165.646 81.178 160.601 81.178V85.178C164.751 85.178 167.421 86.4728 169.072 88.7433L172.307 86.3907ZM160.601 81.178C155.552 81.178 151.477 82.8095 148.8 86.3637L151.995 88.7703C153.726 86.4725 156.453 85.178 160.601 85.178V81.178ZM148.798 86.367C146.283 89.72 145.149 94.2081 145.149 99.594H149.149C149.149 94.7199 150.18 91.19 151.998 88.767L148.798 86.367ZM218.711 79.302L220.595 79.9747L221.549 77.302H218.711V79.302ZM204.176 120V122H205.586L206.06 120.673L204.176 120ZM199.046 120L197.163 120.673L197.637 122H199.046V120ZM184.511 79.302V77.302H181.673L182.628 79.9747L184.511 79.302ZM189.869 79.302L191.756 78.6387L191.286 77.302H189.869V79.302ZM199.046 105.408L197.16 106.071L197.163 106.081L197.167 106.091L199.046 105.408ZM200.585 110.139L198.66 110.682L198.664 110.695L200.585 110.139ZM201.611 114.3L199.65 114.692H203.572L201.611 114.3ZM204.176 105.294L206.061 105.964L206.064 105.956L204.176 105.294ZM213.296 79.302V77.302H211.879L211.409 78.6398L213.296 79.302ZM216.828 78.6293L202.293 119.327L206.06 120.673L220.595 79.9747L216.828 78.6293ZM204.176 118H199.046V122H204.176V118ZM200.93 119.327L186.395 78.6293L182.628 79.9747L197.163 120.673L200.93 119.327ZM184.511 81.302H189.869V77.302H184.511V81.302ZM187.983 79.9653L197.16 106.071L200.933 104.745L191.756 78.6387L187.983 79.9653ZM197.167 106.091C197.76 107.724 198.258 109.254 198.66 110.682L202.51 109.596C202.077 108.06 201.548 106.436 200.926 104.725L197.167 106.091ZM198.664 110.695C199.068 112.091 199.396 113.423 199.65 114.692L203.572 113.908C203.294 112.517 202.938 111.075 202.506 109.583L198.664 110.695ZM203.572 114.692C203.827 113.419 204.156 112.064 204.562 110.625L200.712 109.539C200.282 111.064 199.928 112.521 199.65 113.908L203.572 114.692ZM204.562 110.625C204.966 109.192 205.465 107.639 206.061 105.964L202.292 104.624C201.672 106.369 201.144 108.008 200.712 109.539L204.562 110.625ZM206.064 105.956L215.184 79.9642L211.409 78.6398L202.289 104.632L206.064 105.956ZM213.296 81.302H218.711V77.302H213.296V81.302ZM249.241 120V122H251.241V120H249.241ZM226.498 120H224.498V122H226.498V120ZM226.498 79.302V77.302H224.498V79.302H226.498ZM249.241 79.302H251.241V77.302H249.241V79.302ZM249.241 83.805V85.805H251.241V83.805H249.241ZM231.628 83.805V81.805H229.628V83.805H231.628ZM231.628 96.516H229.628V98.516H231.628V96.516ZM248.215 96.516H250.215V94.516H248.215V96.516ZM248.215 100.962V102.962H250.215V100.962H248.215ZM231.628 100.962V98.962H229.628V100.962H231.628ZM231.628 115.497H229.628V117.497H231.628V115.497ZM249.241 115.497H251.241V113.497H249.241V115.497ZM249.241 118H226.498V122H249.241V118ZM228.498 120V79.302H224.498V120H228.498ZM226.498 81.302H249.241V77.302H226.498V81.302ZM247.241 79.302V83.805H251.241V79.302H247.241ZM249.241 81.805H231.628V85.805H249.241V81.805ZM229.628 83.805V96.516H233.628V83.805H229.628ZM231.628 98.516H248.215V94.516H231.628V98.516ZM246.215 96.516V100.962H250.215V96.516H246.215ZM248.215 98.962H231.628V102.962H248.215V98.962ZM229.628 100.962V115.497H233.628V100.962H229.628ZM231.628 117.497H249.241V113.497H231.628V117.497ZM247.241 115.497V120H251.241V115.497H247.241ZM282.852 82.209L281.594 83.7635L281.607 83.7744L281.621 83.785L282.852 82.209ZM285.303 96.288L287.053 97.2554L287.053 97.2554L285.303 96.288ZM282.225 99.765L283.358 101.413L283.369 101.406L282.225 99.765ZM278.349 101.76L277.67 99.8789L275.362 100.712L276.643 102.805L278.349 101.76ZM289.521 120V122H293.091L291.226 118.955L289.521 120ZM283.536 120L281.811 121.012L282.39 122H283.536V120ZM273.675 103.185L275.4 102.173L274.821 101.185H273.675V103.185ZM265.581 103.185V101.185H263.581V103.185H265.581ZM265.581 120V122H267.581V120H265.581ZM260.451 120H258.451V122H260.451V120ZM260.451 79.302V77.302H258.451V79.302H260.451ZM265.581 83.748V81.748H263.581V83.748H265.581ZM265.581 98.853H263.581V100.853H265.581V98.853ZM278.919 96.915L280.214 98.4389L280.225 98.4296L280.236 98.4202L278.919 96.915ZM278.805 85.458L277.642 87.0855L277.655 87.0947L277.669 87.1038L278.805 85.458ZM271.68 81.302C276.547 81.302 279.721 82.2476 281.594 83.7635L284.11 80.6545C281.195 78.2944 276.921 77.302 271.68 77.302V81.302ZM281.621 83.785C283.446 85.2108 284.5 87.4395 284.5 90.873H288.5C288.5 86.5545 287.122 83.0072 284.083 80.6329L281.621 83.785ZM284.5 90.873C284.5 92.8031 284.143 94.2512 283.552 95.3206L287.053 97.2554C288.058 95.4368 288.5 93.2748 288.5 90.873H284.5ZM283.552 95.3206C282.891 96.5183 282.065 97.4389 281.081 98.1242L283.369 101.406C284.893 100.343 286.119 98.9457 287.053 97.2554L283.552 95.3206ZM281.092 98.1169C280.014 98.8576 278.875 99.4437 277.67 99.8789L279.028 103.641C280.559 103.088 282.003 102.344 283.358 101.413L281.092 98.1169ZM276.643 102.805L287.815 121.045L291.226 118.955L280.054 100.715L276.643 102.805ZM289.521 118H283.536V122H289.521V118ZM285.261 118.988L275.4 102.173L271.95 104.197L281.811 121.012L285.261 118.988ZM273.675 101.185H265.581V105.185H273.675V101.185ZM263.581 103.185V120H267.581V103.185H263.581ZM265.581 118H260.451V122H265.581V118ZM262.451 120V79.302H258.451V120H262.451ZM260.451 81.302H271.68V77.302H260.451V81.302ZM271.395 81.748H265.581V85.748H271.395V81.748ZM263.581 83.748V98.853H267.581V83.748H263.581ZM265.581 100.853H271.68V96.853H265.581V100.853ZM271.68 100.853C275.172 100.853 278.161 100.184 280.214 98.4389L277.624 95.3911C276.637 96.2297 274.8 96.853 271.68 96.853V100.853ZM280.236 98.4202C282.298 96.6155 283.199 94.062 283.199 91.101H279.199C279.199 93.232 278.579 94.5545 277.602 95.4098L280.236 98.4202ZM283.199 91.101C283.199 88.0498 282.265 85.4168 279.941 83.8122L277.669 87.1038C278.537 87.7032 279.199 88.8322 279.199 91.101H283.199ZM279.967 83.8305C277.867 82.3304 274.892 81.748 271.395 81.748V85.748C274.585 85.748 276.551 86.3056 277.642 87.0855L279.967 83.8305ZM308.791 99.309L307.022 100.242L308.786 103.589L310.558 100.245L308.791 99.309ZM319.393 79.302V77.302H318.189L317.626 78.3655L319.393 79.302ZM324.922 79.302L326.678 80.2586L328.289 77.302H324.922V79.302ZM311.356 104.211L309.6 103.254L309.356 103.702V104.211H311.356ZM311.356 120V122H313.356V120H311.356ZM306.226 120H304.226V122H306.226V120ZM306.226 104.439H308.226V103.934L307.986 103.489L306.226 104.439ZM292.66 79.302V77.302H289.308L290.9 80.2519L292.66 79.302ZM298.246 79.302L300.015 78.3695L299.453 77.302H298.246V79.302ZM310.558 100.245L321.16 80.2385L317.626 78.3655L307.024 98.3725L310.558 100.245ZM319.393 81.302H324.922V77.302H319.393V81.302ZM323.166 78.3454L309.6 103.254L313.112 105.168L326.678 80.2586L323.166 78.3454ZM309.356 104.211V120H313.356V104.211H309.356ZM311.356 118H306.226V122H311.356V118ZM308.226 120V104.439H304.226V120H308.226ZM307.986 103.489L294.42 78.3521L290.9 80.2519L304.466 105.389L307.986 103.489ZM292.66 81.302H298.246V77.302H292.66V81.302ZM296.477 80.2345L307.022 100.242L310.56 98.3765L300.015 78.3695L296.477 80.2345Z" fill="#F5F5F5"/>
<path d="M32.24 18.4C26.1067 18.4 21.28 20.4533 17.76 24.56C14.24 28.6667 12.48 34.2933 12.48 41.44C12.48 48.5333 14.1067 54.16 17.36 58.32C20.6667 62.4267 25.6 64.48 32.16 64.48C34.6667 64.48 37.04 64.2667 39.28 63.84C41.52 63.4133 43.7067 62.88 45.84 62.24V68.48C43.7067 69.28 41.4933 69.8667 39.2 70.24C36.96 70.6133 34.2667 70.8 31.12 70.8C25.3067 70.8 20.4533 69.6 16.56 67.2C12.6667 64.8 9.73333 61.3867 7.76 56.96C5.84 52.5333 4.88 47.3333 4.88 41.36C4.88 35.6 5.92 30.5333 8 26.16C10.1333 21.7333 13.2533 18.2933 17.36 15.84C21.4667 13.3333 26.4533 12.08 32.32 12.08C38.3467 12.08 43.6 13.2 48.08 15.44L45.2 21.52C43.44 20.72 41.4667 20 39.28 19.36C37.1467 18.72 34.8 18.4 32.24 18.4ZM74.3869 70H53.7469V65.84L60.4669 64.32V18.64L53.7469 17.04V12.88H74.3869V17.04L67.6669 18.64V64.32L74.3869 65.84V70ZM103.496 70H96.2963V19.2H78.4563V12.88H121.256V19.2H103.496V70ZM144.749 40.96L159.629 12.88H167.389L148.349 47.84V70H141.149V48.16L122.109 12.88H129.949L144.749 40.96ZM190.302 12.88C197.769 12.88 203.209 14.3467 206.622 17.28C210.035 20.2133 211.742 24.3467 211.742 29.68C211.742 32.8267 211.022 35.7867 209.582 38.56C208.195 41.28 205.822 43.4933 202.462 45.2C199.155 46.9067 194.649 47.76 188.942 47.76H182.382V70H175.182V12.88H190.302ZM189.662 19.04H182.382V41.6H188.142C193.582 41.6 197.635 40.72 200.302 38.96C202.969 37.2 204.302 34.2133 204.302 30C204.302 26.32 203.129 23.5733 200.782 21.76C198.435 19.9467 194.729 19.04 189.662 19.04ZM273.459 41.36C273.459 47.28 272.446 52.4533 270.419 56.88C268.446 61.2533 265.513 64.6667 261.619 67.12C257.726 69.5733 252.899 70.8 247.139 70.8C241.219 70.8 236.286 69.5733 232.339 67.12C228.446 64.6667 225.539 61.2267 223.619 56.8C221.699 52.3733 220.739 47.2 220.739 41.28C220.739 35.4133 221.699 30.2933 223.619 25.92C225.539 21.5467 228.446 18.1333 232.339 15.68C236.286 13.2267 241.246 12 247.219 12C252.926 12 257.726 13.2267 261.619 15.68C265.513 18.08 268.446 21.4933 270.419 25.92C272.446 30.2933 273.459 35.44 273.459 41.36ZM228.339 41.36C228.339 48.56 229.859 54.24 232.899 58.4C235.939 62.5067 240.686 64.56 247.139 64.56C253.646 64.56 258.393 62.5067 261.379 58.4C264.366 54.24 265.859 48.56 265.859 41.36C265.859 34.16 264.366 28.5333 261.379 24.48C258.393 20.3733 253.673 18.32 247.219 18.32C240.766 18.32 235.993 20.3733 232.899 24.48C229.859 28.5333 228.339 34.16 228.339 41.36ZM301.239 12.88C308.706 12.88 314.146 14.3467 317.559 17.28C320.973 20.2133 322.679 24.3467 322.679 29.68C322.679 32.8267 321.959 35.7867 320.519 38.56C319.133 41.28 316.759 43.4933 313.399 45.2C310.093 46.9067 305.586 47.76 299.879 47.76H293.319V70H286.119V12.88H301.239ZM300.599 19.04H293.319V41.6H299.079C304.519 41.6 308.573 40.72 311.239 38.96C313.906 37.2 315.239 34.2133 315.239 30C315.239 26.32 314.066 23.5733 311.719 21.76C309.373 19.9467 305.666 19.04 300.599 19.04Z" fill="#D450D7"/>
<path d="M17.76 24.56L19.2785 25.8616L19.2785 25.8616L17.76 24.56ZM17.36 58.32L15.7846 59.5521L15.7933 59.5633L15.8022 59.5743L17.36 58.32ZM39.28 63.84L38.9058 61.8753L38.9058 61.8753L39.28 63.84ZM45.84 62.24H47.84V59.5519L45.2653 60.3243L45.84 62.24ZM45.84 68.48L46.5422 70.3527L47.84 69.866V68.48H45.84ZM39.2 70.24L38.8786 68.266L38.8712 68.2672L39.2 70.24ZM16.56 67.2L17.6095 65.4975L17.6095 65.4975L16.56 67.2ZM7.76 56.96L5.92516 57.7558L5.92918 57.7651L5.93329 57.7743L7.76 56.96ZM8 26.16L6.19829 25.2917L6.19387 25.301L8 26.16ZM17.36 15.84L18.3857 17.5569L18.3939 17.5521L18.402 17.5471L17.36 15.84ZM48.08 15.44L49.8875 16.2962L50.7256 14.5267L48.9744 13.6511L48.08 15.44ZM45.2 21.52L44.3724 23.3407L46.1647 24.1554L47.0075 22.3762L45.2 21.52ZM39.28 19.36L38.7053 21.2757L38.7182 21.2795L39.28 19.36ZM32.24 16.4C25.6102 16.4 20.1948 18.6462 16.2415 23.2584L19.2785 25.8616C22.3652 22.2605 26.6032 20.4 32.24 20.4V16.4ZM16.2415 23.2584C12.3227 27.8303 10.48 33.9714 10.48 41.44H14.48C14.48 34.6153 16.1573 29.503 19.2785 25.8616L16.2415 23.2584ZM10.48 41.44C10.48 48.8273 12.175 54.9365 15.7846 59.5521L18.9354 57.0879C16.0384 53.3835 14.48 48.2393 14.48 41.44H10.48ZM15.8022 59.5743C19.5797 64.2658 25.1568 66.48 32.16 66.48V62.48C26.0432 62.48 21.7536 60.5876 18.9178 57.0657L15.8022 59.5743ZM32.16 66.48C34.78 66.48 37.2794 66.257 39.6542 65.8047L38.9058 61.8753C36.8006 62.2763 34.5533 62.48 32.16 62.48V66.48ZM39.6542 65.8047C41.9602 65.3654 44.2139 64.8159 46.4147 64.1557L45.2653 60.3243C43.1995 60.9441 41.0798 61.4612 38.9058 61.8753L39.6542 65.8047ZM43.84 62.24V68.48H47.84V62.24H43.84ZM45.1378 66.6073C43.1302 67.3602 41.0446 67.9134 38.8786 68.266L39.5214 72.214C41.9421 71.8199 44.2832 71.1998 46.5422 70.3527L45.1378 66.6073ZM38.8712 68.2672C36.7723 68.617 34.1952 68.8 31.12 68.8V72.8C34.3381 72.8 37.1477 72.6096 39.5288 72.2128L38.8712 68.2672ZM31.12 68.8C25.578 68.8 21.1123 67.6567 17.6095 65.4975L15.5105 68.9025C19.7944 71.5433 25.0353 72.8 31.12 72.8V68.8ZM17.6095 65.4975C14.0796 63.3215 11.4065 60.228 9.58671 56.1457L5.93329 57.7743C8.06013 62.5454 11.2537 66.2785 15.5105 68.9025L17.6095 65.4975ZM9.59484 56.1642C7.80642 52.0409 6.88 47.1228 6.88 41.36H2.88C2.88 47.5438 3.87358 53.0258 5.92516 57.7558L9.59484 56.1642ZM6.88 41.36C6.88 35.8415 7.8757 31.0779 9.80613 27.019L6.19387 25.301C3.9643 29.9888 2.88 35.3585 2.88 41.36H6.88ZM9.80169 27.0283C11.7699 22.9442 14.6248 19.8037 18.3857 17.5569L16.3343 14.123C11.8819 16.7829 8.49674 20.5225 6.19831 25.2917L9.80169 27.0283ZM18.402 17.5471C22.1324 15.2701 26.7403 14.08 32.32 14.08V10.08C26.1664 10.08 20.8009 11.3966 16.318 14.1329L18.402 17.5471ZM32.32 14.08C38.0986 14.08 43.0342 15.1532 47.1856 17.2289L48.9744 13.6511C44.1658 11.2468 38.5948 10.08 32.32 10.08V14.08ZM46.2725 14.5838L43.3925 20.6638L47.0075 22.3762L49.8875 16.2962L46.2725 14.5838ZM46.0276 19.6993C44.1679 18.8539 42.1037 18.1026 39.8418 17.4405L38.7182 21.2795C40.8296 21.8974 42.7121 22.5861 44.3724 23.3407L46.0276 19.6993ZM39.8547 17.4443C37.5095 16.7408 34.9662 16.4 32.24 16.4V20.4C34.6338 20.4 36.7838 20.6992 38.7053 21.2757L39.8547 17.4443ZM74.3869 70V72H76.3869V70H74.3869ZM53.7469 70H51.7469V72H53.7469V70ZM53.7469 65.84L53.3056 63.8893L51.7469 64.2419V65.84H53.7469ZM60.4669 64.32L60.9081 66.2707L62.4669 65.9181V64.32H60.4669ZM60.4669 18.64H62.4669V17.0603L60.9301 16.6944L60.4669 18.64ZM53.7469 17.04H51.7469V18.6197L53.2836 18.9856L53.7469 17.04ZM53.7469 12.88V10.88H51.7469V12.88H53.7469ZM74.3869 12.88H76.3869V10.88H74.3869V12.88ZM74.3869 17.04L74.8501 18.9856L76.3869 18.6197V17.04H74.3869ZM67.6669 18.64L67.2036 16.6944L65.6669 17.0603V18.64H67.6669ZM67.6669 64.32H65.6669V65.9181L67.2256 66.2707L67.6669 64.32ZM74.3869 65.84H76.3869V64.2419L74.8281 63.8893L74.3869 65.84ZM74.3869 68H53.7469V72H74.3869V68ZM55.7469 70V65.84H51.7469V70H55.7469ZM54.1881 67.7907L60.9081 66.2707L60.0256 62.3693L53.3056 63.8893L54.1881 67.7907ZM62.4669 64.32V18.64H58.4669V64.32H62.4669ZM60.9301 16.6944L54.2101 15.0944L53.2836 18.9856L60.0036 20.5856L60.9301 16.6944ZM55.7469 17.04V12.88H51.7469V17.04H55.7469ZM53.7469 14.88H74.3869V10.88H53.7469V14.88ZM72.3869 12.88V17.04H76.3869V12.88H72.3869ZM73.9236 15.0944L67.2036 16.6944L68.1301 20.5856L74.8501 18.9856L73.9236 15.0944ZM65.6669 18.64V64.32H69.6669V18.64H65.6669ZM67.2256 66.2707L73.9456 67.7907L74.8281 63.8893L68.1081 62.3693L67.2256 66.2707ZM72.3869 65.84V70H76.3869V65.84H72.3869ZM103.496 70V72H105.496V70H103.496ZM96.2963 70H94.2963V72H96.2963V70ZM96.2963 19.2H98.2963V17.2H96.2963V19.2ZM78.4563 19.2H76.4563V21.2H78.4563V19.2ZM78.4563 12.88V10.88H76.4563V12.88H78.4563ZM121.256 12.88H123.256V10.88H121.256V12.88ZM121.256 19.2V21.2H123.256V19.2H121.256ZM103.496 19.2V17.2H101.496V19.2H103.496ZM103.496 68H96.2963V72H103.496V68ZM98.2963 70V19.2H94.2963V70H98.2963ZM96.2963 17.2H78.4563V21.2H96.2963V17.2ZM80.4563 19.2V12.88H76.4563V19.2H80.4563ZM78.4563 14.88H121.256V10.88H78.4563V14.88ZM119.256 12.88V19.2H123.256V12.88H119.256ZM121.256 17.2H103.496V21.2H121.256V17.2ZM101.496 19.2V70H105.496V19.2H101.496ZM144.749 40.96L142.98 41.8925L144.745 45.2404L146.517 41.8965L144.749 40.96ZM159.629 12.88V10.88H158.426L157.862 11.9435L159.629 12.88ZM167.389 12.88L169.146 13.8366L170.756 10.88H167.389V12.88ZM148.349 47.84L146.593 46.8834L146.349 47.3307V47.84H148.349ZM148.349 70V72H150.349V70H148.349ZM141.149 70H139.149V72H141.149V70ZM141.149 48.16H143.149V47.6548L142.909 47.2101L141.149 48.16ZM122.109 12.88V10.88H118.757L120.349 13.8299L122.109 12.88ZM129.949 12.88L131.719 11.9475L131.156 10.88H129.949V12.88ZM146.517 41.8965L161.397 13.8165L157.862 11.9435L142.982 40.0235L146.517 41.8965ZM159.629 14.88H167.389V10.88H159.629V14.88ZM165.633 11.9234L146.593 46.8834L150.106 48.7966L169.146 13.8366L165.633 11.9234ZM146.349 47.84V70H150.349V47.84H146.349ZM148.349 68H141.149V72H148.349V68ZM143.149 70V48.16H139.149V70H143.149ZM142.909 47.2101L123.869 11.9301L120.349 13.8299L139.389 49.1099L142.909 47.2101ZM122.109 14.88H129.949V10.88H122.109V14.88ZM128.18 13.8125L142.98 41.8925L146.519 40.0275L131.719 11.9475L128.18 13.8125ZM206.622 17.28L205.318 18.7968L205.318 18.7968L206.622 17.28ZM209.582 38.56L207.807 37.6384L207.803 37.645L207.8 37.6516L209.582 38.56ZM202.462 45.2L201.556 43.4168L201.545 43.4228L202.462 45.2ZM182.382 47.76V45.76H180.382V47.76H182.382ZM182.382 70V72H184.382V70H182.382ZM175.182 70H173.182V72H175.182V70ZM175.182 12.88V10.88H173.182V12.88H175.182ZM182.382 19.04V17.04H180.382V19.04H182.382ZM182.382 41.6H180.382V43.6H182.382V41.6ZM200.302 38.96L201.404 40.6292L201.404 40.6292L200.302 38.96ZM200.782 21.76L202.005 20.1774L202.005 20.1774L200.782 21.76ZM190.302 14.88C197.583 14.88 202.441 16.3238 205.318 18.7968L207.925 15.7632C203.976 12.3695 197.955 10.88 190.302 10.88V14.88ZM205.318 18.7968C208.207 21.2791 209.742 24.8108 209.742 29.68H213.742C213.742 23.8825 211.864 19.1476 207.925 15.7632L205.318 18.7968ZM209.742 29.68C209.742 32.5082 209.098 35.1518 207.807 37.6384L211.357 39.4816C212.946 36.4215 213.742 33.1451 213.742 29.68H209.742ZM207.8 37.6516C206.647 39.9139 204.629 41.8562 201.556 43.4168L203.368 46.9832C207.015 45.1305 209.744 42.6461 211.364 39.4684L207.8 37.6516ZM201.545 43.4228C198.633 44.9255 194.484 45.76 188.942 45.76V49.76C194.813 49.76 199.677 48.8878 203.379 46.9772L201.545 43.4228ZM188.942 45.76H182.382V49.76H188.942V45.76ZM180.382 47.76V70H184.382V47.76H180.382ZM182.382 68H175.182V72H182.382V68ZM177.182 70V12.88H173.182V70H177.182ZM175.182 14.88H190.302V10.88H175.182V14.88ZM189.662 17.04H182.382V21.04H189.662V17.04ZM180.382 19.04V41.6H184.382V19.04H180.382ZM182.382 43.6H188.142V39.6H182.382V43.6ZM188.142 43.6C193.729 43.6 198.253 42.7088 201.404 40.6292L199.2 37.2908C197.018 38.7312 193.435 39.6 188.142 39.6V43.6ZM201.404 40.6292C204.805 38.3845 206.302 34.6466 206.302 30H202.302C202.302 33.7801 201.132 36.0155 199.2 37.2908L201.404 40.6292ZM206.302 30C206.302 25.8656 204.959 22.4601 202.005 20.1774L199.559 23.3426C201.298 24.6866 202.302 26.7744 202.302 30H206.302ZM202.005 20.1774C199.135 17.9603 194.888 17.04 189.662 17.04V21.04C194.569 21.04 197.735 21.9331 199.559 23.3426L202.005 20.1774ZM270.419 56.88L268.601 56.0474L268.596 56.0574L270.419 56.88ZM261.619 67.12L260.553 65.4279L261.619 67.12ZM232.339 67.12L231.273 68.8121L231.284 68.8186L232.339 67.12ZM223.619 56.8L221.785 57.5958L223.619 56.8ZM223.619 25.92L225.451 26.724L225.451 26.724L223.619 25.92ZM232.339 15.68L231.283 13.9814L231.273 13.9879L232.339 15.68ZM261.619 15.68L260.553 17.3721L260.561 17.3773L260.57 17.3825L261.619 15.68ZM270.419 25.92L268.593 26.7343L268.599 26.7477L268.605 26.7609L270.419 25.92ZM232.899 58.4L231.285 59.5801L231.292 59.59L232.899 58.4ZM261.379 58.4L262.997 59.5764L263.004 59.5664L261.379 58.4ZM261.379 24.48L259.762 25.6564L259.769 25.6664L261.379 24.48ZM232.899 24.48L231.302 23.2767L231.299 23.28L232.899 24.48ZM271.459 41.36C271.459 47.0535 270.485 51.9322 268.601 56.0474L272.238 57.7126C274.407 52.9745 275.459 47.5065 275.459 41.36H271.459ZM268.596 56.0574C266.777 60.089 264.1 63.1931 260.553 65.4279L262.686 68.8121C266.926 66.1402 270.115 62.4176 272.242 57.7026L268.596 56.0574ZM260.553 65.4279C257.051 67.635 252.617 68.8 247.139 68.8V72.8C253.182 72.8 258.402 71.5117 262.686 68.8121L260.553 65.4279ZM247.139 68.8C241.492 68.8 236.949 67.6305 233.395 65.4214L231.284 68.8186C235.623 71.5162 240.947 72.8 247.139 72.8V68.8ZM233.406 65.4279C229.87 63.1999 227.222 60.0805 225.454 56.0042L221.785 57.5958C223.856 62.3728 227.022 66.1334 231.273 68.8121L233.406 65.4279ZM225.454 56.0042C223.665 51.8788 222.739 46.9867 222.739 41.28H218.739C218.739 47.4133 219.734 52.8679 221.785 57.5958L225.454 56.0042ZM222.739 41.28C222.739 35.6285 223.664 30.793 225.451 26.724L221.788 25.116C219.734 29.7937 218.739 35.1981 218.739 41.28H222.739ZM225.451 26.724C227.217 22.7018 229.864 19.604 233.406 17.3721L231.273 13.9879C227.028 16.6626 223.862 20.3916 221.788 25.116L225.451 26.724ZM233.395 17.3786C236.946 15.1712 241.514 14 247.219 14V10C240.978 10 235.626 11.2822 231.284 13.9814L233.395 17.3786ZM247.219 14C252.639 14 257.048 15.1632 260.553 17.3721L262.686 13.9879C258.404 11.2901 253.213 10 247.219 10V14ZM260.57 17.3825C264.1 19.5585 266.773 22.652 268.593 26.7343L272.246 25.1057C270.119 20.3346 266.926 16.6015 262.669 13.9775L260.57 17.3825ZM268.605 26.7609C270.485 30.8177 271.459 35.6657 271.459 41.36H275.459C275.459 35.2143 274.407 29.769 272.234 25.0791L268.605 26.7609ZM226.339 41.36C226.339 48.8201 227.912 54.9653 231.285 59.58L234.514 57.22C231.806 53.5147 230.339 48.2999 230.339 41.36H226.339ZM231.292 59.59C234.807 64.3383 240.237 66.56 247.139 66.56V62.56C241.135 62.56 237.072 60.675 234.507 57.21L231.292 59.59ZM247.139 66.56C254.087 66.56 259.53 64.3429 262.997 59.5763L259.762 57.2237C257.255 60.6705 253.205 62.56 247.139 62.56V66.56ZM263.004 59.5664C266.316 54.9535 267.859 48.8138 267.859 41.36H263.859C263.859 48.3062 262.416 53.5265 259.755 57.2336L263.004 59.5664ZM267.859 41.36C267.859 33.9104 266.318 27.8102 262.989 23.2936L259.769 25.6664C262.415 29.2564 263.859 34.4096 263.859 41.36H267.859ZM262.997 23.3037C259.533 18.5415 254.12 16.32 247.219 16.32V20.32C253.225 20.32 257.252 22.2052 259.762 25.6563L262.997 23.3037ZM247.219 16.32C240.315 16.32 234.868 18.5418 231.302 23.2767L234.497 25.6833C237.117 22.2048 241.217 20.32 247.219 20.32V16.32ZM231.299 23.28C227.911 27.7984 226.339 33.9041 226.339 41.36H230.339C230.339 34.4159 231.808 29.2683 234.499 25.68L231.299 23.28ZM317.559 17.28L316.256 18.7968L316.256 18.7968L317.559 17.28ZM320.519 38.56L318.744 37.6384L318.741 37.645L318.738 37.6516L320.519 38.56ZM313.399 45.2L312.494 43.4168L312.482 43.4228L313.399 45.2ZM293.319 47.76V45.76H291.319V47.76H293.319ZM293.319 70V72H295.319V70H293.319ZM286.119 70H284.119V72H286.119V70ZM286.119 12.88V10.88H284.119V12.88H286.119ZM293.319 19.04V17.04H291.319V19.04H293.319ZM293.319 41.6H291.319V43.6H293.319V41.6ZM311.239 38.96L312.341 40.6292L312.341 40.6292L311.239 38.96ZM311.719 21.76L312.942 20.1774L312.942 20.1774L311.719 21.76ZM301.239 14.88C308.52 14.88 313.378 16.3238 316.256 18.7968L318.863 15.7632C314.914 12.3695 308.892 10.88 301.239 10.88V14.88ZM316.256 18.7968C319.144 21.2791 320.679 24.8108 320.679 29.68H324.679C324.679 23.8825 322.801 19.1476 318.863 15.7632L316.256 18.7968ZM320.679 29.68C320.679 32.5082 320.035 35.1518 318.744 37.6384L322.294 39.4816C323.883 36.4215 324.679 33.1451 324.679 29.68H320.679ZM318.738 37.6516C317.584 39.9139 315.566 41.8562 312.494 43.4168L314.305 46.9832C317.953 45.1305 320.681 42.6461 322.301 39.4684L318.738 37.6516ZM312.482 43.4228C309.57 44.9255 305.422 45.76 299.879 45.76V49.76C305.75 49.76 310.615 48.8878 314.317 46.9772L312.482 43.4228ZM299.879 45.76H293.319V49.76H299.879V45.76ZM291.319 47.76V70H295.319V47.76H291.319ZM293.319 68H286.119V72H293.319V68ZM288.119 70V12.88H284.119V70H288.119ZM286.119 14.88H301.239V10.88H286.119V14.88ZM300.599 17.04H293.319V21.04H300.599V17.04ZM291.319 19.04V41.6H295.319V19.04H291.319ZM293.319 43.6H299.079V39.6H293.319V43.6ZM299.079 43.6C304.666 43.6 309.19 42.7088 312.341 40.6292L310.138 37.2908C307.955 38.7312 304.372 39.6 299.079 39.6V43.6ZM312.341 40.6292C315.742 38.3845 317.239 34.6466 317.239 30H313.239C313.239 33.7801 312.07 36.0155 310.138 37.2908L312.341 40.6292ZM317.239 30C317.239 25.8656 315.896 22.4601 312.942 20.1774L310.496 23.3426C312.236 24.6866 313.239 26.7744 313.239 30H317.239ZM312.942 20.1774C310.073 17.9603 305.825 17.04 300.599 17.04V21.04C305.507 21.04 308.672 21.9331 310.496 23.3426L312.942 20.1774Z" fill="#F5F5F5"/>
</svg>
