<svg width="239" height="127" viewBox="0 0 239 127" fill="none" xmlns="http://www.w3.org/2000/svg">
<path d="M42.9886 92.0978L42.2236 93.2368C43.2266 93.8148 45.0626 95.0388 45.8786 95.6508L46.6776 94.4948C45.9466 93.9508 43.9916 92.6588 42.9886 92.0978ZM40.4386 104.253L41.2206 105.63C42.8016 105.307 45.1476 104.508 46.8646 103.522C49.5676 101.924 51.9306 99.7308 53.3926 97.4358L52.5766 96.0418C51.1996 98.4388 48.9556 100.649 46.1336 102.264C44.4166 103.25 42.3086 103.93 40.4386 104.253ZM40.4216 95.9228L39.6736 97.0788C40.6936 97.6058 42.5466 98.7958 43.3796 99.4078L44.1616 98.2178C43.4136 97.6738 41.4246 96.4668 40.4216 95.9228ZM58.5266 92.5738V93.9848C58.9516 93.9508 59.5126 93.9338 60.0736 93.9338H66.9416C67.4346 93.9338 68.0296 93.9508 68.5226 93.9848V92.5738C68.0296 92.6418 67.4176 92.6758 66.9416 92.6758H60.0566C59.5126 92.6758 59.0026 92.6248 58.5266 92.5738ZM56.4866 96.8408V98.2518C56.9626 98.2178 57.4556 98.2178 57.9656 98.2178H63.0656C63.0146 99.8158 62.8276 101.244 62.0796 102.434C61.4166 103.505 60.1926 104.491 58.8666 105.035L60.1246 105.97C61.5696 105.222 62.8616 103.998 63.4736 102.859C64.1536 101.601 64.4256 100.054 64.4766 98.2178H69.1006C69.5086 98.2178 70.0526 98.2348 70.4266 98.2518V96.8408C70.0186 96.9088 69.4576 96.9258 69.1006 96.9258H57.9656C57.4386 96.9258 56.9626 96.8918 56.4866 96.8408ZM72.9329 100.768L73.5789 102.026C75.4999 101.431 77.4719 100.547 78.8999 99.7818V104.984C78.8999 105.511 78.8659 106.208 78.8319 106.48H80.3959C80.3279 106.208 80.3109 105.511 80.3109 104.984V98.9318C81.8579 97.9288 83.3029 96.6878 84.1529 95.7528L83.0989 94.7328C82.2319 95.8208 80.6679 97.2148 79.0529 98.2008C77.6759 99.0508 75.1769 100.241 72.9329 100.768ZM100.694 92.5908C100.694 91.9958 101.17 91.5028 101.765 91.5028C102.377 91.5028 102.87 91.9958 102.87 92.5908C102.87 93.2028 102.377 93.6788 101.765 93.6788C101.17 93.6788 100.694 93.2028 100.694 92.5908ZM99.9119 92.5908C99.9119 93.6278 100.745 94.4438 101.765 94.4438C102.802 94.4438 103.635 93.6278 103.635 92.5908C103.635 91.5708 102.802 90.7208 101.765 90.7208C100.745 90.7208 99.9119 91.5708 99.9119 92.5908ZM97.0729 92.0468H95.4749C95.5429 92.3018 95.5939 92.8798 95.5939 93.2538V95.0048H90.8679C90.3239 95.0048 89.8989 94.9708 89.4229 94.9198V96.3478C89.8819 96.3138 90.3579 96.2968 90.8679 96.2968H95.5939V103.964C95.5939 104.406 95.3899 104.61 94.9309 104.61C94.4889 104.61 93.7069 104.542 92.9759 104.406L93.0949 105.766C93.7749 105.834 94.7949 105.885 95.5089 105.885C96.5289 105.885 96.9709 105.426 96.9709 104.525V96.2968H101.476C101.884 96.2968 102.394 96.2968 102.853 96.3308V94.9198C102.428 94.9708 101.867 95.0048 101.459 95.0048H96.9709V93.2708C96.9709 92.8968 97.0219 92.2848 97.0729 92.0468ZM100.439 98.3538L99.2829 98.9658C100.184 100.037 101.459 102.162 102.122 103.488L103.38 102.791C102.7 101.567 101.34 99.4418 100.439 98.3538ZM93.3329 98.9148L92.1429 98.3368C91.4799 99.7138 90.0179 101.737 88.8959 102.791L90.0689 103.573C91.0209 102.536 92.6189 100.377 93.3329 98.9148ZM113.07 95.3618L111.829 95.7868C112.186 96.5518 112.968 98.7108 113.155 99.4758L114.413 99.0338C114.192 98.2858 113.359 96.0418 113.07 95.3618ZM119.224 96.3138L117.762 95.8548C117.507 98.0308 116.623 100.19 115.416 101.669C114.022 103.42 111.863 104.712 109.891 105.29L111.013 106.429C112.917 105.698 114.991 104.389 116.555 102.383C117.779 100.853 118.51 99.0338 118.969 97.1638C119.037 96.9428 119.105 96.6708 119.224 96.3138ZM109.126 96.2118L107.868 96.7048C108.208 97.2998 109.126 99.6458 109.381 100.53L110.673 100.054C110.35 99.1698 109.466 96.9428 109.126 96.2118ZM135.544 92.9478C135.544 92.3188 136.054 91.8088 136.666 91.8088C137.295 91.8088 137.805 92.3188 137.805 92.9478C137.805 93.5598 137.295 94.0698 136.666 94.0698C136.054 94.0698 135.544 93.5598 135.544 92.9478ZM134.762 92.9478C134.762 93.1348 134.796 93.3218 134.847 93.4918C134.643 93.5088 134.456 93.5088 134.303 93.5088H125.769C125.208 93.5088 124.545 93.4578 124.069 93.3898V94.9028C124.511 94.8858 125.089 94.8518 125.769 94.8518H134.456C134.235 96.4838 133.436 98.8468 132.229 100.394C130.818 102.213 128.897 103.658 125.599 104.474L126.755 105.749C129.883 104.78 131.906 103.199 133.453 101.21C134.796 99.4588 135.629 96.7218 135.986 94.9368C136.003 94.8688 136.02 94.8008 136.02 94.7498C136.224 94.8178 136.445 94.8518 136.666 94.8518C137.72 94.8518 138.587 94.0018 138.587 92.9478C138.587 91.8938 137.72 91.0268 136.666 91.0268C135.612 91.0268 134.762 91.8938 134.762 92.9478ZM154.295 99.2038C154.295 95.7528 151.762 92.9478 147.784 92.9478C143.636 92.9478 140.355 96.1778 140.355 99.8668C140.355 102.672 141.868 104.406 143.381 104.406C144.962 104.406 146.305 102.621 147.342 99.1188C147.818 97.5378 148.141 95.8038 148.362 94.2228C151.252 94.4608 152.901 96.5858 152.901 99.1528C152.901 102.094 150.759 103.709 148.583 104.202C148.192 104.287 147.665 104.372 147.121 104.423L147.92 105.681C151.949 105.154 154.295 102.774 154.295 99.2038ZM141.681 99.7478C141.681 97.4358 143.687 94.6478 146.951 94.2398C146.764 95.8038 146.424 97.4188 145.999 98.8298C145.132 101.703 144.231 102.842 143.432 102.842C142.667 102.842 141.681 101.89 141.681 99.7478ZM165.736 100.649H162.778V100.394V98.1158H165.736V100.649ZM169 98.1158V97.4698C169.748 98.0648 170.564 98.5748 171.431 98.9488C171.618 98.6258 172.026 98.1328 172.298 97.8948C171.142 97.4358 170.071 96.7558 169.119 95.9228C169.986 95.2938 171.006 94.4778 171.788 93.7298L170.836 93.0498C170.241 93.6958 169.255 94.5968 168.405 95.2428C168.014 94.8348 167.64 94.3928 167.3 93.9338C168.116 93.3388 169.051 92.5398 169.799 91.7918L168.847 91.1118C168.32 91.7068 167.504 92.5058 166.756 93.1348C166.331 92.4548 165.974 91.7408 165.685 90.9928L164.597 91.3158C165.447 93.5088 166.739 95.4638 168.388 96.9428H160.398C161.911 95.6678 163.203 94.0018 163.934 92.0128L163.101 91.6048L162.88 91.6558H158.035V92.7778H162.251C161.826 93.5768 161.282 94.3248 160.67 95.0218C160.126 94.5118 159.293 93.8488 158.613 93.3558L157.831 94.0188C158.528 94.5458 159.361 95.2598 159.871 95.8038C158.817 96.7728 157.593 97.5378 156.42 98.0138C156.658 98.2518 157.032 98.6938 157.202 98.9658C158.052 98.5748 158.919 98.0818 159.735 97.4698V98.1158H161.52V100.377V100.649H157.61V101.822H161.384C161.078 103.233 160.109 104.576 157.27 105.528C157.525 105.766 157.916 106.242 158.069 106.531C161.401 105.375 162.404 103.641 162.676 101.822H165.736V104.542C165.736 105.936 166.11 106.31 167.538 106.31H169.765C171.006 106.31 171.363 105.715 171.482 103.556C171.142 103.471 170.615 103.25 170.343 103.029C170.275 104.848 170.19 105.188 169.663 105.188H167.725C167.147 105.188 167.045 105.086 167.045 104.559V101.822H171.074V100.649H167.045V98.1158H169ZM177.262 98.2688H185.456V100.037H177.262V98.2688ZM177.262 95.4468H185.456V97.1978H177.262V95.4468ZM177.262 92.6588H185.456V94.3928H177.262V92.6588ZM184.589 105.12C183.858 105.12 183.722 105.035 183.722 104.542V101.159H186.731V91.5198H176.038V101.159H178.333C177.976 103.335 177.075 104.661 173.59 105.358C173.845 105.613 174.202 106.14 174.304 106.463C178.163 105.579 179.251 103.879 179.659 101.159H182.447V104.559C182.447 105.936 182.872 106.31 184.47 106.31H187.207C188.635 106.31 189.009 105.698 189.162 103.233C188.805 103.148 188.261 102.944 187.989 102.723C187.921 104.814 187.785 105.12 187.105 105.12H184.589Z" fill="#00E2AC"/>
<path d="M42.9886 92.0978L45.4293 87.734L41.4073 85.4844L38.8379 89.3101L42.9886 92.0978ZM42.2236 93.2368L38.0729 90.4491L35.0868 94.8949L39.7271 97.569L42.2236 93.2368ZM45.8786 95.6508L42.8786 99.6508L47.0365 102.769L49.9917 98.4937L45.8786 95.6508ZM46.6776 94.4948L50.7907 97.3377L53.5358 93.3661L49.6626 90.4837L46.6776 94.4948ZM40.4386 104.253L39.5875 99.3258L32.5781 100.537L36.0908 106.722L40.4386 104.253ZM41.2206 105.63L36.8728 108.099L38.6652 111.255L42.2214 110.529L41.2206 105.63ZM46.8646 103.522L49.3545 107.858L49.3819 107.842L49.4091 107.826L46.8646 103.522ZM53.3926 97.4358L57.6096 100.122L59.2507 97.546L57.7077 94.9099L53.3926 97.4358ZM52.5766 96.0418L56.8917 93.5159L52.5359 86.0749L48.2411 93.5512L52.5766 96.0418ZM46.1336 102.264L43.6501 97.9242L43.6436 97.9279L46.1336 102.264ZM40.4216 95.9228L42.8054 91.5277L38.7376 89.3214L36.2237 93.2066L40.4216 95.9228ZM39.6736 97.0788L35.4757 94.3626L32.4811 98.9907L37.3785 101.521L39.6736 97.0788ZM43.3796 99.4078L40.4192 103.437L44.6649 106.557L47.5581 102.154L43.3796 99.4078ZM44.1616 98.2178L48.3401 100.964L50.9588 96.9788L47.1024 94.1742L44.1616 98.2178ZM38.8379 89.3101L38.0729 90.4491L46.3743 96.0246L47.1393 94.8856L38.8379 89.3101ZM39.7271 97.569C40.5444 98.04 42.2127 99.1515 42.8786 99.6508L48.8786 91.6508C47.9124 90.9262 45.9088 89.5897 44.7201 88.9047L39.7271 97.569ZM49.9917 98.4937L50.7907 97.3377L42.5644 91.6519L41.7654 92.8079L49.9917 98.4937ZM49.6626 90.4837C48.7804 89.8271 46.644 88.4135 45.4293 87.734L40.5478 96.4616C41.3391 96.9042 43.1128 98.0746 43.6925 98.506L49.6626 90.4837ZM36.0908 106.722L36.8728 108.099L45.5684 103.161L44.7864 101.784L36.0908 106.722ZM42.2214 110.529C44.24 110.116 47.1043 109.15 49.3545 107.858L44.3746 99.1859C43.1909 99.8657 41.3631 100.497 40.2198 100.731L42.2214 110.529ZM49.4091 107.826C52.6726 105.897 55.6579 103.186 57.6096 100.122L49.1756 94.7494C48.2032 96.2758 46.4625 97.9511 44.32 99.2177L49.4091 107.826ZM57.7077 94.9099L56.8917 93.5159L48.2615 98.5677L49.0775 99.9617L57.7077 94.9099ZM48.2411 93.5512C47.3535 95.0963 45.7881 96.7007 43.6501 97.9242L48.6171 106.603C52.1231 104.597 55.0457 101.781 56.9121 98.5325L48.2411 93.5512ZM43.6436 97.9279C42.5269 98.5692 40.9967 99.0824 39.5875 99.3258L41.2896 109.18C43.6205 108.777 46.3062 107.93 48.6235 106.6L43.6436 97.9279ZM36.2237 93.2066L35.4757 94.3626L43.8714 99.7951L44.6194 98.6391L36.2237 93.2066ZM37.3785 101.521C38.1154 101.902 39.745 102.942 40.4192 103.437L46.34 95.3784C45.3481 94.6497 43.2718 93.31 41.9687 92.6367L37.3785 101.521ZM47.5581 102.154L48.3401 100.964L39.9831 95.4719L39.2011 96.6619L47.5581 102.154ZM47.1024 94.1742C46.1082 93.451 43.9091 92.1263 42.8054 91.5277L38.0378 100.318C38.94 100.807 40.719 101.897 41.2207 102.262L47.1024 94.1742ZM58.5266 92.5738L59.0592 87.6023L53.5266 87.0095V92.5738H58.5266ZM58.5266 93.9848H53.5266V99.4008L58.9253 98.9689L58.5266 93.9848ZM68.5226 93.9848L68.1786 98.973L73.5226 99.3415V93.9848H68.5226ZM68.5226 92.5738H73.5226V86.8369L67.8394 87.6207L68.5226 92.5738ZM56.4866 96.8408L57.0192 91.8693L51.4866 91.2765V96.8408H56.4866ZM56.4866 98.2518H51.4866V103.622L56.8428 103.239L56.4866 98.2518ZM63.0656 98.2178L68.063 98.3773L68.2277 93.2178H63.0656V98.2178ZM62.0796 102.434L57.8464 99.773L57.8373 99.7875L57.8283 99.8021L62.0796 102.434ZM58.8666 105.035L56.9688 100.409L48.7806 103.768L55.884 109.048L58.8666 105.035ZM60.1246 105.97L57.142 109.983L59.649 111.846L62.4231 110.41L60.1246 105.97ZM63.4736 102.859L59.075 100.481L59.0691 100.492L63.4736 102.859ZM64.4766 98.2178V93.2178H59.6135L59.4785 98.079L64.4766 98.2178ZM70.4266 98.2518L70.1995 103.247L75.4266 103.484V98.2518H70.4266ZM70.4266 96.8408H75.4266V90.9385L69.6046 91.9089L70.4266 96.8408ZM53.5266 92.5738V93.9848H63.5266V92.5738H53.5266ZM58.9253 98.9689C59.1716 98.9492 59.5896 98.9338 60.0736 98.9338V88.9338C59.4356 88.9338 58.7316 88.9525 58.1278 89.0008L58.9253 98.9689ZM60.0736 98.9338H66.9416V88.9338H60.0736V98.9338ZM66.9416 98.9338C67.3421 98.9338 67.8203 98.9483 68.1786 98.973L68.8666 88.9967C68.2389 88.9534 67.5271 88.9338 66.9416 88.9338V98.9338ZM73.5226 93.9848V92.5738H63.5226V93.9848H73.5226ZM67.8394 87.6207C67.6144 87.6518 67.2352 87.6758 66.9416 87.6758V97.6758C67.5999 97.6758 68.4448 97.6319 69.2058 97.5269L67.8394 87.6207ZM66.9416 87.6758H60.0566V97.6758H66.9416V87.6758ZM60.0566 87.6758C59.8051 87.6758 59.5297 87.6527 59.0592 87.6023L57.9939 97.5454C58.4755 97.597 59.22 97.6758 60.0566 97.6758V87.6758ZM51.4866 96.8408V98.2518H61.4866V96.8408H51.4866ZM56.8428 103.239C57.1094 103.22 57.4199 103.218 57.9656 103.218V93.2178C57.4913 93.2178 56.8158 93.2156 56.1303 93.2645L56.8428 103.239ZM57.9656 103.218H63.0656V93.2178H57.9656V103.218ZM58.0681 98.0583C58.0465 98.7367 58.0001 99.1654 57.9386 99.4614C57.8824 99.7319 57.8321 99.7957 57.8464 99.773L66.3128 105.095C67.8124 102.709 68.0073 100.124 68.063 98.3773L58.0681 98.0583ZM57.8283 99.8021C57.8446 99.7757 57.7793 99.8811 57.5783 100.044C57.386 100.199 57.1656 100.328 56.9688 100.409L60.7644 109.661C62.9107 108.78 65.0312 107.165 66.3309 105.066L57.8283 99.8021ZM55.884 109.048L57.142 109.983L63.1072 101.957L61.8492 101.022L55.884 109.048ZM62.4231 110.41C64.5926 109.287 66.7057 107.407 67.878 105.225L59.0691 100.492C59.0798 100.472 58.982 100.642 58.6984 100.907C58.4309 101.157 58.1179 101.378 57.826 101.529L62.4231 110.41ZM67.8721 105.236C69.0916 102.98 69.4144 100.526 69.4747 98.3567L59.4785 98.079C59.4368 99.5815 59.2156 100.221 59.075 100.481L67.8721 105.236ZM64.4766 103.218H69.1006V93.2178H64.4766V103.218ZM69.1006 103.218C69.4055 103.218 69.8678 103.232 70.1995 103.247L70.6536 93.257C70.2374 93.2381 69.6116 93.2178 69.1006 93.2178V103.218ZM75.4266 98.2518V96.8408H65.4266V98.2518H75.4266ZM69.6046 91.9089C69.6452 91.9021 69.6522 91.9025 69.6169 91.906C69.5852 91.909 69.5375 91.9127 69.4746 91.9161C69.3455 91.9231 69.2078 91.9258 69.1006 91.9258V101.926C69.5089 101.926 70.413 101.912 71.2486 101.773L69.6046 91.9089ZM69.1006 91.9258H57.9656V101.926H69.1006V91.9258ZM57.9656 91.9258C57.6627 91.9258 57.3711 91.907 57.0192 91.8693L55.9539 101.812C56.5541 101.877 57.2145 101.926 57.9656 101.926V91.9258ZM72.9329 100.768L71.7897 95.9003L65.5635 97.3625L68.4851 103.052L72.9329 100.768ZM73.5789 102.026L69.1311 104.31L71.0485 108.044L75.0582 106.802L73.5789 102.026ZM78.8999 99.7818H83.8999V91.431L76.5388 95.3744L78.8999 99.7818ZM78.8319 106.48L73.8705 105.86L73.168 111.48H78.8319V106.48ZM80.3959 106.48V111.48H86.7998L85.2466 105.267L80.3959 106.48ZM80.3109 98.9318L77.5908 94.7365L75.3109 96.2147V98.9318H80.3109ZM84.1529 95.7528L87.8526 99.1162L91.1126 95.5301L87.63 92.1598L84.1529 95.7528ZM83.0989 94.7328L86.576 91.1398L82.6197 87.3111L79.1886 91.6168L83.0989 94.7328ZM79.0529 98.2008L76.4475 93.9333L76.437 93.9397L76.4265 93.9462L79.0529 98.2008ZM68.4851 103.052L69.1311 104.31L78.0267 99.7418L77.3807 98.4838L68.4851 103.052ZM75.0582 106.802C77.3396 106.095 79.6077 105.075 81.261 104.189L76.5388 95.3744C75.3361 96.0187 73.6601 96.7663 72.0995 97.2497L75.0582 106.802ZM73.8999 99.7818V104.984H83.8999V99.7818H73.8999ZM73.8999 104.984C73.8999 105.153 73.894 105.38 73.884 105.595C73.8792 105.7 73.874 105.787 73.8695 105.85C73.8639 105.928 73.8628 105.921 73.8705 105.86L83.7933 107.1C83.8644 106.531 83.8999 105.6 83.8999 104.984H73.8999ZM78.8319 111.48H80.3959V101.48H78.8319V111.48ZM85.2466 105.267C85.2692 105.357 85.2846 105.432 85.2947 105.484C85.3049 105.538 85.312 105.581 85.3165 105.612C85.3253 105.67 85.3288 105.705 85.3292 105.709C85.3298 105.715 85.3264 105.68 85.3225 105.595C85.3188 105.516 85.3158 105.419 85.3138 105.309C85.3117 105.201 85.3109 105.09 85.3109 104.984H75.3109C75.3109 105.29 75.3156 105.68 75.3333 106.06C75.3437 106.283 75.3732 107.004 75.5452 107.693L85.2466 105.267ZM85.3109 104.984V98.9318H75.3109V104.984H85.3109ZM83.031 103.127C84.8937 101.919 86.6791 100.407 87.8526 99.1162L80.4532 92.3895C79.9267 92.9686 78.822 93.9382 77.5908 94.7365L83.031 103.127ZM87.63 92.1598L86.576 91.1398L79.6218 98.3259L80.6758 99.3459L87.63 92.1598ZM79.1886 91.6168C78.7227 92.2015 77.6166 93.2195 76.4475 93.9333L81.6583 102.468C83.7192 101.21 85.7411 99.4402 87.0092 97.8489L79.1886 91.6168ZM76.4265 93.9462C75.3908 94.5855 73.3907 95.5243 71.7897 95.9003L74.076 105.635C76.9631 104.957 79.961 103.516 81.6792 102.456L76.4265 93.9462ZM97.0729 92.0468L101.962 93.0945L103.258 87.0468H97.0729V92.0468ZM95.4749 92.0468V87.0468H88.9668L90.6437 93.3352L95.4749 92.0468ZM95.5939 95.0048V100.005H100.594V95.0048H95.5939ZM89.4229 94.9198L89.9556 89.9483L84.4229 89.3555V94.9198H89.4229ZM89.4229 96.3478H84.4229V101.732L89.7923 101.334L89.4229 96.3478ZM95.5939 96.2968H100.594V91.2968H95.5939V96.2968ZM92.9759 104.406L93.8904 99.4902L87.4214 98.2866L87.9949 104.842L92.9759 104.406ZM93.0949 105.766L88.1139 106.202L88.475 110.329L92.5974 110.741L93.0949 105.766ZM96.9709 96.2968V91.2968H91.9709V96.2968H96.9709ZM102.853 96.3308L102.484 101.317L107.853 101.715V96.3308H102.853ZM102.853 94.9198H107.853V89.284L102.257 89.9555L102.853 94.9198ZM96.9709 95.0048H91.9709V100.005H96.9709V95.0048ZM100.439 98.3538L104.29 95.1648L101.695 92.0314L98.0994 93.9349L100.439 98.3538ZM99.2829 98.9658L96.9434 94.5469L91.4694 97.4449L95.4568 102.185L99.2829 98.9658ZM102.122 103.488L97.6498 105.724L99.9825 110.389L104.545 107.861L102.122 103.488ZM103.38 102.791L105.803 107.164L110.182 104.738L107.751 100.363L103.38 102.791ZM93.3329 98.9148L97.8257 101.109L100.025 96.6065L95.5174 94.4173L93.3329 98.9148ZM92.1429 98.3368L94.3274 93.8393L89.8144 91.6473L87.6379 96.1678L92.1429 98.3368ZM88.8959 102.791L85.4725 99.1466L80.8829 103.458L86.1224 106.951L88.8959 102.791ZM90.0689 103.573L87.2954 107.733L90.8572 110.108L93.7522 106.954L90.0689 103.573ZM105.694 92.5908C105.694 94.6542 104.033 96.5028 101.765 96.5028V86.5028C98.3065 86.5028 95.6939 89.3374 95.6939 92.5908H105.694ZM101.765 96.5028C99.666 96.5028 97.8699 94.8075 97.8699 92.5908H107.87C107.87 89.1841 105.088 86.5028 101.765 86.5028V96.5028ZM97.8699 92.5908C97.8699 90.3406 99.7174 88.6788 101.765 88.6788V98.6788C105.036 98.6788 107.87 96.0651 107.87 92.5908H97.8699ZM101.765 88.6788C103.983 88.6788 105.694 90.4931 105.694 92.5908H95.6939C95.6939 95.9126 98.3571 98.6788 101.765 98.6788V88.6788ZM94.9119 92.5908C94.9119 96.4191 98.0134 99.4438 101.765 99.4438V89.4438C103.476 89.4438 104.912 90.8365 104.912 92.5908H94.9119ZM101.765 99.4438C105.503 99.4438 108.635 96.4487 108.635 92.5908H98.6349C98.6349 90.8069 100.1 89.4438 101.765 89.4438V99.4438ZM108.635 92.5908C108.635 88.839 105.593 85.7208 101.765 85.7208V95.7208C100.011 95.7208 98.6349 94.3027 98.6349 92.5908H108.635ZM101.765 85.7208C97.9244 85.7208 94.9119 88.8689 94.9119 92.5908H104.912C104.912 94.2728 103.565 95.7208 101.765 95.7208V85.7208ZM97.0729 87.0468H95.4749V97.0468H97.0729V87.0468ZM90.6437 93.3352C90.6281 93.2765 90.6165 93.2278 90.6085 93.1918C90.6003 93.1554 90.5943 93.1257 90.5901 93.1042C90.5821 93.0626 90.5782 93.0366 90.5772 93.0301C90.576 93.0223 90.5763 93.0236 90.5776 93.0344C90.5788 93.0447 90.5805 93.06 90.5824 93.0798C90.5863 93.1208 90.5896 93.1659 90.5918 93.2067C90.5928 93.2264 90.5934 93.2416 90.5937 93.2516C90.594 93.2621 90.5939 93.2627 90.5939 93.2538H100.594C100.594 92.7146 100.539 91.6324 100.306 90.7585L90.6437 93.3352ZM90.5939 93.2538V95.0048H100.594V93.2538H90.5939ZM95.5939 90.0048H90.8679V100.005H95.5939V90.0048ZM90.8679 90.0048C90.5633 90.0048 90.3287 89.9883 89.9556 89.9483L88.8902 99.8914C89.4691 99.9534 90.0844 100.005 90.8679 100.005V90.0048ZM84.4229 94.9198V96.3478H94.4229V94.9198H84.4229ZM89.7923 101.334C90.118 101.31 90.4703 101.297 90.8679 101.297V91.2968C90.2455 91.2968 89.6458 91.3176 89.0535 91.3615L89.7923 101.334ZM90.8679 101.297H95.5939V91.2968H90.8679V101.297ZM90.5939 96.2968V103.964H100.594V96.2968H90.5939ZM90.5939 103.964C90.5939 103.515 90.6904 102.102 91.9342 100.882C93.1561 99.6842 94.5363 99.6098 94.9309 99.6098V109.61C95.7845 109.61 97.4961 109.433 98.9349 108.023C100.395 106.591 100.594 104.854 100.594 103.964H90.5939ZM94.9309 99.6098C94.94 99.6098 94.9077 99.6099 94.8306 99.6054C94.7578 99.6012 94.6646 99.5941 94.5562 99.5833C94.3339 99.5613 94.0975 99.5287 93.8904 99.4902L92.0613 109.321C93.0456 109.505 94.1365 109.61 94.9309 109.61V99.6098ZM87.9949 104.842L88.1139 106.202L98.0759 105.33L97.9569 103.97L87.9949 104.842ZM92.5974 110.741C93.4451 110.826 94.6312 110.885 95.5089 110.885V100.885C94.9586 100.885 94.1046 100.842 93.5924 100.791L92.5974 110.741ZM95.5089 110.885C96.6598 110.885 98.5275 110.638 100.076 109.158C101.674 107.632 101.971 105.723 101.971 104.525H91.9709C91.9709 104.227 92.0471 102.999 93.1685 101.927C94.2413 100.903 95.378 100.885 95.5089 100.885V110.885ZM101.971 104.525V96.2968H91.9709V104.525H101.971ZM96.9709 101.297H101.476V91.2968H96.9709V101.297ZM101.476 101.297C101.919 101.297 102.241 101.299 102.484 101.317L103.222 91.3445C102.547 91.2944 101.848 91.2968 101.476 91.2968V101.297ZM107.853 96.3308V94.9198H97.8529V96.3308H107.853ZM102.257 89.9555C102.023 89.9836 101.661 90.0048 101.459 90.0048V100.005C102.073 100.005 102.833 99.9581 103.449 99.8842L102.257 89.9555ZM101.459 90.0048H96.9709V100.005H101.459V90.0048ZM101.971 95.0048V93.2708H91.9709V95.0048H101.971ZM101.971 93.2708C101.971 93.2793 101.971 93.2766 101.971 93.2615C101.972 93.2472 101.972 93.2266 101.974 93.2003C101.976 93.1464 101.98 93.0842 101.985 93.0231C101.991 92.9601 101.995 92.9172 101.998 92.8994C101.999 92.891 101.998 92.8998 101.994 92.9228C101.992 92.9349 101.989 92.9548 101.984 92.9811C101.98 93.0066 101.972 93.0455 101.962 93.0945L92.1839 90.9992C92.0309 91.7129 91.9709 92.7108 91.9709 93.2708H101.971ZM98.0994 93.9349L96.9434 94.5469L101.622 103.385L102.778 102.773L98.0994 93.9349ZM95.4568 102.185C96.0001 102.831 97.0713 104.567 97.6498 105.724L106.594 101.252C105.847 99.7568 104.368 97.2431 103.109 95.747L95.4568 102.185ZM104.545 107.861L105.803 107.164L100.957 98.4173L99.6987 99.1143L104.545 107.861ZM107.751 100.363C106.99 98.9935 105.461 96.5785 104.29 95.1648L96.5879 101.543C97.2192 102.305 98.4097 104.14 99.0091 105.219L107.751 100.363ZM95.5174 94.4173L94.3274 93.8393L89.9584 102.834L91.1484 103.412L95.5174 94.4173ZM87.6379 96.1678C87.2296 97.0157 86.1266 98.5322 85.4725 99.1466L92.3193 106.435C93.9092 104.941 95.7301 102.412 96.6479 100.506L87.6379 96.1678ZM86.1224 106.951L87.2954 107.733L92.8424 99.4126L91.6694 98.6306L86.1224 106.951ZM93.7522 106.954C94.9269 105.675 96.8427 103.122 97.8257 101.109L88.8401 96.7207C88.395 97.6319 87.1148 99.3972 86.3856 100.191L93.7522 106.954ZM113.07 95.3618L117.672 93.4061L115.852 89.1241L111.45 90.6315L113.07 95.3618ZM111.829 95.7868L110.209 91.0565L104.945 92.8592L107.298 97.9013L111.829 95.7868ZM113.155 99.4758L108.298 100.663L109.608 106.022L114.812 104.193L113.155 99.4758ZM114.413 99.0338L116.07 103.751L120.555 102.176L119.208 97.6171L114.413 99.0338ZM119.224 96.3138L123.967 97.895L125.576 93.0676L120.722 91.5434L119.224 96.3138ZM117.762 95.8548L119.26 91.0844L113.499 89.2758L112.796 95.2729L117.762 95.8548ZM115.416 101.669L111.542 98.5075L111.523 98.531L111.504 98.5546L115.416 101.669ZM109.891 105.29L108.485 100.492L100.462 102.843L106.329 108.799L109.891 105.29ZM111.013 106.429L107.451 109.938L109.748 112.27L112.805 111.097L111.013 106.429ZM116.555 102.383L112.651 99.2594L112.631 99.2838L112.612 99.3085L116.555 102.383ZM118.969 97.1638L114.19 95.6934L114.147 95.8316L114.113 95.9719L118.969 97.1638ZM109.126 96.2118L113.659 94.1032L111.677 89.8417L107.302 91.5566L109.126 96.2118ZM107.868 96.7048L106.044 92.0496L100.656 94.1611L103.527 99.1855L107.868 96.7048ZM109.381 100.53L104.577 101.916L106.066 107.08L111.109 105.222L109.381 100.53ZM110.673 100.054L112.401 104.746L117.081 103.022L115.369 98.3379L110.673 100.054ZM111.45 90.6315L110.209 91.0565L113.449 100.517L114.69 100.092L111.45 90.6315ZM107.298 97.9013C107.373 98.063 107.594 98.6108 107.852 99.3269C107.97 99.6557 108.08 99.9727 108.166 100.237C108.263 100.532 108.298 100.663 108.298 100.663L118.012 98.2886C117.735 97.1559 116.833 94.6859 116.36 93.6724L107.298 97.9013ZM114.812 104.193L116.07 103.751L112.755 94.3165L111.497 94.7585L114.812 104.193ZM119.208 97.6171C118.919 96.6389 118.013 94.2102 117.672 93.4061L108.468 97.3175C108.56 97.5328 108.803 98.161 109.074 98.8984C109.353 99.656 109.56 100.256 109.618 100.451L119.208 97.6171ZM120.722 91.5434L119.26 91.0844L116.264 100.625L117.726 101.084L120.722 91.5434ZM112.796 95.2729C112.639 96.6135 112.08 97.8486 111.542 98.5075L119.29 104.83C121.166 102.531 122.375 99.4482 122.728 96.4368L112.796 95.2729ZM111.504 98.5546C110.848 99.3789 109.627 100.157 108.485 100.492L111.297 110.088C114.099 109.267 117.196 107.461 119.328 104.783L111.504 98.5546ZM106.329 108.799L107.451 109.938L114.575 102.92L113.453 101.781L106.329 108.799ZM112.805 111.097C115.39 110.104 118.275 108.309 120.498 105.457L112.612 99.3085C111.707 100.469 110.443 101.292 109.221 101.761L112.805 111.097ZM120.459 105.506C122.283 103.226 123.259 100.662 123.825 98.3557L114.113 95.9719C113.761 97.4062 113.275 98.4792 112.651 99.2594L120.459 105.506ZM123.748 98.6343C123.779 98.5313 123.807 98.4353 123.828 98.3643C123.855 98.2684 123.86 98.2486 123.882 98.1731C123.913 98.0661 123.938 97.9818 123.967 97.895L114.48 94.7327C114.39 95.0029 114.322 95.2331 114.272 95.4066C114.21 95.6243 114.206 95.6402 114.19 95.6934L123.748 98.6343ZM107.302 91.5566L106.044 92.0496L109.692 101.36L110.95 100.867L107.302 91.5566ZM103.527 99.1855C103.462 99.0729 103.489 99.1064 103.626 99.421C103.735 99.6725 103.867 99.994 104.004 100.342C104.301 101.094 104.519 101.716 104.577 101.916L114.185 99.144C113.988 98.4598 113.619 97.4663 113.308 96.6763C113.032 95.9754 112.59 94.8908 112.209 94.2241L103.527 99.1855ZM111.109 105.222L112.401 104.746L108.944 95.3621L107.652 95.8381L111.109 105.222ZM115.369 98.3379C115.028 97.4053 114.088 95.0244 113.659 94.1032L104.592 98.3205C104.844 98.8613 105.671 100.934 105.977 101.77L115.369 98.3379ZM134.847 93.4918L135.262 98.4746L141.408 97.9624L139.636 92.0551L134.847 93.4918ZM124.069 93.3898L124.776 88.4401L119.069 87.6248V93.3898H124.069ZM124.069 94.9028H119.069V100.099L124.261 99.8991L124.069 94.9028ZM134.456 94.8518L139.411 95.5228L140.179 89.8518H134.456V94.8518ZM132.229 100.394L128.287 97.3181L128.278 97.3293L132.229 100.394ZM125.599 104.474L124.398 99.6202L116.272 101.631L121.895 107.832L125.599 104.474ZM126.755 105.749L123.051 109.107L125.191 111.468L128.234 110.525L126.755 105.749ZM133.453 101.21L137.4 104.28L137.41 104.266L137.42 104.253L133.453 101.21ZM135.986 94.9368L131.135 93.7242L131.106 93.8396L131.083 93.9563L135.986 94.9368ZM136.02 94.7498L137.601 90.0064L131.02 87.8127V94.7498H136.02ZM140.544 92.9478C140.544 95.0313 138.864 96.8088 136.666 96.8088V86.8088C133.244 86.8088 130.544 89.6064 130.544 92.9478H140.544ZM136.666 96.8088C134.533 96.8088 132.805 95.0803 132.805 92.9478H142.805C142.805 89.5574 140.056 86.8088 136.666 86.8088V96.8088ZM132.805 92.9478C132.805 90.7497 134.582 89.0698 136.666 89.0698V99.0698C140.007 99.0698 142.805 96.37 142.805 92.9478H132.805ZM136.666 89.0698C138.815 89.0698 140.544 90.7984 140.544 92.9478H130.544C130.544 96.3213 133.292 99.0698 136.666 99.0698V89.0698ZM129.762 92.9478C129.762 93.7213 129.899 94.3988 130.058 94.9286L139.636 92.0551C139.693 92.2448 139.762 92.5484 139.762 92.9478H129.762ZM134.432 88.5091C134.454 88.5072 134.46 88.5076 134.44 88.5081C134.43 88.5083 134.415 88.5085 134.392 88.5087C134.368 88.5088 134.343 88.5088 134.303 88.5088V98.5088C134.445 98.5088 134.825 98.511 135.262 98.4746L134.432 88.5091ZM134.303 88.5088H125.769V98.5088H134.303V88.5088ZM125.769 88.5088C125.45 88.5088 125.024 88.4755 124.776 88.4401L123.362 98.3396C124.066 98.4402 124.966 98.5088 125.769 98.5088V88.5088ZM119.069 93.3898V94.9028H129.069V93.3898H119.069ZM124.261 99.8991C124.816 99.8778 125.217 99.8518 125.769 99.8518V89.8518C124.961 89.8518 124.206 89.8939 123.877 89.9065L124.261 99.8991ZM125.769 99.8518H134.456V89.8518H125.769V99.8518ZM129.501 94.1809C129.448 94.5709 129.3 95.195 129.043 95.8672C128.78 96.5524 128.495 97.051 128.287 97.3181L136.171 103.47C138.054 101.056 139.103 97.7924 139.411 95.5228L129.501 94.1809ZM128.278 97.3293C127.57 98.2421 126.626 99.0689 124.398 99.6202L126.8 109.327C131.168 108.247 134.066 106.184 136.18 103.458L128.278 97.3293ZM121.895 107.832L123.051 109.107L130.459 102.39L129.303 101.115L121.895 107.832ZM128.234 110.525C132.385 109.239 135.254 107.038 137.4 104.28L129.506 98.1401C128.558 99.3593 127.381 100.321 125.275 100.973L128.234 110.525ZM137.42 104.253C139.471 101.579 140.487 97.9269 140.889 95.9174L131.083 93.9563C130.95 94.6231 130.721 95.4925 130.405 96.3363C130.076 97.2183 129.74 97.8353 129.485 98.1669L137.42 104.253ZM140.837 96.1495C140.839 96.1412 140.878 95.9876 140.912 95.8176C140.941 95.6719 141.02 95.2651 141.02 94.7498H131.02C131.02 94.4954 131.04 94.2903 131.057 94.1597C131.074 94.025 131.094 93.9192 131.106 93.8564C131.128 93.75 131.15 93.6644 131.135 93.7242L140.837 96.1495ZM134.439 99.4933C135.186 99.7423 135.944 99.8518 136.666 99.8518V89.8518C136.946 89.8518 137.262 89.8934 137.601 90.0064L134.439 99.4933ZM136.666 99.8518C140.423 99.8518 143.587 96.8209 143.587 92.9478H133.587C133.587 91.1828 135.016 89.8518 136.666 89.8518V99.8518ZM143.587 92.9478C143.587 89.1324 140.481 86.0268 136.666 86.0268V96.0268C134.958 96.0268 133.587 94.6553 133.587 92.9478H143.587ZM136.666 86.0268C132.793 86.0268 129.762 89.1904 129.762 92.9478H139.762C139.762 94.5972 138.431 96.0268 136.666 96.0268V86.0268ZM147.342 99.1188L142.554 97.6774L142.551 97.6883L142.548 97.6992L147.342 99.1188ZM148.362 94.2228L148.772 89.2397L144.064 88.852L143.41 93.5306L148.362 94.2228ZM148.583 104.202L149.645 109.088L149.666 109.083L149.688 109.078L148.583 104.202ZM147.121 104.423L146.654 99.4447L138.52 100.207L142.9 107.104L147.121 104.423ZM147.92 105.681L143.699 108.362L145.408 111.052L148.568 110.639L147.92 105.681ZM146.951 94.2398L151.916 94.8334L152.675 88.4855L146.331 89.2784L146.951 94.2398ZM145.999 98.8298L150.786 100.274L150.786 100.272L145.999 98.8298ZM159.295 99.2038C159.295 93.0003 154.532 87.9478 147.784 87.9478V97.9478C148.553 97.9478 148.873 98.1947 148.992 98.3139C149.13 98.452 149.295 98.7197 149.295 99.2038H159.295ZM147.784 87.9478C141.131 87.9478 135.355 93.1663 135.355 99.8668H145.355C145.355 99.1893 146.14 97.9478 147.784 97.9478V87.9478ZM135.355 99.8668C135.355 102.144 135.969 104.349 137.25 106.119C138.504 107.852 140.632 109.406 143.381 109.406V99.4058C144.617 99.4058 145.232 100.092 145.351 100.257C145.497 100.459 145.355 100.394 145.355 99.8668H135.355ZM143.381 109.406C146.316 109.406 148.363 107.679 149.565 106.076C150.74 104.509 151.543 102.543 152.136 100.538L142.548 97.6992C142.337 98.4114 142.132 98.9615 141.947 99.3733C141.759 99.7924 141.62 100.003 141.565 100.076C141.508 100.152 141.607 99.9926 141.919 99.8024C142.271 99.5881 142.782 99.4058 143.381 99.4058V109.406ZM152.13 100.56C152.707 98.6433 153.073 96.6342 153.314 94.915L143.41 93.5306C143.208 94.9735 142.929 96.4323 142.554 97.6774L152.13 100.56ZM147.952 99.206C148.028 99.2123 148.075 99.2227 148.097 99.2285C148.118 99.2341 148.119 99.2363 148.104 99.2291C148.089 99.2219 148.065 99.2084 148.037 99.1866C148.008 99.1649 147.981 99.1394 147.956 99.1115C147.932 99.0838 147.914 99.058 147.902 99.0372C147.89 99.0167 147.886 99.0041 147.885 99.0025C147.884 98.999 147.901 99.0457 147.901 99.1528H157.901C157.901 96.7993 157.137 94.4135 155.474 92.5175C153.781 90.5868 151.409 89.4568 148.772 89.2397L147.952 99.206ZM147.901 99.1528C147.901 99.2686 147.882 99.2737 147.906 99.2163C147.928 99.162 147.958 99.1252 147.968 99.1152C147.972 99.1112 147.939 99.1452 147.847 99.1937C147.754 99.2429 147.627 99.2917 147.478 99.3254L149.688 109.078C153.297 108.26 157.901 105.197 157.901 99.1528H147.901ZM147.521 99.316C147.333 99.3567 147.006 99.4117 146.654 99.4447L147.588 109.401C148.324 109.332 149.05 109.217 149.645 109.088L147.521 99.316ZM142.9 107.104L143.699 108.362L152.141 103L151.342 101.742L142.9 107.104ZM148.568 110.639C151.395 110.269 154.123 109.181 156.181 107.092C158.294 104.946 159.295 102.149 159.295 99.2038H149.295C149.295 99.8289 149.123 100.007 149.055 100.075C148.933 100.2 148.474 100.566 147.271 100.723L148.568 110.639ZM146.681 99.7478C146.681 99.8819 146.655 99.9076 146.683 99.8391C146.708 99.776 146.761 99.6789 146.851 99.5767C147.021 99.3833 147.252 99.2412 147.571 99.2012L146.331 89.2784C140.536 90.0028 136.681 94.943 136.681 99.7478H146.681ZM141.986 93.6462C141.833 94.9261 141.552 96.2571 141.211 97.3878L150.786 100.272C151.296 98.5806 151.695 96.6815 151.916 94.8334L141.986 93.6462ZM141.212 97.3853C141.036 97.9682 140.878 98.3967 140.749 98.6995C140.615 99.0109 140.538 99.1278 140.542 99.1208C140.548 99.1129 140.589 99.0516 140.674 98.9586C140.758 98.8663 140.905 98.7208 141.124 98.5632C141.58 98.2344 142.375 97.8418 143.432 97.8418V107.842C146.385 107.842 148.117 105.775 148.837 104.706C149.675 103.461 150.291 101.914 150.786 100.274L141.212 97.3853ZM143.432 97.8418C145.152 97.8418 146.102 98.8396 146.411 99.2965C146.761 99.8143 146.681 100.087 146.681 99.7478H136.681C136.681 101.551 137.094 103.37 138.128 104.9C139.121 106.368 140.947 107.842 143.432 107.842V97.8418ZM165.736 100.649V105.649H170.736V100.649H165.736ZM162.778 100.649H157.778V105.649H162.778V100.649ZM162.778 98.1158V93.1158H157.778V98.1158H162.778ZM165.736 98.1158H170.736V93.1158H165.736V98.1158ZM169 98.1158V103.116H174V98.1158H169ZM169 97.4698L172.113 93.5568L164 87.1036V97.4698H169ZM171.431 98.9488L169.45 103.54L173.531 105.3L175.758 101.454L171.431 98.9488ZM172.298 97.8948L175.59 101.658L181.75 96.2681L174.143 93.2478L172.298 97.8948ZM169.119 95.9228L166.183 91.8757L161.108 95.5573L165.826 99.6857L169.119 95.9228ZM171.788 93.7298L175.244 97.343L179.607 93.1701L174.694 89.6612L171.788 93.7298ZM170.836 93.0498L173.742 88.9812L170.149 86.4149L167.158 89.6625L170.836 93.0498ZM168.405 95.2428L164.795 98.7024L167.88 101.922L171.43 99.2236L168.405 95.2428ZM167.3 93.9338L164.354 89.8938L160.284 92.8619L163.282 96.91L167.3 93.9338ZM169.799 91.7918L173.334 95.3274L177.508 91.1538L172.705 87.7232L169.799 91.7918ZM168.847 91.1118L171.753 87.0432L168.089 84.4262L165.104 87.7967L168.847 91.1118ZM166.756 93.1348L162.516 95.7848L165.567 100.667L169.974 96.9617L166.756 93.1348ZM165.685 90.9928L170.349 89.1908L168.686 84.8863L164.262 86.1996L165.685 90.9928ZM164.597 91.3158L163.174 86.5226L157.975 88.0661L159.935 93.1228L164.597 91.3158ZM168.388 96.9428V101.943H181.451L171.726 93.2207L168.388 96.9428ZM160.398 96.9428L157.176 93.1194L146.705 101.943H160.398V96.9428ZM163.934 92.0128L168.627 93.7376L170.182 89.5057L166.133 87.5225L163.934 92.0128ZM163.101 91.6048L165.3 87.1145L163.706 86.3338L161.977 86.7329L163.101 91.6048ZM162.88 91.6558V96.6558H163.449L164.004 96.5278L162.88 91.6558ZM158.035 91.6558V86.6558H153.035V91.6558H158.035ZM158.035 92.7778H153.035V97.7778H158.035V92.7778ZM162.251 92.7778L166.665 95.1259L170.574 87.7778H162.251V92.7778ZM160.67 95.0218L157.25 98.6695L161.019 102.203L164.427 98.3208L160.67 95.0218ZM158.613 93.3558L161.548 89.3078L158.372 87.0052L155.379 89.5421L158.613 93.3558ZM157.831 94.0188L154.597 90.2051L149.836 94.2421L154.815 98.0071L157.831 94.0188ZM159.871 95.8038L163.255 99.4847L166.972 96.0675L163.519 92.3841L159.871 95.8038ZM156.42 98.0138L154.54 93.3808L147.552 96.2166L152.884 101.549L156.42 98.0138ZM157.202 98.9658L152.962 101.616L155.294 105.347L159.291 103.508L157.202 98.9658ZM159.735 97.4698H164.735V87.4698L156.735 93.4698L159.735 97.4698ZM159.735 98.1158H154.735V103.116H159.735V98.1158ZM161.52 98.1158H166.52V93.1158H161.52V98.1158ZM161.52 100.649V105.649H166.52V100.649H161.52ZM157.61 100.649V95.6488H152.61V100.649H157.61ZM157.61 101.822H152.61V106.822H157.61V101.822ZM161.384 101.822L166.27 102.882L167.584 96.8218H161.384V101.822ZM157.27 105.528L155.68 100.787L147.722 103.456L153.858 109.183L157.27 105.528ZM158.069 106.531L153.65 108.87L155.656 112.66L159.708 111.255L158.069 106.531ZM162.676 101.822V96.8218H158.368L157.731 101.082L162.676 101.822ZM165.736 101.822H170.736V96.8218H165.736V101.822ZM171.482 103.556L176.474 103.831L176.702 99.7069L172.695 98.7051L171.482 103.556ZM170.343 103.029L173.496 99.1483L165.721 92.8309L165.346 102.842L170.343 103.029ZM167.045 101.822V96.8218H162.045V101.822H167.045ZM171.074 101.822V106.822H176.074V101.822H171.074ZM171.074 100.649H176.074V95.6488H171.074V100.649ZM167.045 100.649H162.045V105.649H167.045V100.649ZM167.045 98.1158V93.1158H162.045V98.1158H167.045ZM165.736 95.6488H162.778V105.649H165.736V95.6488ZM167.778 100.649V100.394H157.778V100.649H167.778ZM167.778 100.394V98.1158H157.778V100.394H167.778ZM162.778 103.116H165.736V93.1158H162.778V103.116ZM160.736 98.1158V100.649H170.736V98.1158H160.736ZM174 98.1158V97.4698H164V98.1158H174ZM165.887 101.383C166.926 102.209 168.118 102.965 169.45 103.54L173.411 94.3578C173.009 94.1844 172.569 93.9202 172.113 93.5568L165.887 101.383ZM175.758 101.454C175.724 101.513 175.698 101.554 175.685 101.573C175.671 101.594 175.663 101.606 175.662 101.607C175.661 101.607 175.672 101.593 175.691 101.57C175.71 101.547 175.722 101.534 175.722 101.534C175.721 101.535 175.712 101.545 175.694 101.562C175.677 101.579 175.642 101.612 175.59 101.658L169.005 94.132C168.327 94.7257 167.568 95.6423 167.104 96.4437L175.758 101.454ZM174.143 93.2478C173.574 93.0219 172.984 92.6613 172.411 92.16L165.826 99.6857C167.157 100.85 168.709 101.85 170.453 102.542L174.143 93.2478ZM172.055 99.9699C173.039 99.2557 174.249 98.2947 175.244 97.343L168.332 90.1166C167.763 90.661 166.932 91.332 166.183 91.8757L172.055 99.9699ZM174.694 89.6612L173.742 88.9812L167.93 97.1185L168.882 97.7985L174.694 89.6612ZM167.158 89.6625C166.773 90.0805 166.008 90.7846 165.379 91.262L171.43 99.2236C172.502 98.409 173.709 97.3112 174.514 96.4372L167.158 89.6625ZM172.015 91.7833C171.767 91.525 171.53 91.2442 171.318 90.9577L163.282 96.91C163.75 97.5415 164.26 98.1447 164.795 98.7024L172.015 91.7833ZM170.246 97.9739C171.274 97.2243 172.406 96.2562 173.334 95.3274L166.263 88.2563C165.696 88.8235 164.958 89.4534 164.354 89.8938L170.246 97.9739ZM172.705 87.7232L171.753 87.0432L165.941 95.1805L166.893 95.8605L172.705 87.7232ZM165.104 87.7967C164.748 88.1986 164.109 88.8278 163.538 89.308L169.974 96.9617C170.899 96.1839 171.892 95.215 172.59 94.427L165.104 87.7967ZM170.996 90.4848C170.739 90.0734 170.524 89.6434 170.349 89.1908L161.021 92.7948C161.424 93.8383 161.923 94.8362 162.516 95.7848L170.996 90.4848ZM164.262 86.1996L163.174 86.5226L166.02 96.1091L167.108 95.7861L164.262 86.1996ZM159.935 93.1228C161.033 95.9564 162.745 98.5978 165.049 100.665L171.726 93.2207C170.733 92.3298 169.861 91.0613 169.259 89.5088L159.935 93.1228ZM168.388 91.9428H160.398V101.943H168.388V91.9428ZM163.62 100.766C165.685 99.0259 167.549 96.6695 168.627 93.7376L159.241 90.288C158.856 91.3341 158.137 92.3097 157.176 93.1194L163.62 100.766ZM166.133 87.5225L165.3 87.1145L160.902 96.0952L161.735 96.5032L166.133 87.5225ZM161.977 86.7329L161.756 86.7839L164.004 96.5278L164.225 96.4768L161.977 86.7329ZM162.88 86.6558H158.035V96.6558H162.88V86.6558ZM153.035 91.6558V92.7778H163.035V91.6558H153.035ZM158.035 97.7778H162.251V87.7778H158.035V97.7778ZM157.837 90.4298C157.631 90.8155 157.33 91.2479 156.913 91.7228L164.427 98.3208C165.234 97.4017 166.02 96.3382 166.665 95.1259L157.837 90.4298ZM164.09 91.3742C163.34 90.6714 162.327 89.8728 161.548 89.3078L155.678 97.4039C156.259 97.8249 156.912 98.3523 157.25 98.6695L164.09 91.3742ZM155.379 89.5421L154.597 90.2051L161.064 97.8326L161.846 97.1696L155.379 89.5421ZM154.815 98.0071C155.383 98.4365 155.976 98.9599 156.223 99.2235L163.519 92.3841C162.746 91.5597 161.673 90.6551 160.846 90.0305L154.815 98.0071ZM156.487 92.123C155.862 92.6977 155.144 93.1354 154.54 93.3808L158.3 102.647C160.041 101.94 161.772 100.848 163.255 99.4847L156.487 92.123ZM152.884 101.549C152.873 101.538 152.87 101.535 152.875 101.54C152.88 101.545 152.888 101.554 152.901 101.568C152.927 101.597 152.957 101.632 152.988 101.669C153.002 101.686 153.015 101.702 153.025 101.715C153.036 101.729 153.042 101.737 153.045 101.74C153.047 101.743 153.042 101.737 153.031 101.721C153.02 101.706 152.996 101.67 152.962 101.616L161.442 96.3158C161.005 95.6176 160.356 94.8788 159.955 94.4783L152.884 101.549ZM159.291 103.508C160.413 102.993 161.594 102.325 162.735 101.47L156.735 93.4698C156.244 93.8383 155.691 94.1572 155.112 94.4234L159.291 103.508ZM154.735 97.4698V98.1158H164.735V97.4698H154.735ZM159.735 103.116H161.52V93.1158H159.735V103.116ZM156.52 98.1158V100.377H166.52V98.1158H156.52ZM156.52 100.377V100.649H166.52V100.377H156.52ZM161.52 95.6488H157.61V105.649H161.52V95.6488ZM152.61 100.649V101.822H162.61V100.649H152.61ZM157.61 106.822H161.384V96.8218H157.61V106.822ZM156.497 100.762C156.503 100.736 156.526 100.649 156.585 100.537C156.646 100.42 156.714 100.339 156.753 100.3C156.82 100.233 156.617 100.473 155.68 100.787L158.86 110.268C160.762 109.63 162.463 108.723 163.8 107.394C165.204 106 165.939 104.409 166.27 102.882L156.497 100.762ZM153.858 109.183C153.792 109.122 153.765 109.09 153.777 109.103C153.783 109.11 153.797 109.126 153.812 109.145C153.829 109.165 153.83 109.168 153.816 109.149C153.809 109.138 153.791 109.113 153.767 109.073C153.743 109.037 153.701 108.967 153.65 108.87L162.488 104.191C162.004 103.277 161.215 102.371 160.681 101.873L153.858 109.183ZM159.708 111.255C161.944 110.479 163.863 109.348 165.291 107.708C166.759 106.022 167.379 104.176 167.621 102.561L157.731 101.082C157.712 101.208 157.695 101.239 157.704 101.217C157.717 101.186 157.738 101.154 157.749 101.142C157.775 101.112 157.526 101.427 156.43 101.807L159.708 111.255ZM162.676 106.822H165.736V96.8218H162.676V106.822ZM160.736 101.822V104.542H170.736V101.822H160.736ZM160.736 104.542C160.736 105.273 160.725 107.672 162.594 109.512C164.435 111.324 166.808 111.31 167.538 111.31V101.31C167.346 101.31 167.505 101.292 167.825 101.369C168.197 101.458 168.923 101.71 169.609 102.385C170.3 103.066 170.57 103.801 170.669 104.201C170.754 104.542 170.736 104.721 170.736 104.542H160.736ZM167.538 111.31H169.765V101.31H167.538V111.31ZM169.765 111.31C170.419 111.31 171.427 111.241 172.502 110.782C173.702 110.27 174.648 109.419 175.295 108.375C176.314 106.73 176.421 104.795 176.474 103.831L166.489 103.281C166.478 103.492 166.465 103.65 166.453 103.768C166.446 103.826 166.441 103.869 166.436 103.9C166.434 103.915 166.432 103.927 166.431 103.935C166.431 103.939 166.43 103.941 166.43 103.943C166.429 103.944 166.429 103.945 166.429 103.946C166.429 103.946 166.429 103.946 166.429 103.946C166.429 103.946 166.429 103.946 166.429 103.946C166.429 103.945 166.43 103.944 166.43 103.943C166.43 103.941 166.431 103.938 166.432 103.934C166.434 103.926 166.437 103.913 166.441 103.897C166.449 103.864 166.464 103.81 166.488 103.741C166.535 103.606 166.627 103.379 166.793 103.11C167.181 102.484 167.798 101.917 168.578 101.584C169.233 101.305 169.731 101.31 169.765 101.31V111.31ZM172.695 98.7051C172.797 98.7308 172.858 98.752 172.876 98.7583C172.899 98.7665 172.916 98.7736 172.935 98.782C172.951 98.7893 172.997 98.8105 173.068 98.8512C173.127 98.8847 173.288 98.9798 173.496 99.1483L167.19 106.909C167.814 107.416 168.462 107.736 168.839 107.905C169.262 108.095 169.76 108.279 170.269 108.407L172.695 98.7051ZM165.346 102.842C165.33 103.286 165.315 103.538 165.302 103.688C165.284 103.886 165.286 103.68 165.394 103.327C165.508 102.955 165.898 101.891 167.046 101.059C168.195 100.226 169.33 100.188 169.663 100.188V110.188C170.26 110.188 171.603 110.107 172.917 109.154C174.232 108.201 174.746 106.938 174.956 106.254C175.286 105.176 175.315 103.88 175.339 103.216L165.346 102.842ZM169.663 100.188H167.725V110.188H169.663V100.188ZM167.725 100.188C167.725 100.188 167.728 100.188 167.733 100.188C167.738 100.188 167.746 100.188 167.757 100.188C167.777 100.189 167.812 100.19 167.858 100.193C167.941 100.199 168.112 100.213 168.336 100.257C168.767 100.341 169.702 100.595 170.583 101.418C171.497 102.273 171.829 103.248 171.951 103.795C172.009 104.057 172.029 104.263 172.037 104.37C172.045 104.48 172.045 104.552 172.045 104.559H162.045C162.045 104.776 162.048 105.328 162.189 105.964C162.348 106.679 162.742 107.778 163.754 108.724C164.732 109.638 165.8 109.95 166.414 110.07C166.993 110.184 167.499 110.188 167.725 110.188V100.188ZM172.045 104.559V101.822H162.045V104.559H172.045ZM167.045 106.822H171.074V96.8218H167.045V106.822ZM176.074 101.822V100.649H166.074V101.822H176.074ZM171.074 95.6488H167.045V105.649H171.074V95.6488ZM172.045 100.649V98.1158H162.045V100.649H172.045ZM167.045 103.116H169V93.1158H167.045V103.116ZM177.262 98.2688V93.2688H172.262V98.2688H177.262ZM185.456 98.2688H190.456V93.2688H185.456V98.2688ZM185.456 100.037V105.037H190.456V100.037H185.456ZM177.262 100.037H172.262V105.037H177.262V100.037ZM177.262 95.4468V90.4468H172.262V95.4468H177.262ZM185.456 95.4468H190.456V90.4468H185.456V95.4468ZM185.456 97.1978V102.198H190.456V97.1978H185.456ZM177.262 97.1978H172.262V102.198H177.262V97.1978ZM177.262 92.6588V87.6588H172.262V92.6588H177.262ZM185.456 92.6588H190.456V87.6588H185.456V92.6588ZM185.456 94.3928V99.3928H190.456V94.3928H185.456ZM177.262 94.3928H172.262V99.3928H177.262V94.3928ZM183.722 101.159V96.1588H178.722V101.159H183.722ZM186.731 101.159V106.159H191.731V101.159H186.731ZM186.731 91.5198H191.731V86.5198H186.731V91.5198ZM176.038 91.5198V86.5198H171.038V91.5198H176.038ZM176.038 101.159H171.038V106.159H176.038V101.159ZM178.333 101.159L183.267 101.968L184.22 96.1588H178.333V101.159ZM173.59 105.358L172.609 100.455L163.448 102.287L170.054 108.893L173.59 105.358ZM174.304 106.463L169.536 107.968L170.925 112.366L175.42 111.337L174.304 106.463ZM179.659 101.159V96.1588H175.353L174.714 100.417L179.659 101.159ZM182.447 101.159H187.447V96.1588H182.447V101.159ZM189.162 103.233L194.152 103.543L194.413 99.3433L190.32 98.3688L189.162 103.233ZM187.989 102.723L191.142 98.8423L183.319 92.4863L182.992 102.56L187.989 102.723ZM177.262 103.269H185.456V93.2688H177.262V103.269ZM180.456 98.2688V100.037H190.456V98.2688H180.456ZM185.456 95.0368H177.262V105.037H185.456V95.0368ZM182.262 100.037V98.2688H172.262V100.037H182.262ZM177.262 100.447H185.456V90.4468H177.262V100.447ZM180.456 95.4468V97.1978H190.456V95.4468H180.456ZM185.456 92.1978H177.262V102.198H185.456V92.1978ZM182.262 97.1978V95.4468H172.262V97.1978H182.262ZM177.262 97.6588H185.456V87.6588H177.262V97.6588ZM180.456 92.6588V94.3928H190.456V92.6588H180.456ZM185.456 89.3928H177.262V99.3928H185.456V89.3928ZM182.262 94.3928V92.6588H172.262V94.3928H182.262ZM184.589 100.12C184.453 100.12 184.584 100.113 184.817 100.144C185.016 100.171 185.791 100.285 186.638 100.845C187.668 101.525 188.258 102.488 188.527 103.348C188.735 104.014 188.722 104.533 188.722 104.542H178.722C178.722 104.781 178.616 107.529 181.124 109.187C182.096 109.83 183.042 109.995 183.473 110.053C183.937 110.116 184.36 110.12 184.589 110.12V100.12ZM188.722 104.542V101.159H178.722V104.542H188.722ZM183.722 106.159H186.731V96.1588H183.722V106.159ZM191.731 101.159V91.5198H181.731V101.159H191.731ZM186.731 86.5198H176.038V96.5198H186.731V86.5198ZM171.038 91.5198V101.159H181.038V91.5198H171.038ZM176.038 106.159H178.333V96.1588H176.038V106.159ZM173.399 100.349C173.348 100.661 173.31 100.724 173.336 100.665C173.352 100.628 173.385 100.56 173.441 100.476C173.498 100.391 173.565 100.31 173.637 100.24C173.787 100.093 173.866 100.08 173.73 100.14C173.577 100.208 173.239 100.329 172.609 100.455L174.57 110.261C176.73 109.829 178.927 109.055 180.632 107.386C182.429 105.627 183.01 103.534 183.267 101.968L173.399 100.349ZM170.054 108.893C169.938 108.777 169.875 108.697 169.862 108.681C169.842 108.655 169.832 108.64 169.824 108.628C169.818 108.619 169.794 108.581 169.757 108.511C169.732 108.463 169.631 108.27 169.536 107.968L179.072 104.957C178.814 104.141 178.404 103.475 178.185 103.142C177.933 102.758 177.57 102.267 177.125 101.822L170.054 108.893ZM175.42 111.337C177.874 110.775 180.203 109.789 181.955 107.884C183.729 105.957 184.332 103.712 184.604 101.901L174.714 100.417C174.578 101.325 174.433 101.291 174.596 101.114C174.737 100.961 174.593 101.267 173.187 101.589L175.42 111.337ZM179.659 106.159H182.447V96.1588H179.659V106.159ZM177.447 101.159V104.559H187.447V101.159H177.447ZM177.447 104.559C177.447 105.403 177.484 107.906 179.581 109.727C181.428 111.33 183.712 111.31 184.47 111.31V101.31C184.218 101.31 184.292 101.29 184.525 101.34C184.785 101.396 185.453 101.582 186.137 102.175C186.867 102.809 187.208 103.551 187.349 104.05C187.465 104.461 187.447 104.704 187.447 104.559H177.447ZM184.47 111.31H187.207V101.31H184.47V111.31ZM187.207 111.31C187.855 111.31 188.873 111.251 189.96 110.814C191.194 110.318 192.196 109.464 192.89 108.365C193.503 107.395 193.764 106.409 193.9 105.712C194.041 104.99 194.109 104.237 194.152 103.543L184.171 102.923C184.138 103.461 184.102 103.709 184.085 103.795C184.064 103.906 184.114 103.535 184.435 103.026C184.838 102.388 185.47 101.842 186.227 101.537C186.547 101.408 186.812 101.355 186.97 101.331C187.051 101.32 187.113 101.314 187.15 101.312C187.169 101.311 187.184 101.31 187.193 101.31C187.198 101.31 187.201 101.31 187.203 101.31C187.205 101.31 187.205 101.31 187.206 101.31C187.207 101.31 187.207 101.31 187.207 101.31V111.31ZM190.32 98.3688C190.418 98.3921 190.447 98.4053 190.463 98.4121C190.48 98.4189 190.536 98.4429 190.624 98.4906C190.696 98.5298 190.894 98.6411 191.142 98.8423L184.836 106.603C185.527 107.165 186.251 107.491 186.624 107.646C187.069 107.831 187.549 107.989 188.004 108.097L190.32 98.3688ZM182.992 102.56C182.975 103.059 182.958 103.329 182.944 103.472C182.923 103.673 182.929 103.389 183.098 102.94C183.313 102.371 183.864 101.357 185.075 100.678C186.106 100.1 187.025 100.12 187.105 100.12V110.12C187.525 110.12 188.716 110.101 189.966 109.401C191.396 108.599 192.112 107.377 192.454 106.471C192.751 105.684 192.847 104.932 192.892 104.487C192.943 103.985 192.968 103.432 192.986 102.885L182.992 102.56ZM187.105 100.12H184.589V110.12H187.105V100.12Z" fill="#F5F5F5"/>
<path d="M30.1667 70.2862C30.1667 75.1128 28.8467 78.7528 26.2067 81.2062C23.5934 83.6328 19.9401 84.8462 15.2467 84.8462H7.28674V56.2862H16.0867C18.9667 56.2862 21.4601 56.8195 23.5667 57.8862C25.6734 58.9528 27.3001 60.5262 28.4467 62.6062C29.5934 64.6595 30.1667 67.2195 30.1667 70.2862ZM26.3667 70.4062C26.3667 66.5928 25.4201 63.8062 23.5267 62.0462C21.6601 60.2595 19.0067 59.3662 15.5667 59.3662H10.8867V81.7662H14.7667C22.5001 81.7662 26.3667 77.9795 26.3667 70.4062ZM46.1455 84.8462H35.8255V82.7662L39.1855 82.0062V59.1662L35.8255 58.3662V56.2862H46.1455V58.3662L42.7855 59.1662V82.0062L46.1455 82.7662V84.8462ZM69.4602 77.2062C69.4602 79.7395 68.5402 81.7128 66.7002 83.1262C64.8602 84.5395 62.3802 85.2462 59.2602 85.2462C57.6602 85.2462 56.1802 85.1262 54.8202 84.8862C53.4602 84.6462 52.3268 84.3128 51.4202 83.8862V80.4462C52.3802 80.8728 53.5668 81.2595 54.9802 81.6062C56.4202 81.9528 57.9002 82.1262 59.4202 82.1262C61.5535 82.1262 63.1535 81.7128 64.2202 80.8862C65.3135 80.0595 65.8602 78.9395 65.8602 77.5262C65.8602 76.5928 65.6602 75.8062 65.2602 75.1662C64.8602 74.5262 64.1668 73.9395 63.1802 73.4062C62.2202 72.8462 60.8735 72.2595 59.1402 71.6462C56.7135 70.7662 54.8735 69.6862 53.6202 68.4062C52.3935 67.1262 51.7802 65.3795 51.7802 63.1662C51.7802 61.6462 52.1668 60.3528 52.9402 59.2862C53.7135 58.1928 54.7802 57.3528 56.1402 56.7662C57.5268 56.1795 59.1135 55.8862 60.9002 55.8862C62.4735 55.8862 63.9135 56.0328 65.2202 56.3262C66.5268 56.6195 67.7135 57.0062 68.7802 57.4862L67.6602 60.5662C66.6735 60.1395 65.5935 59.7795 64.4202 59.4862C63.2735 59.1928 62.0735 59.0462 60.8202 59.0462C59.0335 59.0462 57.6868 59.4328 56.7802 60.2062C55.8735 60.9528 55.4202 61.9528 55.4202 63.2062C55.4202 64.1662 55.6202 64.9662 56.0202 65.6062C56.4202 66.2462 57.0735 66.8195 57.9802 67.3262C58.8868 67.8328 60.1135 68.3795 61.6602 68.9662C63.3402 69.5795 64.7535 70.2462 65.9002 70.9662C67.0735 71.6595 67.9535 72.4995 68.5402 73.4862C69.1535 74.4728 69.4602 75.7128 69.4602 77.2062ZM89.0533 59.0462C85.9866 59.0462 83.5733 60.0728 81.8133 62.1262C80.0533 64.1795 79.1733 66.9928 79.1733 70.5662C79.1733 74.1128 79.9866 76.9262 81.6133 79.0062C83.2666 81.0595 85.7333 82.0862 89.0133 82.0862C90.2666 82.0862 91.4533 81.9795 92.5733 81.7662C93.6933 81.5528 94.7866 81.2862 95.8533 80.9662V84.0862C94.7866 84.4862 93.68 84.7795 92.5333 84.9662C91.4133 85.1528 90.0666 85.2462 88.4933 85.2462C85.5866 85.2462 83.16 84.6462 81.2133 83.4462C79.2666 82.2462 77.8 80.5395 76.8133 78.3262C75.8533 76.1128 75.3733 73.5128 75.3733 70.5262C75.3733 67.6462 75.8933 65.1128 76.9333 62.9262C78 60.7128 79.56 58.9928 81.6133 57.7662C83.6666 56.5128 86.16 55.8862 89.0933 55.8862C92.1066 55.8862 94.7333 56.4462 96.9733 57.5662L95.5333 60.6062C94.6533 60.2062 93.6666 59.8462 92.5733 59.5262C91.5066 59.2062 90.3333 59.0462 89.0533 59.0462ZM127.825 70.5262C127.825 73.4862 127.319 76.0728 126.305 78.2862C125.319 80.4728 123.852 82.1795 121.905 83.4062C119.959 84.6328 117.545 85.2462 114.665 85.2462C111.705 85.2462 109.239 84.6328 107.265 83.4062C105.319 82.1795 103.865 80.4595 102.905 78.2462C101.945 76.0328 101.465 73.4462 101.465 70.4862C101.465 67.5528 101.945 64.9928 102.905 62.8062C103.865 60.6195 105.319 58.9128 107.265 57.6862C109.239 56.4595 111.719 55.8462 114.705 55.8462C117.559 55.8462 119.959 56.4595 121.905 57.6862C123.852 58.8862 125.319 60.5928 126.305 62.8062C127.319 64.9928 127.825 67.5662 127.825 70.5262ZM105.265 70.5262C105.265 74.1262 106.025 76.9662 107.545 79.0462C109.065 81.0995 111.439 82.1262 114.665 82.1262C117.919 82.1262 120.292 81.0995 121.785 79.0462C123.279 76.9662 124.025 74.1262 124.025 70.5262C124.025 66.9262 123.279 64.1128 121.785 62.0862C120.292 60.0328 117.932 59.0062 114.705 59.0062C111.479 59.0062 109.092 60.0328 107.545 62.0862C106.025 64.1128 105.265 66.9262 105.265 70.5262ZM155.485 56.2862L145.285 84.8462H141.685L131.485 56.2862H135.245L141.685 74.6062C142.112 75.7795 142.472 76.8862 142.765 77.9262C143.058 78.9395 143.298 79.9128 143.485 80.8462C143.672 79.9128 143.912 78.9262 144.205 77.8862C144.498 76.8462 144.858 75.7262 145.285 74.5262L151.685 56.2862H155.485ZM176.909 84.8462H160.949V56.2862H176.909V59.4462H164.549V68.3662H176.189V71.4862H164.549V81.6862H176.909V84.8462ZM192.656 56.2862C196.202 56.2862 198.816 56.9662 200.496 58.3262C202.202 59.6595 203.056 61.6862 203.056 64.4062C203.056 65.9262 202.776 67.1928 202.216 68.2062C201.656 69.2195 200.936 70.0328 200.056 70.6462C199.202 71.2328 198.296 71.6995 197.336 72.0462L205.176 84.8462H200.976L194.056 73.0462H188.376V84.8462H184.776V56.2862H192.656ZM192.456 59.4062H188.376V70.0062H192.656C194.976 70.0062 196.669 69.5528 197.736 68.6462C198.802 67.7128 199.336 66.3528 199.336 64.5662C199.336 62.6995 198.776 61.3795 197.656 60.6062C196.536 59.8062 194.802 59.4062 192.456 59.4062ZM218.699 70.3262L226.139 56.2862H230.019L220.499 73.7662V84.8462H216.899V73.9262L207.379 56.2862H211.299L218.699 70.3262Z" fill="#7546D9"/>
<path d="M26.2067 81.2062L29.609 84.8701L29.6104 84.8688L26.2067 81.2062ZM7.28674 84.8462H2.28674V89.8462H7.28674V84.8462ZM7.28674 56.2862V51.2862H2.28674V56.2862H7.28674ZM28.4467 62.6062L24.068 65.0201L24.0746 65.032L24.0813 65.044L28.4467 62.6062ZM23.5267 62.0462L20.0695 65.6582L20.0958 65.6835L20.1225 65.7083L23.5267 62.0462ZM10.8867 59.3662V54.3662H5.88674V59.3662H10.8867ZM10.8867 81.7662H5.88674V86.7662H10.8867V81.7662ZM25.1667 70.2862C25.1667 74.2152 24.1134 76.3259 22.8031 77.5435L29.6104 84.8688C33.5801 81.1798 35.1667 76.0105 35.1667 70.2862H25.1667ZM22.8045 77.5422C21.3777 78.8671 19.0874 79.8462 15.2467 79.8462V89.8462C20.7928 89.8462 25.8091 88.3986 29.609 84.8701L22.8045 77.5422ZM15.2467 79.8462H7.28674V89.8462H15.2467V79.8462ZM12.2867 84.8462V56.2862H2.28674V84.8462H12.2867ZM7.28674 61.2862H16.0867V51.2862H7.28674V61.2862ZM16.0867 61.2862C18.3519 61.2862 20.0389 61.7043 21.3081 62.3469L25.8254 53.4254C22.8813 51.9347 19.5816 51.2862 16.0867 51.2862V61.2862ZM21.3081 62.3469C22.5129 62.957 23.4033 63.8144 24.068 65.0201L32.8254 60.1923C31.1968 57.238 28.8339 54.9487 25.8254 53.4254L21.3081 62.3469ZM24.0813 65.044C24.7042 66.1594 25.1667 67.8209 25.1667 70.2862H35.1667C35.1667 66.6181 34.4826 63.1596 32.8122 60.1683L24.0813 65.044ZM31.3667 70.4062C31.3667 65.8677 30.2434 61.4632 26.931 58.384L20.1225 65.7083C20.5967 66.1491 21.3667 67.3179 21.3667 70.4062H31.3667ZM26.984 58.4341C23.9121 55.4938 19.8567 54.3662 15.5667 54.3662V64.3662C18.1568 64.3662 19.408 65.0252 20.0695 65.6582L26.984 58.4341ZM15.5667 54.3662H10.8867V64.3662H15.5667V54.3662ZM5.88674 59.3662V81.7662H15.8867V59.3662H5.88674ZM10.8867 86.7662H14.7667V76.7662H10.8867V86.7662ZM14.7667 86.7662C19.3782 86.7662 23.7601 85.6372 26.9651 82.4985C30.1895 79.3408 31.3667 74.9904 31.3667 70.4062H21.3667C21.3667 73.3953 20.6107 74.7248 19.9684 75.3539C19.3067 76.0018 17.8886 76.7662 14.7667 76.7662V86.7662ZM46.1455 84.8462V89.8462H51.1455V84.8462H46.1455ZM35.8255 84.8462H30.8255V89.8462H35.8255V84.8462ZM35.8255 82.7662L34.7224 77.8894L30.8255 78.7708V82.7662H35.8255ZM39.1855 82.0062L40.2886 86.883L44.1855 86.0015V82.0062H39.1855ZM39.1855 59.1662H44.1855V55.2169L40.3436 54.3021L39.1855 59.1662ZM35.8255 58.3662H30.8255V62.3155L34.6674 63.2302L35.8255 58.3662ZM35.8255 56.2862V51.2862H30.8255V56.2862H35.8255ZM46.1455 56.2862H51.1455V51.2862H46.1455V56.2862ZM46.1455 58.3662L47.3036 63.2302L51.1455 62.3155V58.3662H46.1455ZM42.7855 59.1662L41.6274 54.3021L37.7855 55.2169V59.1662H42.7855ZM42.7855 82.0062H37.7855V86.0015L41.6824 86.883L42.7855 82.0062ZM46.1455 82.7662H51.1455V78.7708L47.2486 77.8894L46.1455 82.7662ZM46.1455 79.8462H35.8255V89.8462H46.1455V79.8462ZM40.8255 84.8462V82.7662H30.8255V84.8462H40.8255ZM36.9286 87.643L40.2886 86.883L38.0824 77.1294L34.7224 77.8894L36.9286 87.643ZM44.1855 82.0062V59.1662H34.1855V82.0062H44.1855ZM40.3436 54.3021L36.9836 53.5021L34.6674 63.2302L38.0274 64.0302L40.3436 54.3021ZM40.8255 58.3662V56.2862H30.8255V58.3662H40.8255ZM35.8255 61.2862H46.1455V51.2862H35.8255V61.2862ZM41.1455 56.2862V58.3662H51.1455V56.2862H41.1455ZM44.9874 53.5021L41.6274 54.3021L43.9436 64.0302L47.3036 63.2302L44.9874 53.5021ZM37.7855 59.1662V82.0062H47.7855V59.1662H37.7855ZM41.6824 86.883L45.0424 87.643L47.2486 77.8894L43.8886 77.1294L41.6824 86.883ZM41.1455 82.7662V84.8462H51.1455V82.7662H41.1455ZM66.7002 83.1262L63.6544 79.1609L63.6544 79.1609L66.7002 83.1262ZM54.8202 84.8862L55.6891 79.9622L55.6891 79.9622L54.8202 84.8862ZM51.4202 83.8862H46.4202V87.0592L49.2912 88.4103L51.4202 83.8862ZM51.4202 80.4462L53.4509 75.8771L46.4202 72.7524V80.4462H51.4202ZM54.9802 81.6062L53.7891 86.4622L53.7995 86.4648L53.8099 86.4673L54.9802 81.6062ZM64.2202 80.8862L61.2046 76.8979L61.1809 76.9158L61.1573 76.9341L64.2202 80.8862ZM65.2602 75.1662L61.0202 77.8162L61.0202 77.8162L65.2602 75.1662ZM63.1802 73.4062L60.6608 77.7251L60.7311 77.766L60.8026 77.8047L63.1802 73.4062ZM59.1402 71.6462L57.4356 76.3466L57.4539 76.3533L57.4723 76.3598L59.1402 71.6462ZM53.6202 68.4062L50.0102 71.8657L50.0288 71.8851L50.0476 71.9043L53.6202 68.4062ZM52.9402 59.2862L56.9882 62.221L57.0054 62.1973L57.0223 62.1735L52.9402 59.2862ZM56.1402 56.7662L54.192 52.1613L54.1758 52.1682L54.1597 52.1751L56.1402 56.7662ZM65.2202 56.3262L66.3154 51.4476L66.3154 51.4476L65.2202 56.3262ZM68.7802 57.4862L73.4791 59.1949L75.0657 54.8317L70.832 52.9266L68.7802 57.4862ZM67.6602 60.5662L65.6756 65.1554L70.5458 67.2615L72.3591 62.2749L67.6602 60.5662ZM64.4202 59.4862L63.181 64.3302L63.1942 64.3336L63.2075 64.3369L64.4202 59.4862ZM56.7802 60.2062L59.9587 64.0658L59.9921 64.0384L60.0249 64.0103L56.7802 60.2062ZM56.0202 65.6062L60.2602 62.9562L60.2602 62.9562L56.0202 65.6062ZM57.9802 67.3262L55.5411 71.6909L55.5411 71.6909L57.9802 67.3262ZM61.6602 68.9662L59.8869 73.6411L59.9161 73.6522L59.9455 73.6629L61.6602 68.9662ZM65.9002 70.9662L63.2413 75.2006L63.2985 75.2365L63.3565 75.2708L65.9002 70.9662ZM68.5402 73.4862L64.2425 76.0415L64.2677 76.0839L64.2938 76.1258L68.5402 73.4862ZM64.4602 77.2062C64.4602 78.3503 64.1376 78.7898 63.6544 79.1609L69.746 87.0914C72.9428 84.6359 74.4602 81.1287 74.4602 77.2062H64.4602ZM63.6544 79.1609C62.9461 79.705 61.6557 80.2462 59.2602 80.2462V90.2462C63.1046 90.2462 66.7743 89.374 69.746 87.0914L63.6544 79.1609ZM59.2602 80.2462C57.9069 80.2462 56.7214 80.1444 55.6891 79.9622L53.9513 89.8101C55.639 90.1079 57.4135 90.2462 59.2602 90.2462V80.2462ZM55.6891 79.9622C54.6134 79.7724 53.9366 79.5444 53.5492 79.3621L49.2912 88.4103C50.7171 89.0813 52.307 89.5199 53.9513 89.8101L55.6891 79.9622ZM56.4202 83.8862V80.4462H46.4202V83.8862H56.4202ZM49.3895 85.0152C50.7012 85.5982 52.189 86.0697 53.7891 86.4622L56.1713 76.7501C54.9447 76.4492 54.0592 76.1475 53.4509 75.8771L49.3895 85.0152ZM53.8099 86.4673C55.6431 86.9086 57.5164 87.1262 59.4202 87.1262V77.1262C58.284 77.1262 57.1972 76.997 56.1504 76.745L53.8099 86.4673ZM59.4202 87.1262C62.0607 87.1262 64.9603 86.6383 67.283 84.8382L61.1573 76.9341C61.2676 76.8486 61.2553 76.9013 60.9696 76.9751C60.6764 77.0508 60.1803 77.1262 59.4202 77.1262V87.1262ZM67.2357 84.8745C69.6239 83.0688 70.8602 80.4492 70.8602 77.5262H60.8602C60.8602 77.5751 60.8546 77.4424 60.9568 77.233C61.0616 77.0185 61.1881 76.9104 61.2046 76.8979L67.2357 84.8745ZM70.8602 77.5262C70.8602 75.8772 70.5024 74.1198 69.5002 72.5162L61.0202 77.8162C60.9262 77.6658 60.8821 77.5382 60.8643 77.4682C60.848 77.404 60.8602 77.4143 60.8602 77.5262H70.8602ZM69.5002 72.5162C68.4711 70.8697 66.9626 69.767 65.5578 69.0076L60.8026 77.8047C60.9283 77.8727 61.0231 77.9307 61.0917 77.9764C61.1604 78.0222 61.1975 78.0521 61.2105 78.0631C61.2397 78.0878 61.1437 78.0138 61.0202 77.8162L69.5002 72.5162ZM65.6995 69.0873C64.3509 68.3006 62.6722 67.5922 60.8081 66.9325L57.4723 76.3598C59.0748 76.9268 60.0895 77.3918 60.6608 77.7251L65.6995 69.0873ZM60.8447 66.9457C58.8348 66.2168 57.7425 65.4695 57.1927 64.908L50.0476 71.9043C52.0045 73.9028 54.5922 75.3155 57.4356 76.3466L60.8447 66.9457ZM57.2301 64.9466C57.1038 64.8148 56.7802 64.4265 56.7802 63.1662H46.7802C46.7802 66.3325 47.6832 69.4375 50.0102 71.8657L57.2301 64.9466ZM56.7802 63.1662C56.7802 62.5324 56.9255 62.3076 56.9882 62.221L48.8921 56.3513C47.4082 58.3981 46.7802 60.76 46.7802 63.1662H56.7802ZM57.0223 62.1735C57.2098 61.9084 57.5122 61.6197 58.1206 61.3572L54.1597 52.1751C52.0481 53.086 50.2172 54.4773 48.8581 56.3988L57.0223 62.1735ZM58.0884 61.371C58.7548 61.089 59.66 60.8862 60.9002 60.8862V50.8862C58.567 50.8862 56.2989 51.2699 54.192 52.1613L58.0884 61.371ZM60.9002 60.8862C62.1673 60.8862 63.2338 61.0047 64.125 61.2047L66.3154 51.4476C64.5932 51.061 62.7797 50.8862 60.9002 50.8862V60.8862ZM64.125 61.2047C65.1491 61.4346 66.0094 61.7223 66.7284 62.0458L70.832 52.9266C69.4176 52.2901 67.9046 51.8043 66.3154 51.4476L64.125 61.2047ZM64.0812 55.7774L62.9612 58.8574L72.3591 62.2749L73.4791 59.1949L64.0812 55.7774ZM69.6447 55.9769C68.3796 55.4298 67.038 54.9867 65.6329 54.6354L63.2075 64.3369C64.149 64.5723 64.9674 64.8492 65.6756 65.1554L69.6447 55.9769ZM65.6593 54.6421C64.0847 54.2393 62.4669 54.0462 60.8202 54.0462V64.0462C61.6801 64.0462 62.4624 64.1463 63.181 64.3302L65.6593 54.6421ZM60.8202 54.0462C58.4179 54.0462 55.7044 54.552 53.5354 56.402L60.0249 64.0103C59.8481 64.1611 59.7434 64.1726 59.8501 64.142C59.9713 64.1072 60.2721 64.0462 60.8202 64.0462V54.0462ZM53.6016 56.3465C51.4559 58.1136 50.4202 60.5735 50.4202 63.2062H60.4202C60.4202 63.191 60.4203 63.3463 60.3141 63.5806C60.2037 63.8241 60.0529 63.9882 59.9587 64.0658L53.6016 56.3465ZM50.4202 63.2062C50.4202 64.851 50.7649 66.6318 51.7802 68.2562L60.2602 62.9562C60.3622 63.1195 60.4056 63.2522 60.4209 63.3135C60.4347 63.3686 60.4202 63.3425 60.4202 63.2062H50.4202ZM51.7802 68.2562C52.7629 69.8285 54.1626 70.9206 55.5411 71.6909L60.4193 62.9614C60.2154 62.8475 60.1254 62.7732 60.1081 62.758C60.0935 62.7452 60.1661 62.8057 60.2602 62.9562L51.7802 68.2562ZM55.5411 71.6909C56.7488 72.3658 58.2282 73.012 59.8869 73.6411L63.4334 64.2912C61.9988 63.747 61.0249 63.2999 60.4193 62.9614L55.5411 71.6909ZM59.9455 73.6629C61.3938 74.1917 62.4695 74.716 63.2413 75.2006L68.559 66.7317C67.0375 65.7764 65.2866 64.9673 63.3749 64.2694L59.9455 73.6629ZM63.3565 75.2708C63.9429 75.6173 64.1582 75.8998 64.2425 76.0415L72.8379 70.9308C71.7488 69.0992 70.2041 67.7017 68.4438 66.6615L63.3565 75.2708ZM64.2938 76.1258C64.2977 76.1322 64.3364 76.1949 64.3764 76.3566C64.4179 76.5243 64.4602 76.7978 64.4602 77.2062H74.4602C74.4602 75.0423 74.0147 72.8222 72.7866 70.8465L64.2938 76.1258ZM81.8133 62.1262L85.6096 65.3801L85.6096 65.3801L81.8133 62.1262ZM81.6133 79.0062L77.6747 82.0863L77.6966 82.1143L77.7188 82.142L81.6133 79.0062ZM92.5733 81.7662L91.6377 76.8545L91.6377 76.8545L92.5733 81.7662ZM95.8533 80.9662H100.853V74.246L94.4166 76.177L95.8533 80.9662ZM95.8533 84.0862L97.6089 88.7678L100.853 87.5512V84.0862H95.8533ZM92.5333 84.9662L91.7299 80.0311L91.7206 80.0326L91.7113 80.0342L92.5333 84.9662ZM81.2133 83.4462L83.837 79.1899L83.837 79.1899L81.2133 83.4462ZM76.8133 78.3262L72.2262 80.3157L72.2362 80.3389L72.2465 80.362L76.8133 78.3262ZM76.9333 62.9262L72.4291 60.7554L72.4235 60.767L72.418 60.7786L76.9333 62.9262ZM81.6133 57.7662L84.1776 62.0585L84.198 62.0463L84.2183 62.0339L81.6133 57.7662ZM96.9733 57.5662L101.492 59.7066L103.587 55.283L99.2094 53.094L96.9733 57.5662ZM95.5333 60.6062L93.4643 65.158L97.945 67.1947L100.052 62.7466L95.5333 60.6062ZM92.5733 59.5262L91.1366 64.3153L91.1527 64.3201L91.1688 64.3248L92.5733 59.5262ZM89.0533 54.0462C84.7454 54.0462 80.8604 55.5549 78.017 58.8722L85.6096 65.3801C86.2862 64.5908 87.2278 64.0462 89.0533 64.0462V54.0462ZM78.017 58.8722C75.2601 62.0886 74.1733 66.1879 74.1733 70.5662H84.1733C84.1733 67.7978 84.8465 66.2703 85.6096 65.3801L78.017 58.8722ZM74.1733 70.5662C74.1733 74.8478 75.1574 78.8674 77.6747 82.0863L85.5519 75.926C84.8159 74.9849 84.1733 73.3778 84.1733 70.5662H74.1733ZM77.7188 82.142C80.5493 85.6572 84.6253 87.0862 89.0133 87.0862V77.0862C86.8413 77.0862 85.984 76.4618 85.5078 75.8704L77.7188 82.142ZM89.0133 87.0862C90.55 87.0862 92.0518 86.9554 93.5089 86.6779L91.6377 76.8545C90.8548 77.0036 89.9833 77.0862 89.0133 77.0862V87.0862ZM93.5089 86.6779C94.7939 86.4331 96.0547 86.1259 97.29 85.7553L94.4166 76.177C93.5186 76.4464 92.5927 76.6726 91.6377 76.8545L93.5089 86.6779ZM90.8533 80.9662V84.0862H100.853V80.9662H90.8533ZM94.0977 79.4045C93.3454 79.6866 92.5581 79.8963 91.7299 80.0311L93.3367 89.9012C94.8019 89.6627 96.2279 89.2857 97.6089 88.7678L94.0977 79.4045ZM91.7113 80.0342C90.9441 80.1621 89.888 80.2462 88.4933 80.2462V90.2462C90.2453 90.2462 91.8825 90.1436 93.3553 89.8981L91.7113 80.0342ZM88.4933 80.2462C86.265 80.2462 84.8074 79.788 83.837 79.1899L78.5896 87.7024C81.5125 89.5043 84.9083 90.2462 88.4933 90.2462V80.2462ZM83.837 79.1899C82.7991 78.55 81.983 77.6428 81.3801 76.2904L72.2465 80.362C73.617 83.4362 75.7342 85.9423 78.5896 87.7024L83.837 79.1899ZM81.4004 76.3366C80.7694 74.8817 80.3733 72.9866 80.3733 70.5262H70.3733C70.3733 74.0391 70.9372 77.344 72.2262 80.3157L81.4004 76.3366ZM80.3733 70.5262C80.3733 68.2499 80.7826 66.4741 81.4486 65.0737L72.418 60.7786C71.0041 63.7515 70.3733 67.0424 70.3733 70.5262H80.3733ZM81.4375 65.0969C82.0915 63.74 82.9886 62.7688 84.1776 62.0585L79.049 53.4738C76.1314 55.2168 73.9085 57.6857 72.4291 60.7554L81.4375 65.0969ZM84.2183 62.0339C85.3311 61.3547 86.8773 60.8862 89.0933 60.8862V50.8862C85.4427 50.8862 82.0022 51.6709 79.0083 53.4984L84.2183 62.0339ZM89.0933 60.8862C91.4864 60.8862 93.3187 61.329 94.7372 62.0383L99.2094 53.094C96.1479 51.5633 92.7269 50.8862 89.0933 50.8862V60.8862ZM92.4546 55.4257L91.0146 58.4657L100.052 62.7466L101.492 59.7066L92.4546 55.4257ZM97.6023 56.0543C96.473 55.541 95.2593 55.1026 93.9778 54.7275L91.1688 64.3248C92.074 64.5898 92.8337 64.8713 93.4643 65.158L97.6023 56.0543ZM94.01 54.737C92.4137 54.2581 90.7488 54.0462 89.0533 54.0462V64.0462C89.9178 64.0462 90.5995 64.1542 91.1366 64.3153L94.01 54.737ZM126.305 78.2862L121.759 76.2048L121.754 76.2172L121.748 76.2297L126.305 78.2862ZM121.905 83.4062L119.24 79.176L119.24 79.176L121.905 83.4062ZM107.265 83.4062L104.6 87.6364L104.613 87.6445L104.626 87.6526L107.265 83.4062ZM102.905 78.2462L98.3184 80.2357L102.905 78.2462ZM102.905 62.8062L107.484 64.8161L107.484 64.8161L102.905 62.8062ZM107.265 57.6862L104.626 53.4397L104.613 53.4478L104.6 53.456L107.265 57.6862ZM121.905 57.6862L119.24 61.9164L119.261 61.9295L119.282 61.9424L121.905 57.6862ZM126.305 62.8062L121.739 64.842L121.754 64.8753L121.769 64.9085L126.305 62.8062ZM107.545 79.0462L103.509 81.9962L103.518 82.0087L103.527 82.021L107.545 79.0462ZM121.785 79.0462L125.829 81.987L125.838 81.9746L125.847 81.9622L121.785 79.0462ZM121.785 62.0862L117.742 65.027L117.751 65.0396L117.76 65.0522L121.785 62.0862ZM107.545 62.0862L103.552 59.0779L103.545 59.0862L107.545 62.0862ZM122.825 70.5262C122.825 72.9198 122.416 74.77 121.759 76.2048L130.852 80.3675C132.221 77.3757 132.825 74.0525 132.825 70.5262H122.825ZM121.748 76.2297C121.147 77.5621 120.32 78.4956 119.24 79.176L124.571 87.6364C127.385 85.8634 129.491 83.3836 130.863 80.3426L121.748 76.2297ZM119.24 79.176C118.27 79.787 116.839 80.2462 114.665 80.2462V90.2462C118.252 90.2462 121.647 89.4786 124.571 87.6364L119.24 79.176ZM114.665 80.2462C112.386 80.2462 110.896 79.7756 109.905 79.1597L104.626 87.6526C107.582 89.49 111.025 90.2462 114.665 90.2462V80.2462ZM109.931 79.176C108.878 78.5127 108.073 77.5941 107.493 76.2566L98.3184 80.2357C99.6583 83.3249 101.759 85.8463 104.6 87.6364L109.931 79.176ZM107.493 76.2566C106.859 74.7965 106.465 72.913 106.465 70.4862H96.4655C96.4655 73.9793 97.0317 77.2691 98.3184 80.2357L107.493 76.2566ZM106.465 70.4862C106.465 68.0909 106.858 66.242 107.484 64.8161L98.3273 60.7962C97.0333 63.7437 96.4655 67.0148 96.4655 70.4862H106.465ZM107.484 64.8161C108.058 63.5072 108.863 62.5896 109.931 61.9164L104.6 53.456C101.775 55.2361 99.6726 57.7318 98.3273 60.7962L107.484 64.8161ZM109.905 61.9326C110.889 61.3207 112.389 60.8462 114.705 60.8462V50.8462C111.048 50.8462 107.588 51.5983 104.626 53.4397L109.905 61.9326ZM114.705 60.8462C116.842 60.8462 118.263 61.3009 119.24 61.9164L124.571 53.456C121.654 51.6181 118.276 50.8462 114.705 50.8462V60.8462ZM119.282 61.9424C120.32 62.5823 121.136 63.4895 121.739 64.842L130.872 60.7704C129.502 57.6961 127.385 55.19 124.529 53.4299L119.282 61.9424ZM121.769 64.9085C122.416 66.3037 122.825 68.1303 122.825 70.5262H132.825C132.825 67.002 132.222 63.682 130.842 60.7039L121.769 64.9085ZM100.265 70.5262C100.265 74.7765 101.158 78.7793 103.509 81.9962L111.582 76.0961C110.893 75.153 110.265 73.4759 110.265 70.5262H100.265ZM103.527 82.021C106.234 85.6786 110.316 87.1262 114.665 87.1262V77.1262C112.562 77.1262 111.897 76.5204 111.564 76.0713L103.527 82.021ZM114.665 87.1262C119.021 87.1262 123.136 85.69 125.829 81.987L117.742 76.1053C117.448 76.509 116.817 77.1262 114.665 77.1262V87.1262ZM125.847 81.9622C128.153 78.7499 129.025 74.7607 129.025 70.5262H119.025C119.025 73.4916 118.404 75.1825 117.724 76.1301L125.847 81.9622ZM129.025 70.5262C129.025 66.3022 128.158 62.3051 125.811 59.1202L117.76 65.0522C118.4 65.9205 119.025 67.5501 119.025 70.5262H129.025ZM125.829 59.1453C123.144 55.4533 119.051 54.0062 114.705 54.0062V64.0062C116.813 64.0062 117.44 64.6124 117.742 65.027L125.829 59.1453ZM114.705 54.0062C110.352 54.0062 106.281 55.4541 103.552 59.0779L111.539 65.0945C111.903 64.6116 112.606 64.0062 114.705 64.0062V54.0062ZM103.545 59.0862C101.154 62.2754 100.265 66.2863 100.265 70.5262H110.265C110.265 67.566 110.897 65.9503 111.545 65.0862L103.545 59.0862ZM155.485 56.2862L160.194 57.9678L162.58 51.2862H155.485V56.2862ZM145.285 84.8462V89.8462H148.808L149.994 86.5278L145.285 84.8462ZM141.685 84.8462L136.976 86.5278L138.161 89.8462H141.685V84.8462ZM131.485 56.2862V51.2862H124.39L126.776 57.9678L131.485 56.2862ZM135.245 56.2862L139.962 54.628L138.787 51.2862H135.245V56.2862ZM141.685 74.6062L136.968 76.2643L136.977 76.2897L136.986 76.3149L141.685 74.6062ZM142.765 77.9262L137.953 79.2835L137.957 79.3L137.962 79.3165L142.765 77.9262ZM143.485 80.8462L138.582 81.8267H148.388L143.485 80.8462ZM145.285 74.5262L149.996 76.2012L149.999 76.1914L150.003 76.1816L145.285 74.5262ZM151.685 56.2862V51.2862H148.14L146.967 54.6307L151.685 56.2862ZM150.776 54.6045L140.576 83.1645L149.994 86.5278L160.194 57.9678L150.776 54.6045ZM145.285 79.8462H141.685V89.8462H145.285V79.8462ZM146.394 83.1645L136.194 54.6045L126.776 57.9678L136.976 86.5278L146.394 83.1645ZM131.485 61.2862H135.245V51.2862H131.485V61.2862ZM130.528 57.9443L136.968 76.2643L146.402 72.948L139.962 54.628L130.528 57.9443ZM136.986 76.3149C137.377 77.3898 137.697 78.3784 137.953 79.2835L147.577 76.5689C147.246 75.3939 146.846 74.1692 146.384 72.8974L136.986 76.3149ZM137.962 79.3165C138.22 80.2089 138.426 81.0452 138.582 81.8267L148.388 79.8656C148.171 78.7805 147.896 77.67 147.568 76.5359L137.962 79.3165ZM148.388 81.8267C148.546 81.0357 148.754 80.1754 149.017 79.2435L139.393 76.5289C139.069 77.6769 138.797 78.79 138.582 79.8656L148.388 81.8267ZM149.017 79.2435C149.276 78.3273 149.6 77.3143 149.996 76.2012L140.574 72.8511C140.116 74.138 139.721 75.365 139.393 76.5289L149.017 79.2435ZM150.003 76.1816L156.403 57.9416L146.967 54.6307L140.567 72.8707L150.003 76.1816ZM151.685 61.2862H155.485V51.2862H151.685V61.2862ZM176.909 84.8462V89.8462H181.909V84.8462H176.909ZM160.949 84.8462H155.949V89.8462H160.949V84.8462ZM160.949 56.2862V51.2862H155.949V56.2862H160.949ZM176.909 56.2862H181.909V51.2862H176.909V56.2862ZM176.909 59.4462V64.4462H181.909V59.4462H176.909ZM164.549 59.4462V54.4462H159.549V59.4462H164.549ZM164.549 68.3662H159.549V73.3662H164.549V68.3662ZM176.189 68.3662H181.189V63.3662H176.189V68.3662ZM176.189 71.4862V76.4862H181.189V71.4862H176.189ZM164.549 71.4862V66.4862H159.549V71.4862H164.549ZM164.549 81.6862H159.549V86.6862H164.549V81.6862ZM176.909 81.6862H181.909V76.6862H176.909V81.6862ZM176.909 79.8462H160.949V89.8462H176.909V79.8462ZM165.949 84.8462V56.2862H155.949V84.8462H165.949ZM160.949 61.2862H176.909V51.2862H160.949V61.2862ZM171.909 56.2862V59.4462H181.909V56.2862H171.909ZM176.909 54.4462H164.549V64.4462H176.909V54.4462ZM159.549 59.4462V68.3662H169.549V59.4462H159.549ZM164.549 73.3662H176.189V63.3662H164.549V73.3662ZM171.189 68.3662V71.4862H181.189V68.3662H171.189ZM176.189 66.4862H164.549V76.4862H176.189V66.4862ZM159.549 71.4862V81.6862H169.549V71.4862H159.549ZM164.549 86.6862H176.909V76.6862H164.549V86.6862ZM171.909 81.6862V84.8462H181.909V81.6862H171.909ZM200.496 58.3262L197.35 62.2124L197.383 62.2396L197.418 62.2663L200.496 58.3262ZM202.216 68.2062L206.592 70.6246L206.592 70.6246L202.216 68.2062ZM200.056 70.6462L202.888 74.7664L202.902 74.7573L202.915 74.7482L200.056 70.6462ZM197.336 72.0462L195.638 67.3434L189.868 69.4268L193.072 74.6577L197.336 72.0462ZM205.176 84.8462V89.8462H214.102L209.44 82.2346L205.176 84.8462ZM200.976 84.8462L196.663 87.3755L198.112 89.8462H200.976V84.8462ZM194.056 73.0462L198.369 70.5168L196.92 68.0462H194.056V73.0462ZM188.376 73.0462V68.0462H183.376V73.0462H188.376ZM188.376 84.8462V89.8462H193.376V84.8462H188.376ZM184.776 84.8462H179.776V89.8462H184.776V84.8462ZM184.776 56.2862V51.2862H179.776V56.2862H184.776ZM188.376 59.4062V54.4062H183.376V59.4062H188.376ZM188.376 70.0062H183.376V75.0062H188.376V70.0062ZM197.736 68.6462L200.974 72.4559L201.001 72.4326L201.028 72.409L197.736 68.6462ZM197.656 60.6062L194.75 64.6748L194.782 64.698L194.815 64.7206L197.656 60.6062ZM192.656 61.2862C195.736 61.2862 196.973 61.9077 197.35 62.2124L203.642 54.4399C200.658 52.0246 196.669 51.2862 192.656 51.2862V61.2862ZM197.418 62.2663C197.607 62.4141 198.056 62.7923 198.056 64.4062H208.056C208.056 60.58 206.798 56.9049 203.574 54.386L197.418 62.2663ZM198.056 64.4062C198.056 65.3365 197.882 65.7107 197.84 65.7877L206.592 70.6246C207.669 68.6749 208.056 66.5158 208.056 64.4062H198.056ZM197.84 65.7877C197.62 66.1854 197.4 66.4026 197.197 66.5442L202.915 74.7482C204.472 73.6631 205.692 72.2536 206.592 70.6246L197.84 65.7877ZM197.223 66.526C196.716 66.8744 196.19 67.1438 195.638 67.3434L199.034 76.7489C200.401 76.2552 201.689 75.5913 202.888 74.7664L197.223 66.526ZM193.072 74.6577L200.912 87.4577L209.44 82.2346L201.6 69.4346L193.072 74.6577ZM205.176 79.8462H200.976V89.8462H205.176V79.8462ZM205.289 82.3168L198.369 70.5168L189.743 75.5755L196.663 87.3755L205.289 82.3168ZM194.056 68.0462H188.376V78.0462H194.056V68.0462ZM183.376 73.0462V84.8462H193.376V73.0462H183.376ZM188.376 79.8462H184.776V89.8462H188.376V79.8462ZM189.776 84.8462V56.2862H179.776V84.8462H189.776ZM184.776 61.2862H192.656V51.2862H184.776V61.2862ZM192.456 54.4062H188.376V64.4062H192.456V54.4062ZM183.376 59.4062V70.0062H193.376V59.4062H183.376ZM188.376 75.0062H192.656V65.0062H188.376V75.0062ZM192.656 75.0062C195.44 75.0062 198.574 74.496 200.974 72.4559L194.498 64.8365C194.653 64.7045 194.679 64.7542 194.373 64.8362C194.058 64.9204 193.511 65.0062 192.656 65.0062V75.0062ZM201.028 72.409C203.451 70.289 204.336 67.3902 204.336 64.5662H194.336C194.336 64.9699 194.275 65.1161 194.281 65.1007C194.285 65.0914 194.301 65.0549 194.335 65.0053C194.37 64.9551 194.409 64.9131 194.443 64.8833L201.028 72.409ZM204.336 64.5662C204.336 61.7216 203.437 58.5216 200.497 56.4917L194.815 64.7206C194.702 64.6426 194.589 64.5398 194.491 64.4182C194.395 64.2981 194.34 64.1928 194.313 64.1289C194.265 64.0152 194.336 64.1106 194.336 64.5662H204.336ZM200.562 56.5375C198.182 54.8372 195.186 54.4062 192.456 54.4062V64.4062C193.363 64.4062 193.989 64.4852 194.391 64.5781C194.796 64.6715 194.857 64.7512 194.75 64.6748L200.562 56.5375ZM218.699 70.3262L214.275 72.6575L218.687 81.0271L223.117 72.6673L218.699 70.3262ZM226.139 56.2862V51.2862H223.13L221.721 53.945L226.139 56.2862ZM230.019 56.2862L234.41 58.6776L238.435 51.2862H230.019V56.2862ZM220.499 73.7662L216.108 71.3747L215.499 72.4929V73.7662H220.499ZM220.499 84.8462V89.8462H225.499V84.8462H220.499ZM216.899 84.8462H211.899V89.8462H216.899V84.8462ZM216.899 73.9262H221.899V72.6631L221.299 71.5515L216.899 73.9262ZM207.379 56.2862V51.2862H198.999L202.979 58.6608L207.379 56.2862ZM211.299 56.2862L215.722 53.9548L214.315 51.2862H211.299V56.2862ZM223.117 72.6673L230.557 58.6273L221.721 53.945L214.281 67.985L223.117 72.6673ZM226.139 61.2862H230.019V51.2862H226.139V61.2862ZM225.628 53.8947L216.108 71.3747L224.89 76.1576L234.41 58.6776L225.628 53.8947ZM215.499 73.7662V84.8462H225.499V73.7662H215.499ZM220.499 79.8462H216.899V89.8462H220.499V79.8462ZM221.899 84.8462V73.9262H211.899V84.8462H221.899ZM221.299 71.5515L211.779 53.9115L202.979 58.6608L212.499 76.3008L221.299 71.5515ZM207.379 61.2862H211.299V51.2862H207.379V61.2862ZM206.875 58.6175L214.275 72.6575L223.122 67.9948L215.722 53.9548L206.875 58.6175Z" fill="#F5F5F5"/>
<path d="M24.568 12.88C20.2747 12.88 16.896 14.3173 14.432 17.192C11.968 20.0667 10.736 24.0053 10.736 29.008C10.736 33.9733 11.8747 37.912 14.152 40.824C16.4667 43.6987 19.92 45.136 24.512 45.136C26.2667 45.136 27.928 44.9867 29.496 44.688C31.064 44.3893 32.5947 44.016 34.088 43.568V47.936C32.5947 48.496 31.0453 48.9067 29.44 49.168C27.872 49.4293 25.9867 49.56 23.784 49.56C19.7147 49.56 16.3173 48.72 13.592 47.04C10.8667 45.36 8.81333 42.9707 7.432 39.872C6.088 36.7733 5.416 33.1333 5.416 28.952C5.416 24.92 6.144 21.3733 7.6 18.312C9.09333 15.2133 11.2773 12.8053 14.152 11.088C17.0267 9.33333 20.5173 8.456 24.624 8.456C28.8427 8.456 32.52 9.24 35.656 10.808L33.64 15.064C32.408 14.504 31.0267 14 29.496 13.552C28.0027 13.104 26.36 12.88 24.568 12.88ZM54.0708 49H39.6228V46.088L44.3268 45.024V13.048L39.6228 11.928V9.016H54.0708V11.928L49.3668 13.048V45.024L54.0708 46.088V49ZM74.4474 49H69.4074V13.44H56.9194V9.016H86.8794V13.44H74.4474V49ZM103.325 28.672L113.741 9.016H119.173L105.845 33.488V49H100.805V33.712L87.4766 9.016H92.9646L103.325 28.672ZM135.211 9.016C140.438 9.016 144.246 10.0427 146.635 12.096C149.025 14.1493 150.219 17.0427 150.219 20.776C150.219 22.9787 149.715 25.0507 148.707 26.992C147.737 28.896 146.075 30.4453 143.723 31.64C141.409 32.8347 138.254 33.432 134.259 33.432H129.667V49H124.627V9.016H135.211ZM134.763 13.328H129.667V29.12H133.699C137.507 29.12 140.345 28.504 142.211 27.272C144.078 26.04 145.011 23.9493 145.011 21C145.011 18.424 144.19 16.5013 142.547 15.232C140.905 13.9627 138.31 13.328 134.763 13.328ZM193.422 28.952C193.422 33.096 192.712 36.7173 191.294 39.816C189.912 42.8773 187.859 45.2667 185.134 46.984C182.408 48.7013 179.03 49.56 174.998 49.56C170.854 49.56 167.4 48.7013 164.638 46.984C161.912 45.2667 159.878 42.8587 158.534 39.76C157.19 36.6613 156.518 33.04 156.518 28.896C156.518 24.7893 157.19 21.2053 158.534 18.144C159.878 15.0827 161.912 12.6933 164.638 10.976C167.4 9.25867 170.872 8.4 175.054 8.4C179.048 8.4 182.408 9.25867 185.134 10.976C187.859 12.656 189.912 15.0453 191.294 18.144C192.712 21.2053 193.422 24.808 193.422 28.952ZM161.838 28.952C161.838 33.992 162.902 37.968 165.03 40.88C167.158 43.7547 170.48 45.192 174.998 45.192C179.552 45.192 182.875 43.7547 184.966 40.88C187.056 37.968 188.102 33.992 188.102 28.952C188.102 23.912 187.056 19.9733 184.966 17.136C182.875 14.2613 179.571 12.824 175.054 12.824C170.536 12.824 167.195 14.2613 165.03 17.136C162.902 19.9733 161.838 23.912 161.838 28.952ZM212.868 9.016C218.094 9.016 221.902 10.0427 224.292 12.096C226.681 14.1493 227.876 17.0427 227.876 20.776C227.876 22.9787 227.372 25.0507 226.364 26.992C225.393 28.896 223.732 30.4453 221.38 31.64C219.065 32.8347 215.91 33.432 211.916 33.432H207.324V49H202.284V9.016H212.868ZM212.42 13.328H207.324V29.12H211.356C215.164 29.12 218.001 28.504 219.868 27.272C221.734 26.04 222.668 23.9493 222.668 21C222.668 18.424 221.846 16.5013 220.204 15.232C218.561 13.9627 215.966 13.328 212.42 13.328Z" fill="#D450D7"/>
<path d="M14.432 17.192L18.2283 20.446L18.2283 20.446L14.432 17.192ZM14.152 40.824L10.2134 43.9042L10.2353 43.9321L10.2575 43.9598L14.152 40.824ZM29.496 44.688L28.5604 39.7763L28.5604 39.7763L29.496 44.688ZM34.088 43.568H39.088V36.8478L32.6513 38.7789L34.088 43.568ZM34.088 47.936L35.8436 52.6176L39.088 51.401V47.936H34.088ZM29.44 49.168L28.6366 44.233L28.6273 44.2345L28.618 44.236L29.44 49.168ZM13.592 47.04L16.2157 42.7837L16.2157 42.7837L13.592 47.04ZM7.432 39.872L2.84489 41.8616L2.85494 41.8847L2.86521 41.9078L7.432 39.872ZM7.6 18.312L3.09578 16.1413L3.0902 16.1529L3.08468 16.1645L7.6 18.312ZM14.152 11.088L16.7163 15.3804L16.7367 15.3682L16.757 15.3558L14.152 11.088ZM35.656 10.808L40.1747 12.9484L42.2701 8.52486L37.8921 6.33586L35.656 10.808ZM33.64 15.064L31.571 19.6158L36.0517 21.6525L38.1587 17.2044L33.64 15.064ZM29.496 13.552L28.0593 18.3411L28.0754 18.346L28.0915 18.3507L29.496 13.552ZM24.568 7.88C19.0335 7.88 14.1831 9.7994 10.6357 13.938L18.2283 20.446C19.6089 18.8353 21.5159 17.88 24.568 17.88V7.88ZM10.6357 13.938C7.17477 17.9758 5.736 23.2004 5.736 29.008H15.736C15.736 24.8103 16.7612 22.1575 18.2283 20.446L10.6357 13.938ZM5.736 29.008C5.736 34.7084 7.04539 39.8533 10.2134 43.9042L18.0906 37.7438C16.7039 35.9707 15.736 33.2383 15.736 29.008H5.736ZM10.2575 43.9598C13.7494 48.2964 18.812 50.136 24.512 50.136V40.136C21.028 40.136 19.184 39.1009 18.0465 37.6882L10.2575 43.9598ZM24.512 50.136C26.55 50.136 28.5265 49.9626 30.4316 49.5997L28.5604 39.7763C27.3295 40.0108 25.9833 40.136 24.512 40.136V50.136ZM30.4316 49.5997C32.1646 49.2696 33.8627 48.8557 35.5247 48.3571L32.6513 38.7789C31.3266 39.1763 29.9634 39.5091 28.5604 39.7763L30.4316 49.5997ZM29.088 43.568V47.936H39.088V43.568H29.088ZM32.3324 43.2544C31.1534 43.6965 29.9234 44.0235 28.6366 44.233L30.2434 54.103C32.1672 53.7898 34.0359 53.2955 35.8436 52.6176L32.3324 43.2544ZM28.618 44.236C27.4028 44.4386 25.808 44.56 23.784 44.56V54.56C26.1653 54.56 28.3412 54.4201 30.262 54.1L28.618 44.236ZM23.784 44.56C20.393 44.56 17.9648 43.8619 16.2157 42.7837L10.9683 51.2963C14.6699 53.5781 19.0363 54.56 23.784 54.56V44.56ZM16.2157 42.7837C14.3991 41.6639 12.9963 40.074 11.9988 37.8362L2.86521 41.9078C4.63033 45.8674 7.33425 49.0561 10.9683 51.2963L16.2157 42.7837ZM12.0191 37.8824C11.0041 35.5422 10.416 32.6071 10.416 28.952H0.416C0.416 33.6596 1.17194 38.0045 2.84489 41.8616L12.0191 37.8824ZM10.416 28.952C10.416 25.5238 11.0332 22.7347 12.1153 20.4595L3.08468 16.1645C1.25475 20.012 0.416 24.3162 0.416 28.952H10.416ZM12.1042 20.4827C13.1848 18.2405 14.7059 16.5814 16.7163 15.3804L11.5877 6.79562C7.84873 9.02931 5.00185 12.1862 3.09578 16.1413L12.1042 20.4827ZM16.757 15.3558C18.6911 14.1752 21.2346 13.456 24.624 13.456V3.456C19.8 3.456 15.3622 4.49144 11.547 6.82022L16.757 15.3558ZM24.624 13.456C28.2224 13.456 31.1054 14.1229 33.4199 15.2801L37.8921 6.33586C33.9346 4.35711 29.4629 3.456 24.624 3.456V13.456ZM31.1373 8.66757L29.1213 12.9236L38.1587 17.2044L40.1747 12.9484L31.1373 8.66757ZM35.709 10.5122C34.2277 9.83882 32.6193 9.25639 30.9005 8.75331L28.0915 18.3507C29.434 18.7436 30.5884 19.1692 31.571 19.6158L35.709 10.5122ZM30.9327 8.76287C28.9098 8.15597 26.7755 7.88 24.568 7.88V17.88C25.9445 17.88 27.0956 18.052 28.0593 18.3411L30.9327 8.76287ZM54.0708 49V54H59.0708V49H54.0708ZM39.6228 49H34.6228V54H39.6228V49ZM39.6228 46.088L38.5197 41.2112L34.6228 42.0926V46.088H39.6228ZM44.3268 45.024L45.4299 49.9008L49.3268 49.0194V45.024H44.3268ZM44.3268 13.048H49.3268V9.09871L45.4849 8.18397L44.3268 13.048ZM39.6228 11.928H34.6228V15.8773L38.4647 16.792L39.6228 11.928ZM39.6228 9.016V4.016H34.6228V9.016H39.6228ZM54.0708 9.016H59.0708V4.016H54.0708V9.016ZM54.0708 11.928L55.2289 16.792L59.0708 15.8773V11.928H54.0708ZM49.3668 13.048L48.2087 8.18397L44.3668 9.09871V13.048H49.3668ZM49.3668 45.024H44.3668V49.0194L48.2637 49.9008L49.3668 45.024ZM54.0708 46.088H59.0708V42.0926L55.1739 41.2112L54.0708 46.088ZM54.0708 44H39.6228V54H54.0708V44ZM44.6228 49V46.088H34.6228V49H44.6228ZM40.7259 50.9648L45.4299 49.9008L43.2237 40.1472L38.5197 41.2112L40.7259 50.9648ZM49.3268 45.024V13.048H39.3268V45.024H49.3268ZM45.4849 8.18397L40.7809 7.06397L38.4647 16.792L43.1687 17.912L45.4849 8.18397ZM44.6228 11.928V9.016H34.6228V11.928H44.6228ZM39.6228 14.016H54.0708V4.016H39.6228V14.016ZM49.0708 9.016V11.928H59.0708V9.016H49.0708ZM52.9127 7.06397L48.2087 8.18397L50.5249 17.912L55.2289 16.792L52.9127 7.06397ZM44.3668 13.048V45.024H54.3668V13.048H44.3668ZM48.2637 49.9008L52.9677 50.9648L55.1739 41.2112L50.4699 40.1472L48.2637 49.9008ZM49.0708 46.088V49H59.0708V46.088H49.0708ZM74.4474 49V54H79.4474V49H74.4474ZM69.4074 49H64.4074V54H69.4074V49ZM69.4074 13.44H74.4074V8.44H69.4074V13.44ZM56.9194 13.44H51.9194V18.44H56.9194V13.44ZM56.9194 9.016V4.016H51.9194V9.016H56.9194ZM86.8794 9.016H91.8794V4.016H86.8794V9.016ZM86.8794 13.44V18.44H91.8794V13.44H86.8794ZM74.4474 13.44V8.44H69.4474V13.44H74.4474ZM74.4474 44H69.4074V54H74.4474V44ZM74.4074 49V13.44H64.4074V49H74.4074ZM69.4074 8.44H56.9194V18.44H69.4074V8.44ZM61.9194 13.44V9.016H51.9194V13.44H61.9194ZM56.9194 14.016H86.8794V4.016H56.9194V14.016ZM81.8794 9.016V13.44H91.8794V9.016H81.8794ZM86.8794 8.44H74.4474V18.44H86.8794V8.44ZM69.4474 13.44V49H79.4474V13.44H69.4474ZM103.325 28.672L98.9013 31.0033L103.313 39.3729L107.743 31.0132L103.325 28.672ZM113.741 9.016V4.016H110.731L109.323 6.67482L113.741 9.016ZM119.173 9.016L123.564 11.4074L127.589 4.016H119.173V9.016ZM105.845 33.488L101.454 31.0966L100.845 32.2147V33.488H105.845ZM105.845 49V54H110.845V49H105.845ZM100.805 49H95.8046V54H100.805V49ZM100.805 33.712H105.805V32.4489L105.205 31.3373L100.805 33.712ZM87.4766 9.016V4.016H79.0965L83.0765 11.3907L87.4766 9.016ZM92.9646 9.016L97.3878 6.68467L95.9812 4.016H92.9646V9.016ZM107.743 31.0132L118.159 11.3572L109.323 6.67482L98.9065 26.3308L107.743 31.0132ZM113.741 14.016H119.173V4.016H113.741V14.016ZM114.782 6.62455L101.454 31.0966L110.236 35.8794L123.564 11.4074L114.782 6.62455ZM100.845 33.488V49H110.845V33.488H100.845ZM105.845 44H100.805V54H105.845V44ZM105.805 49V33.712H95.8046V49H105.805ZM105.205 31.3373L91.8767 6.64133L83.0765 11.3907L96.4045 36.0867L105.205 31.3373ZM87.4766 14.016H92.9646V4.016H87.4766V14.016ZM88.5413 11.3473L98.9013 31.0033L107.748 26.3407L97.3878 6.68467L88.5413 11.3473ZM146.635 12.096L143.376 15.8881L143.376 15.8881L146.635 12.096ZM148.707 26.992L144.27 24.6879L144.261 24.7045L144.253 24.7211L148.707 26.992ZM143.723 31.64L141.459 27.1821L141.445 27.1895L141.43 27.1969L143.723 31.64ZM129.667 33.432V28.432H124.667V33.432H129.667ZM129.667 49V54H134.667V49H129.667ZM124.627 49H119.627V54H124.627V49ZM124.627 9.016V4.016H119.627V9.016H124.627ZM129.667 13.328V8.328H124.667V13.328H129.667ZM129.667 29.12H124.667V34.12H129.667V29.12ZM142.211 27.272L144.966 31.445L144.966 31.445L142.211 27.272ZM142.547 15.232L145.605 11.2756L145.605 11.2756L142.547 15.232ZM135.211 14.016C139.973 14.016 142.326 14.9856 143.376 15.8881L149.894 8.3039C146.166 5.09971 140.903 4.016 135.211 4.016V14.016ZM143.376 15.8881C144.453 16.8137 145.219 18.203 145.219 20.776H155.219C155.219 15.8824 153.596 11.485 149.894 8.3039L143.376 15.8881ZM145.219 20.776C145.219 22.1825 144.906 23.4635 144.27 24.6879L153.145 29.2961C154.525 26.6378 155.219 23.7749 155.219 20.776H145.219ZM144.253 24.7211C143.865 25.4808 143.092 26.3524 141.459 27.1821L145.988 36.0979C149.058 34.5383 151.608 32.3112 153.162 29.2629L144.253 24.7211ZM141.43 27.1969C140.103 27.8818 137.843 28.432 134.259 28.432V38.432C138.665 38.432 142.714 37.7875 146.017 36.0831L141.43 27.1969ZM134.259 28.432H129.667V38.432H134.259V28.432ZM124.667 33.432V49H134.667V33.432H124.667ZM129.667 44H124.627V54H129.667V44ZM129.627 49V9.016H119.627V49H129.627ZM124.627 14.016H135.211V4.016H124.627V14.016ZM134.763 8.328H129.667V18.328H134.763V8.328ZM124.667 13.328V29.12H134.667V13.328H124.667ZM129.667 34.12H133.699V24.12H129.667V34.12ZM133.699 34.12C137.875 34.12 141.888 33.4761 144.966 31.445L139.457 23.099C138.801 23.5319 137.14 24.12 133.699 24.12V34.12ZM144.966 31.445C148.668 29.0011 150.011 25.0325 150.011 21H140.011C140.011 21.9667 139.856 22.4942 139.746 22.7417C139.657 22.9393 139.576 23.0205 139.457 23.099L144.966 31.445ZM150.011 21C150.011 17.288 148.766 13.7182 145.605 11.2756L139.49 19.1884C139.614 19.2844 140.011 19.56 140.011 21H150.011ZM145.605 11.2756C142.655 8.99663 138.708 8.328 134.763 8.328V18.328C137.912 18.328 139.154 18.9287 139.49 19.1884L145.605 11.2756ZM191.294 39.816L186.747 37.7346L186.742 37.7471L186.736 37.7596L191.294 39.816ZM185.134 46.984L182.468 42.7538L182.468 42.7538L185.134 46.984ZM164.638 46.984L161.972 51.2142L161.985 51.2224L161.998 51.2304L164.638 46.984ZM158.534 39.76L153.946 41.7496L158.534 39.76ZM158.534 18.144L163.112 20.154L163.112 20.1539L158.534 18.144ZM164.638 10.976L161.998 6.72957L161.985 6.73765L161.972 6.7458L164.638 10.976ZM185.134 10.976L182.468 15.2062L182.489 15.2193L182.51 15.2323L185.134 10.976ZM191.294 18.144L186.727 20.1798L186.742 20.2132L186.757 20.2463L191.294 18.144ZM165.03 40.88L160.993 43.8301L161.002 43.8425L161.011 43.8549L165.03 40.88ZM184.966 40.88L189.009 43.8209L189.018 43.8085L189.027 43.796L184.966 40.88ZM184.966 17.136L180.922 20.0769L180.931 20.0895L180.94 20.102L184.966 17.136ZM165.03 17.136L161.036 14.1277L161.03 14.136L165.03 17.136ZM188.422 28.952C188.422 32.5297 187.81 35.4145 186.747 37.7346L195.84 41.8974C197.615 38.0202 198.422 33.6623 198.422 28.952H188.422ZM186.736 37.7596C185.74 39.9666 184.326 41.5827 182.468 42.7538L187.799 51.2142C191.391 48.9506 194.084 45.7881 195.851 41.8724L186.736 37.7596ZM182.468 42.7538C180.72 43.8555 178.323 44.56 174.998 44.56V54.56C179.737 54.56 184.097 53.5471 187.799 51.2142L182.468 42.7538ZM174.998 44.56C171.534 44.56 169.057 43.8441 167.277 42.7376L161.998 51.2304C165.743 53.5585 170.173 54.56 174.998 54.56V44.56ZM167.303 42.7538C165.472 41.5999 164.085 39.9933 163.121 37.7704L153.946 41.7496C155.67 45.7241 158.353 48.9335 161.972 51.2142L167.303 42.7538ZM163.121 37.7704C162.103 35.425 161.518 32.5068 161.518 28.896H151.518C151.518 33.5732 152.276 37.8976 153.946 41.7496L163.121 37.7704ZM161.518 28.896C161.518 25.3274 162.102 22.4545 163.112 20.154L153.955 16.134C152.277 19.9562 151.518 24.2513 151.518 28.896H161.518ZM163.112 20.1539C164.07 17.9704 165.456 16.3701 167.303 15.2062L161.972 6.7458C158.368 9.01658 155.685 12.195 153.955 16.1341L163.112 20.1539ZM167.277 15.2224C169.051 14.1199 171.543 13.4 175.054 13.4V3.4C170.202 3.4 165.75 4.39743 161.998 6.72957L167.277 15.2224ZM175.054 13.4C178.331 13.4 180.713 14.1001 182.468 15.2062L187.799 6.7458C184.104 4.41723 179.765 3.4 175.054 3.4V13.4ZM182.51 15.2323C184.326 16.3521 185.729 17.942 186.727 20.1798L195.86 16.1082C194.095 12.1486 191.391 8.95985 187.757 6.71971L182.51 15.2323ZM186.757 20.2463C187.809 22.5162 188.422 25.3721 188.422 28.952H198.422C198.422 24.2439 197.616 19.8945 195.83 16.0417L186.757 20.2463ZM156.838 28.952C156.838 34.6423 158.034 39.7811 160.993 43.8301L169.067 37.9299C167.769 36.1549 166.838 33.3417 166.838 28.952H156.838ZM161.011 43.8549C164.326 48.3338 169.357 50.192 174.998 50.192V40.192C171.603 40.192 169.989 39.1755 169.048 37.9051L161.011 43.8549ZM174.998 50.192C180.654 50.192 185.719 48.3451 189.009 43.8209L180.922 37.9391C180.031 39.1642 178.45 40.192 174.998 40.192V50.192ZM189.027 43.796C191.931 39.7517 193.102 34.6265 193.102 28.952H183.102C183.102 33.3575 182.182 36.1843 180.904 37.964L189.027 43.796ZM193.102 28.952C193.102 23.2881 191.935 18.1656 188.991 14.17L180.94 20.102C182.177 21.781 183.102 24.5359 183.102 28.952H193.102ZM189.009 14.1951C185.727 9.68178 180.69 7.824 175.054 7.824V17.824C178.452 17.824 180.023 18.8409 180.922 20.0769L189.009 14.1951ZM175.054 7.824C169.41 7.824 164.384 9.68259 161.036 14.1277L169.023 20.1443C170.006 18.8401 171.663 17.824 175.054 17.824V7.824ZM161.03 14.136C158.03 18.1359 156.838 23.2722 156.838 28.952H166.838C166.838 24.5518 167.773 21.8108 169.03 20.136L161.03 14.136ZM224.292 12.096L221.033 15.8881L221.033 15.8881L224.292 12.096ZM226.364 26.992L221.926 24.6879L221.917 24.7045L221.909 24.7211L226.364 26.992ZM221.38 31.64L219.115 27.1821L219.101 27.1895L219.086 27.1969L221.38 31.64ZM207.324 33.432V28.432H202.324V33.432H207.324ZM207.324 49V54H212.324V49H207.324ZM202.284 49H197.284V54H202.284V49ZM202.284 9.016V4.016H197.284V9.016H202.284ZM207.324 13.328V8.328H202.324V13.328H207.324ZM207.324 29.12H202.324V34.12H207.324V29.12ZM219.868 27.272L222.622 31.445L222.622 31.445L219.868 27.272ZM220.204 15.232L223.261 11.2756L223.261 11.2756L220.204 15.232ZM212.868 14.016C217.629 14.016 219.983 14.9856 221.033 15.8881L227.55 8.3039C223.822 5.09971 218.559 4.016 212.868 4.016V14.016ZM221.033 15.8881C222.11 16.8137 222.876 18.203 222.876 20.776H232.876C232.876 15.8824 231.252 11.485 227.55 8.3039L221.033 15.8881ZM222.876 20.776C222.876 22.1825 222.562 23.4635 221.926 24.6879L230.801 29.2961C232.181 26.6378 232.876 23.7749 232.876 20.776H222.876ZM221.909 24.7211C221.522 25.4808 220.749 26.3524 219.115 27.1821L223.644 36.0979C226.714 34.5383 229.264 32.3112 230.818 29.2629L221.909 24.7211ZM219.086 27.1969C217.759 27.8818 215.5 28.432 211.916 28.432V38.432C216.321 38.432 220.37 37.7875 223.673 36.0831L219.086 27.1969ZM211.916 28.432H207.324V38.432H211.916V28.432ZM202.324 33.432V49H212.324V33.432H202.324ZM207.324 44H202.284V54H207.324V44ZM207.284 49V9.016H197.284V49H207.284ZM202.284 14.016H212.868V4.016H202.284V14.016ZM212.42 8.328H207.324V18.328H212.42V8.328ZM202.324 13.328V29.12H212.324V13.328H202.324ZM207.324 34.12H211.356V24.12H207.324V34.12ZM211.356 34.12C215.531 34.12 219.544 33.4761 222.622 31.445L217.113 23.099C216.457 23.5319 214.796 24.12 211.356 24.12V34.12ZM222.622 31.445C226.325 29.0011 227.668 25.0325 227.668 21H217.668C217.668 21.9667 217.512 22.4942 217.402 22.7417C217.314 22.9393 217.232 23.0205 217.113 23.099L222.622 31.445ZM227.668 21C227.668 17.288 226.422 13.7182 223.261 11.2756L217.146 19.1884C217.271 19.2844 217.668 19.56 217.668 21H227.668ZM223.261 11.2756C220.312 8.99663 216.364 8.328 212.42 8.328V18.328C215.568 18.328 216.81 18.9287 217.146 19.1884L223.261 11.2756Z" fill="#F5F5F5"/>
</svg>
