<svg width="607" height="273" viewBox="0 0 607 273" fill="none" xmlns="http://www.w3.org/2000/svg">
<rect width="607" height="273" rx="40" fill="#202020" fill-opacity="0.65"/>
<g filter="url(#filter0_bd)">
<mask id="path-2-inside-1" fill="white">
<path d="M142.28 213.708L140.576 216.252C142.81 217.543 146.9 220.277 148.717 221.644L150.497 219.061C148.868 217.847 144.514 214.96 142.28 213.708ZM136.6 240.859L138.342 243.934C141.864 243.213 147.089 241.428 150.913 239.226C156.934 235.656 162.197 230.758 165.453 225.631L163.636 222.517C160.569 227.871 155.57 232.808 149.285 236.416C145.46 238.618 140.765 240.137 136.6 240.859ZM136.562 222.251L134.896 224.833C137.168 226.011 141.296 228.669 143.151 230.036L144.893 227.378C143.227 226.163 138.797 223.467 136.562 222.251ZM176.888 214.771V217.923C177.835 217.847 179.084 217.809 180.334 217.809H195.631C196.73 217.809 198.055 217.847 199.152 217.923V214.771C198.055 214.923 196.691 214.999 195.631 214.999H180.296C179.084 214.999 177.949 214.885 176.888 214.771ZM172.345 224.302V227.454C173.405 227.378 174.503 227.378 175.639 227.378H186.998C186.885 230.947 186.468 234.137 184.802 236.795C183.326 239.187 180.599 241.39 177.645 242.605L180.447 244.693C183.666 243.023 186.544 240.289 187.907 237.744C189.421 234.934 190.027 231.479 190.141 227.378H200.44C201.349 227.378 202.56 227.416 203.394 227.454V224.302C202.485 224.454 201.235 224.492 200.44 224.492H175.639C174.465 224.492 173.405 224.416 172.345 224.302ZM208.977 233.074L210.415 235.884C214.694 234.555 219.086 232.58 222.267 230.872V242.491C222.267 243.668 222.191 245.226 222.115 245.833H225.599C225.448 245.226 225.409 243.668 225.409 242.491V228.973C228.855 226.732 232.073 223.961 233.967 221.871L231.619 219.594C229.688 222.024 226.204 225.138 222.607 227.34C219.54 229.239 213.975 231.897 208.977 233.074ZM270.809 214.809C270.809 213.48 271.87 212.378 273.195 212.378C274.558 212.378 275.656 213.48 275.656 214.809C275.656 216.176 274.558 217.239 273.195 217.239C271.87 217.239 270.809 216.176 270.809 214.809ZM269.068 214.809C269.068 217.125 270.923 218.948 273.195 218.948C275.504 218.948 277.36 217.125 277.36 214.809C277.36 212.53 275.504 210.632 273.195 210.632C270.923 210.632 269.068 212.53 269.068 214.809ZM262.744 213.594H259.184C259.336 214.163 259.45 215.454 259.45 216.29V220.201H248.923C247.712 220.201 246.765 220.125 245.705 220.011V223.201C246.727 223.125 247.787 223.087 248.923 223.087H259.45V240.213C259.45 241.2 258.995 241.656 257.973 241.656C256.988 241.656 255.247 241.504 253.619 241.2L253.884 244.238C255.398 244.39 257.67 244.504 259.26 244.504C261.532 244.504 262.517 243.479 262.517 241.466V223.087H272.551C273.46 223.087 274.596 223.087 275.618 223.163V220.011C274.672 220.125 273.422 220.201 272.513 220.201H262.517V216.328C262.517 215.493 262.63 214.125 262.744 213.594ZM270.241 227.682L267.667 229.048C269.674 231.441 272.513 236.188 273.99 239.15L276.792 237.593C275.277 234.859 272.248 230.112 270.241 227.682ZM254.414 228.934L251.763 227.643C250.287 230.719 247.03 235.239 244.531 237.593L247.144 239.34C249.264 237.024 252.824 232.201 254.414 228.934ZM298.374 220.999L295.611 221.948C296.406 223.656 298.147 228.479 298.564 230.188L301.366 229.201C300.874 227.53 299.018 222.517 298.374 220.999ZM312.081 223.125L308.825 222.1C308.257 226.96 306.288 231.783 303.6 235.086C300.495 238.998 295.686 241.883 291.294 243.175L293.793 245.719C298.034 244.086 302.654 241.162 306.137 236.681C308.863 233.264 310.491 229.201 311.514 225.024C311.665 224.53 311.816 223.922 312.081 223.125ZM289.59 222.897L286.788 223.998C287.545 225.327 289.59 230.568 290.158 232.543L293.035 231.479C292.316 229.505 290.347 224.53 289.59 222.897ZM348.432 215.606C348.432 214.202 349.568 213.062 350.93 213.062C352.331 213.062 353.467 214.202 353.467 215.606C353.467 216.973 352.331 218.112 350.93 218.112C349.568 218.112 348.432 216.973 348.432 215.606ZM346.69 215.606C346.69 216.024 346.766 216.442 346.879 216.821C346.425 216.859 346.008 216.859 345.667 216.859H326.659C325.41 216.859 323.933 216.745 322.873 216.593V219.973C323.858 219.935 325.145 219.859 326.659 219.859H346.008C345.516 223.505 343.736 228.783 341.048 232.238C337.905 236.302 333.627 239.529 326.281 241.352L328.856 244.2C335.823 242.036 340.328 238.504 343.774 234.061C346.766 230.15 348.621 224.036 349.416 220.049C349.454 219.897 349.492 219.745 349.492 219.631C349.946 219.783 350.439 219.859 350.93 219.859C353.278 219.859 355.209 217.961 355.209 215.606C355.209 213.252 353.278 211.315 350.93 211.315C348.583 211.315 346.69 213.252 346.69 215.606ZM390.197 229.581C390.197 221.871 384.555 215.606 375.694 215.606C366.455 215.606 359.148 222.821 359.148 231.061C359.148 237.327 362.517 241.2 365.887 241.2C369.409 241.2 372.4 237.213 374.709 229.391C375.77 225.859 376.489 221.986 376.981 218.454C383.419 218.986 387.091 223.733 387.091 229.467C387.091 236.036 382.32 239.643 377.474 240.745C376.603 240.934 375.429 241.125 374.218 241.238L375.997 244.048C384.971 242.871 390.197 237.555 390.197 229.581ZM362.101 230.796C362.101 225.631 366.569 219.403 373.839 218.492C373.422 221.986 372.665 225.593 371.718 228.745C369.787 235.162 367.78 237.707 366 237.707C364.297 237.707 362.101 235.58 362.101 230.796ZM415.679 232.808H409.091V232.238V227.15H415.679V232.808ZM422.949 227.15V225.707C424.615 227.036 426.432 228.176 428.363 229.011C428.781 228.289 429.689 227.188 430.295 226.657C427.72 225.631 425.335 224.112 423.214 222.251C425.145 220.846 427.417 219.024 429.159 217.353L427.039 215.834C425.714 217.277 423.517 219.289 421.624 220.732C420.753 219.821 419.92 218.834 419.162 217.809C420.981 216.479 423.063 214.695 424.729 213.024L422.608 211.505C421.434 212.834 419.617 214.619 417.951 216.024C417.004 214.505 416.209 212.91 415.565 211.239L413.142 211.961C415.035 216.859 417.914 221.226 421.586 224.53H403.79C407.159 221.682 410.037 217.961 411.666 213.518L409.81 212.606L409.318 212.72H398.527V215.227H407.917C406.97 217.011 405.758 218.682 404.396 220.239C403.184 219.1 401.329 217.619 399.814 216.518L398.072 217.998C399.624 219.175 401.48 220.771 402.616 221.986C400.268 224.15 397.542 225.859 394.93 226.922C395.46 227.454 396.292 228.441 396.671 229.048C398.564 228.176 400.495 227.074 402.313 225.707V227.15H406.289V232.201V232.808H397.579V235.428H405.986C405.304 238.58 403.146 241.58 396.823 243.707C397.391 244.238 398.262 245.301 398.602 245.947C406.024 243.365 408.258 239.492 408.864 235.428H415.679V241.504C415.679 244.618 416.512 245.453 419.693 245.453H424.653C427.417 245.453 428.212 244.124 428.477 239.301C427.72 239.112 426.546 238.618 425.94 238.124C425.789 242.188 425.6 242.947 424.426 242.947H420.11C418.822 242.947 418.595 242.719 418.595 241.542V235.428H427.569V232.808H418.595V227.15H422.949ZM441.351 227.492H459.602V231.441H441.351V227.492ZM441.351 221.188H459.602V225.1H441.351V221.188ZM441.351 214.96H459.602V218.834H441.351V214.96ZM457.671 242.795C456.043 242.795 455.74 242.605 455.74 241.504V233.948H462.442V212.417H438.625V233.948H443.737C442.941 238.808 440.935 241.77 433.173 243.327C433.74 243.896 434.536 245.073 434.763 245.795C443.358 243.821 445.782 240.023 446.69 233.948H452.9V241.542C452.9 244.618 453.847 245.453 457.406 245.453H463.502C466.683 245.453 467.516 244.086 467.856 238.58C467.061 238.39 465.85 237.935 465.244 237.441C465.093 242.111 464.789 242.795 463.275 242.795H457.671Z"/>
</mask>
<path d="M142.28 213.708L140.576 216.252C142.81 217.543 146.9 220.277 148.717 221.644L150.497 219.061C148.868 217.847 144.514 214.96 142.28 213.708ZM136.6 240.859L138.342 243.934C141.864 243.213 147.089 241.428 150.913 239.226C156.934 235.656 162.197 230.758 165.453 225.631L163.636 222.517C160.569 227.871 155.57 232.808 149.285 236.416C145.46 238.618 140.765 240.137 136.6 240.859ZM136.562 222.251L134.896 224.833C137.168 226.011 141.296 228.669 143.151 230.036L144.893 227.378C143.227 226.163 138.797 223.467 136.562 222.251ZM176.888 214.771V217.923C177.835 217.847 179.084 217.809 180.334 217.809H195.631C196.73 217.809 198.055 217.847 199.152 217.923V214.771C198.055 214.923 196.691 214.999 195.631 214.999H180.296C179.084 214.999 177.949 214.885 176.888 214.771ZM172.345 224.302V227.454C173.405 227.378 174.503 227.378 175.639 227.378H186.998C186.885 230.947 186.468 234.137 184.802 236.795C183.326 239.187 180.599 241.39 177.645 242.605L180.447 244.693C183.666 243.023 186.544 240.289 187.907 237.744C189.421 234.934 190.027 231.479 190.141 227.378H200.44C201.349 227.378 202.56 227.416 203.394 227.454V224.302C202.485 224.454 201.235 224.492 200.44 224.492H175.639C174.465 224.492 173.405 224.416 172.345 224.302ZM208.977 233.074L210.415 235.884C214.694 234.555 219.086 232.58 222.267 230.872V242.491C222.267 243.668 222.191 245.226 222.115 245.833H225.599C225.448 245.226 225.409 243.668 225.409 242.491V228.973C228.855 226.732 232.073 223.961 233.967 221.871L231.619 219.594C229.688 222.024 226.204 225.138 222.607 227.34C219.54 229.239 213.975 231.897 208.977 233.074ZM270.809 214.809C270.809 213.48 271.87 212.378 273.195 212.378C274.558 212.378 275.656 213.48 275.656 214.809C275.656 216.176 274.558 217.239 273.195 217.239C271.87 217.239 270.809 216.176 270.809 214.809ZM269.068 214.809C269.068 217.125 270.923 218.948 273.195 218.948C275.504 218.948 277.36 217.125 277.36 214.809C277.36 212.53 275.504 210.632 273.195 210.632C270.923 210.632 269.068 212.53 269.068 214.809ZM262.744 213.594H259.184C259.336 214.163 259.45 215.454 259.45 216.29V220.201H248.923C247.712 220.201 246.765 220.125 245.705 220.011V223.201C246.727 223.125 247.787 223.087 248.923 223.087H259.45V240.213C259.45 241.2 258.995 241.656 257.973 241.656C256.988 241.656 255.247 241.504 253.619 241.2L253.884 244.238C255.398 244.39 257.67 244.504 259.26 244.504C261.532 244.504 262.517 243.479 262.517 241.466V223.087H272.551C273.46 223.087 274.596 223.087 275.618 223.163V220.011C274.672 220.125 273.422 220.201 272.513 220.201H262.517V216.328C262.517 215.493 262.63 214.125 262.744 213.594ZM270.241 227.682L267.667 229.048C269.674 231.441 272.513 236.188 273.99 239.15L276.792 237.593C275.277 234.859 272.248 230.112 270.241 227.682ZM254.414 228.934L251.763 227.643C250.287 230.719 247.03 235.239 244.531 237.593L247.144 239.34C249.264 237.024 252.824 232.201 254.414 228.934ZM298.374 220.999L295.611 221.948C296.406 223.656 298.147 228.479 298.564 230.188L301.366 229.201C300.874 227.53 299.018 222.517 298.374 220.999ZM312.081 223.125L308.825 222.1C308.257 226.96 306.288 231.783 303.6 235.086C300.495 238.998 295.686 241.883 291.294 243.175L293.793 245.719C298.034 244.086 302.654 241.162 306.137 236.681C308.863 233.264 310.491 229.201 311.514 225.024C311.665 224.53 311.816 223.922 312.081 223.125ZM289.59 222.897L286.788 223.998C287.545 225.327 289.59 230.568 290.158 232.543L293.035 231.479C292.316 229.505 290.347 224.53 289.59 222.897ZM348.432 215.606C348.432 214.202 349.568 213.062 350.93 213.062C352.331 213.062 353.467 214.202 353.467 215.606C353.467 216.973 352.331 218.112 350.93 218.112C349.568 218.112 348.432 216.973 348.432 215.606ZM346.69 215.606C346.69 216.024 346.766 216.442 346.879 216.821C346.425 216.859 346.008 216.859 345.667 216.859H326.659C325.41 216.859 323.933 216.745 322.873 216.593V219.973C323.858 219.935 325.145 219.859 326.659 219.859H346.008C345.516 223.505 343.736 228.783 341.048 232.238C337.905 236.302 333.627 239.529 326.281 241.352L328.856 244.2C335.823 242.036 340.328 238.504 343.774 234.061C346.766 230.15 348.621 224.036 349.416 220.049C349.454 219.897 349.492 219.745 349.492 219.631C349.946 219.783 350.439 219.859 350.93 219.859C353.278 219.859 355.209 217.961 355.209 215.606C355.209 213.252 353.278 211.315 350.93 211.315C348.583 211.315 346.69 213.252 346.69 215.606ZM390.197 229.581C390.197 221.871 384.555 215.606 375.694 215.606C366.455 215.606 359.148 222.821 359.148 231.061C359.148 237.327 362.517 241.2 365.887 241.2C369.409 241.2 372.4 237.213 374.709 229.391C375.77 225.859 376.489 221.986 376.981 218.454C383.419 218.986 387.091 223.733 387.091 229.467C387.091 236.036 382.32 239.643 377.474 240.745C376.603 240.934 375.429 241.125 374.218 241.238L375.997 244.048C384.971 242.871 390.197 237.555 390.197 229.581ZM362.101 230.796C362.101 225.631 366.569 219.403 373.839 218.492C373.422 221.986 372.665 225.593 371.718 228.745C369.787 235.162 367.78 237.707 366 237.707C364.297 237.707 362.101 235.58 362.101 230.796ZM415.679 232.808H409.091V232.238V227.15H415.679V232.808ZM422.949 227.15V225.707C424.615 227.036 426.432 228.176 428.363 229.011C428.781 228.289 429.689 227.188 430.295 226.657C427.72 225.631 425.335 224.112 423.214 222.251C425.145 220.846 427.417 219.024 429.159 217.353L427.039 215.834C425.714 217.277 423.517 219.289 421.624 220.732C420.753 219.821 419.92 218.834 419.162 217.809C420.981 216.479 423.063 214.695 424.729 213.024L422.608 211.505C421.434 212.834 419.617 214.619 417.951 216.024C417.004 214.505 416.209 212.91 415.565 211.239L413.142 211.961C415.035 216.859 417.914 221.226 421.586 224.53H403.79C407.159 221.682 410.037 217.961 411.666 213.518L409.81 212.606L409.318 212.72H398.527V215.227H407.917C406.97 217.011 405.758 218.682 404.396 220.239C403.184 219.1 401.329 217.619 399.814 216.518L398.072 217.998C399.624 219.175 401.48 220.771 402.616 221.986C400.268 224.15 397.542 225.859 394.93 226.922C395.46 227.454 396.292 228.441 396.671 229.048C398.564 228.176 400.495 227.074 402.313 225.707V227.15H406.289V232.201V232.808H397.579V235.428H405.986C405.304 238.58 403.146 241.58 396.823 243.707C397.391 244.238 398.262 245.301 398.602 245.947C406.024 243.365 408.258 239.492 408.864 235.428H415.679V241.504C415.679 244.618 416.512 245.453 419.693 245.453H424.653C427.417 245.453 428.212 244.124 428.477 239.301C427.72 239.112 426.546 238.618 425.94 238.124C425.789 242.188 425.6 242.947 424.426 242.947H420.11C418.822 242.947 418.595 242.719 418.595 241.542V235.428H427.569V232.808H418.595V227.15H422.949ZM441.351 227.492H459.602V231.441H441.351V227.492ZM441.351 221.188H459.602V225.1H441.351V221.188ZM441.351 214.96H459.602V218.834H441.351V214.96ZM457.671 242.795C456.043 242.795 455.74 242.605 455.74 241.504V233.948H462.442V212.417H438.625V233.948H443.737C442.941 238.808 440.935 241.77 433.173 243.327C433.74 243.896 434.536 245.073 434.763 245.795C443.358 243.821 445.782 240.023 446.69 233.948H452.9V241.542C452.9 244.618 453.847 245.453 457.406 245.453H463.502C466.683 245.453 467.516 244.086 467.856 238.58C467.061 238.39 465.85 237.935 465.244 237.441C465.093 242.111 464.789 242.795 463.275 242.795H457.671Z" fill="#00E2AC" stroke="black" mask="url(#path-2-inside-1)"/>
<mask id="path-3-inside-2" fill="white">
<path d="M114.424 159.712C114.424 170.159 111.575 178.039 105.877 183.349C100.237 188.601 92.352 191.227 82.2224 191.227H65.0425V129.41H84.0354C90.2513 129.41 95.6325 130.564 100.179 132.873C104.726 135.182 108.237 138.587 110.712 143.089C113.187 147.534 114.424 153.074 114.424 159.712ZM106.222 159.972C106.222 151.718 104.179 145.686 100.093 141.877C96.0642 138.01 90.3375 136.076 82.913 136.076H72.8123V184.56H81.1864C97.8771 184.56 106.222 176.364 106.222 159.972ZM148.911 191.227H126.637V186.725L133.889 185.08V135.644L126.637 133.911V129.41H148.911V133.911L141.659 135.644V185.08L148.911 186.725V191.227ZM199.23 174.69C199.23 180.174 197.245 184.445 193.273 187.504C189.302 190.563 183.95 192.093 177.216 192.093C173.762 192.093 170.568 191.833 167.633 191.314C164.698 190.794 162.251 190.073 160.295 189.149V181.703C162.367 182.627 164.928 183.464 167.978 184.214C171.086 184.965 174.281 185.339 177.561 185.339C182.166 185.339 185.619 184.445 187.921 182.656C190.281 180.867 191.46 178.442 191.46 175.384C191.46 173.363 191.029 171.66 190.165 170.275C189.302 168.89 187.806 167.62 185.676 166.465C183.604 165.254 180.698 163.983 176.957 162.656C171.719 160.752 167.748 158.414 165.043 155.643C162.395 152.872 161.072 149.092 161.072 144.301C161.072 141.011 161.906 138.212 163.575 135.903C165.245 133.536 167.546 131.718 170.482 130.448C173.475 129.179 176.899 128.544 180.755 128.544C184.151 128.544 187.259 128.861 190.079 129.496C192.9 130.131 195.46 130.968 197.763 132.007L195.345 138.674C193.216 137.75 190.885 136.971 188.352 136.336C185.877 135.701 183.288 135.384 180.582 135.384C176.727 135.384 173.82 136.22 171.863 137.894C169.907 139.51 168.928 141.675 168.928 144.388C168.928 146.466 169.36 148.197 170.223 149.583C171.086 150.968 172.496 152.209 174.453 153.306C176.41 154.402 179.058 155.586 182.396 156.855C186.021 158.183 189.072 159.625 191.547 161.184C194.079 162.685 195.978 164.503 197.245 166.638C198.568 168.774 199.23 171.458 199.23 174.69ZM241.517 135.384C234.898 135.384 229.69 137.606 225.891 142.05C222.093 146.494 220.194 152.584 220.194 160.318C220.194 167.995 221.949 174.084 225.46 178.586C229.028 183.031 234.352 185.253 241.431 185.253C244.136 185.253 246.697 185.022 249.115 184.56C251.531 184.098 253.891 183.522 256.193 182.829V189.582C253.891 190.448 251.503 191.083 249.028 191.487C246.611 191.891 243.704 192.093 240.309 192.093C234.035 192.093 228.798 190.794 224.596 188.197C220.395 185.599 217.23 181.905 215.1 177.115C213.028 172.324 211.992 166.697 211.992 160.231C211.992 153.998 213.114 148.515 215.359 143.782C217.661 138.991 221.028 135.268 225.46 132.613C229.891 129.9 235.273 128.544 241.603 128.544C248.107 128.544 253.777 129.756 258.611 132.18L255.503 138.76C253.604 137.894 251.474 137.115 249.115 136.423C246.812 135.73 244.28 135.384 241.517 135.384ZM325.199 160.231C325.199 166.638 324.106 172.237 321.919 177.028C319.79 181.761 316.624 185.455 312.422 188.11C308.221 190.765 303.013 192.093 296.797 192.093C290.408 192.093 285.084 190.765 280.825 188.11C276.624 185.455 273.487 181.732 271.415 176.942C269.343 172.151 268.307 166.552 268.307 160.145C268.307 153.796 269.343 148.255 271.415 143.522C273.487 138.789 276.624 135.095 280.825 132.44C285.084 129.785 290.437 128.457 296.883 128.457C303.041 128.457 308.221 129.785 312.422 132.44C316.624 135.037 319.79 138.731 321.919 143.522C324.106 148.255 325.199 153.825 325.199 160.231ZM276.509 160.231C276.509 168.024 278.149 174.171 281.43 178.673C284.71 183.117 289.833 185.339 296.797 185.339C303.818 185.339 308.941 183.117 312.164 178.673C315.386 174.171 316.998 168.024 316.998 160.231C316.998 152.439 315.386 146.35 312.164 141.963C308.941 137.519 303.847 135.297 296.883 135.297C289.918 135.297 284.767 137.519 281.43 141.963C278.149 146.35 276.509 152.439 276.509 160.231ZM384.895 129.41L362.881 191.227H355.111L333.097 129.41H341.211L355.111 169.063C356.032 171.602 356.809 173.998 357.442 176.249C358.075 178.442 358.593 180.549 358.996 182.57C359.399 180.549 359.917 178.413 360.55 176.163C361.183 173.911 361.96 171.487 362.881 168.89L376.694 129.41H384.895ZM431.135 191.227H396.69V129.41H431.135V136.249H404.459V155.556H429.581V162.31H404.459V184.387H431.135V191.227ZM465.121 129.41C472.776 129.41 478.417 130.881 482.042 133.825C485.726 136.711 487.568 141.098 487.568 146.985C487.568 150.275 486.963 153.017 485.755 155.21C484.546 157.403 482.992 159.164 481.093 160.491C479.251 161.761 477.294 162.772 475.222 163.521L492.143 191.227H483.078L468.143 165.686H455.884V191.227H448.114V129.41H465.121ZM464.689 136.163H455.884V159.106H465.121C470.128 159.106 473.783 158.125 476.086 156.162C478.388 154.142 479.539 151.198 479.539 147.332C479.539 143.291 478.33 140.434 475.913 138.76C473.495 137.028 469.754 136.163 464.689 136.163ZM521.329 159.799L537.387 129.41H545.76L525.214 167.244V191.227H517.444V167.591L496.897 129.41H505.357L521.329 159.799Z"/>
</mask>
<path d="M114.424 159.712C114.424 170.159 111.575 178.039 105.877 183.349C100.237 188.601 92.352 191.227 82.2224 191.227H65.0425V129.41H84.0354C90.2513 129.41 95.6325 130.564 100.179 132.873C104.726 135.182 108.237 138.587 110.712 143.089C113.187 147.534 114.424 153.074 114.424 159.712ZM106.222 159.972C106.222 151.718 104.179 145.686 100.093 141.877C96.0642 138.01 90.3375 136.076 82.913 136.076H72.8123V184.56H81.1864C97.8771 184.56 106.222 176.364 106.222 159.972ZM148.911 191.227H126.637V186.725L133.889 185.08V135.644L126.637 133.911V129.41H148.911V133.911L141.659 135.644V185.08L148.911 186.725V191.227ZM199.23 174.69C199.23 180.174 197.245 184.445 193.273 187.504C189.302 190.563 183.95 192.093 177.216 192.093C173.762 192.093 170.568 191.833 167.633 191.314C164.698 190.794 162.251 190.073 160.295 189.149V181.703C162.367 182.627 164.928 183.464 167.978 184.214C171.086 184.965 174.281 185.339 177.561 185.339C182.166 185.339 185.619 184.445 187.921 182.656C190.281 180.867 191.46 178.442 191.46 175.384C191.46 173.363 191.029 171.66 190.165 170.275C189.302 168.89 187.806 167.62 185.676 166.465C183.604 165.254 180.698 163.983 176.957 162.656C171.719 160.752 167.748 158.414 165.043 155.643C162.395 152.872 161.072 149.092 161.072 144.301C161.072 141.011 161.906 138.212 163.575 135.903C165.245 133.536 167.546 131.718 170.482 130.448C173.475 129.179 176.899 128.544 180.755 128.544C184.151 128.544 187.259 128.861 190.079 129.496C192.9 130.131 195.46 130.968 197.763 132.007L195.345 138.674C193.216 137.75 190.885 136.971 188.352 136.336C185.877 135.701 183.288 135.384 180.582 135.384C176.727 135.384 173.82 136.22 171.863 137.894C169.907 139.51 168.928 141.675 168.928 144.388C168.928 146.466 169.36 148.197 170.223 149.583C171.086 150.968 172.496 152.209 174.453 153.306C176.41 154.402 179.058 155.586 182.396 156.855C186.021 158.183 189.072 159.625 191.547 161.184C194.079 162.685 195.978 164.503 197.245 166.638C198.568 168.774 199.23 171.458 199.23 174.69ZM241.517 135.384C234.898 135.384 229.69 137.606 225.891 142.05C222.093 146.494 220.194 152.584 220.194 160.318C220.194 167.995 221.949 174.084 225.46 178.586C229.028 183.031 234.352 185.253 241.431 185.253C244.136 185.253 246.697 185.022 249.115 184.56C251.531 184.098 253.891 183.522 256.193 182.829V189.582C253.891 190.448 251.503 191.083 249.028 191.487C246.611 191.891 243.704 192.093 240.309 192.093C234.035 192.093 228.798 190.794 224.596 188.197C220.395 185.599 217.23 181.905 215.1 177.115C213.028 172.324 211.992 166.697 211.992 160.231C211.992 153.998 213.114 148.515 215.359 143.782C217.661 138.991 221.028 135.268 225.46 132.613C229.891 129.9 235.273 128.544 241.603 128.544C248.107 128.544 253.777 129.756 258.611 132.18L255.503 138.76C253.604 137.894 251.474 137.115 249.115 136.423C246.812 135.73 244.28 135.384 241.517 135.384ZM325.199 160.231C325.199 166.638 324.106 172.237 321.919 177.028C319.79 181.761 316.624 185.455 312.422 188.11C308.221 190.765 303.013 192.093 296.797 192.093C290.408 192.093 285.084 190.765 280.825 188.11C276.624 185.455 273.487 181.732 271.415 176.942C269.343 172.151 268.307 166.552 268.307 160.145C268.307 153.796 269.343 148.255 271.415 143.522C273.487 138.789 276.624 135.095 280.825 132.44C285.084 129.785 290.437 128.457 296.883 128.457C303.041 128.457 308.221 129.785 312.422 132.44C316.624 135.037 319.79 138.731 321.919 143.522C324.106 148.255 325.199 153.825 325.199 160.231ZM276.509 160.231C276.509 168.024 278.149 174.171 281.43 178.673C284.71 183.117 289.833 185.339 296.797 185.339C303.818 185.339 308.941 183.117 312.164 178.673C315.386 174.171 316.998 168.024 316.998 160.231C316.998 152.439 315.386 146.35 312.164 141.963C308.941 137.519 303.847 135.297 296.883 135.297C289.918 135.297 284.767 137.519 281.43 141.963C278.149 146.35 276.509 152.439 276.509 160.231ZM384.895 129.41L362.881 191.227H355.111L333.097 129.41H341.211L355.111 169.063C356.032 171.602 356.809 173.998 357.442 176.249C358.075 178.442 358.593 180.549 358.996 182.57C359.399 180.549 359.917 178.413 360.55 176.163C361.183 173.911 361.96 171.487 362.881 168.89L376.694 129.41H384.895ZM431.135 191.227H396.69V129.41H431.135V136.249H404.459V155.556H429.581V162.31H404.459V184.387H431.135V191.227ZM465.121 129.41C472.776 129.41 478.417 130.881 482.042 133.825C485.726 136.711 487.568 141.098 487.568 146.985C487.568 150.275 486.963 153.017 485.755 155.21C484.546 157.403 482.992 159.164 481.093 160.491C479.251 161.761 477.294 162.772 475.222 163.521L492.143 191.227H483.078L468.143 165.686H455.884V191.227H448.114V129.41H465.121ZM464.689 136.163H455.884V159.106H465.121C470.128 159.106 473.783 158.125 476.086 156.162C478.388 154.142 479.539 151.198 479.539 147.332C479.539 143.291 478.33 140.434 475.913 138.76C473.495 137.028 469.754 136.163 464.689 136.163ZM521.329 159.799L537.387 129.41H545.76L525.214 167.244V191.227H517.444V167.591L496.897 129.41H505.357L521.329 159.799Z" fill="#7546D9" stroke="black" stroke-width="2" mask="url(#path-3-inside-2)"/>
<mask id="path-4-inside-3" fill="white">
<path d="M102.469 36.9034C93.1794 36.9034 85.8689 40.0222 80.5376 46.26C75.2063 52.4979 72.5406 61.0443 72.5406 71.8997C72.5406 82.6739 75.0044 91.2205 79.9318 97.5393C84.9401 103.777 92.4119 106.896 102.348 106.896C106.144 106.896 109.739 106.572 113.131 105.924C116.524 105.276 119.836 104.466 123.067 103.494V112.972C119.836 114.187 116.484 115.078 113.01 115.645C109.618 116.212 105.538 116.496 100.773 116.496C91.9677 116.496 84.6168 114.673 78.7201 111.027C72.8234 107.382 68.3806 102.197 65.3918 95.4735C62.4838 88.7497 61.0298 80.8512 61.0298 71.7781C61.0298 63.0291 62.605 55.3331 65.7553 48.6904C68.9863 41.9665 73.7119 36.7413 79.9318 33.015C86.1518 29.2074 93.7043 27.3038 102.59 27.3038C111.718 27.3038 119.674 29.005 126.46 32.4074L122.098 41.6425C119.432 40.4273 116.443 39.3337 113.131 38.3616C109.9 37.3895 106.346 36.9034 102.469 36.9034ZM166.304 115.281H135.043V108.962L145.221 106.653V37.268L135.043 34.8377V28.5189H166.304V34.8377L156.126 37.268V106.653L166.304 108.962V115.281ZM210.392 115.281H199.487V38.1186H172.467V28.5189H237.291V38.1186H210.392V115.281ZM272.873 71.1706L295.41 28.5189H307.163L278.325 81.6208V115.281H267.421V82.1069L238.583 28.5189H250.457L272.873 71.1706ZM341.867 28.5189C353.177 28.5189 361.416 30.7467 366.585 35.2022C371.754 39.6577 374.34 45.9361 374.34 54.037C374.34 58.8166 373.249 63.3127 371.068 67.5252C368.967 71.6567 365.374 75.0185 360.284 77.6108C355.275 80.2032 348.451 81.4994 339.807 81.4994H329.871V115.281H318.966V28.5189H341.867ZM340.898 37.8755H329.871V72.1427H338.596C346.835 72.1427 352.974 70.8061 357.012 68.1327C361.052 65.4594 363.071 60.9228 363.071 54.5231C363.071 48.9334 361.295 44.7613 357.739 42.007C354.185 39.2528 348.572 37.8755 340.898 37.8755ZM467.815 71.7781C467.815 80.7703 466.281 88.6282 463.211 95.352C460.223 101.995 455.78 107.18 449.882 110.906C443.986 114.632 436.675 116.496 427.952 116.496C418.985 116.496 411.513 114.632 405.535 110.906C399.639 107.18 395.237 101.954 392.328 95.2305C389.42 88.5066 387.967 80.6487 387.967 71.6567C387.967 62.7455 389.42 54.9685 392.328 48.3258C395.237 41.683 399.639 36.4983 405.535 32.7719C411.513 29.0455 419.026 27.1823 428.073 27.1823C436.716 27.1823 443.986 29.0455 449.882 32.7719C455.78 36.4174 460.223 41.602 463.211 48.3258C466.281 54.9685 467.815 62.7861 467.815 71.7781ZM399.477 71.7781C399.477 82.7145 401.78 91.3421 406.383 97.6608C410.988 103.899 418.178 107.017 427.952 107.017C437.807 107.017 444.996 103.899 449.519 97.6608C454.043 91.3421 456.304 82.7145 456.304 71.7781C456.304 60.8418 454.043 52.2953 449.519 46.1386C444.996 39.9008 437.848 36.7819 428.073 36.7819C418.299 36.7819 411.07 39.9008 406.383 46.1386C401.78 52.2953 399.477 60.8418 399.477 71.7781ZM509.89 28.5189C521.2 28.5189 529.439 30.7467 534.608 35.2022C539.779 39.6577 542.363 45.9361 542.363 54.037C542.363 58.8166 541.272 63.3127 539.091 67.5252C536.992 71.6567 533.396 75.0185 528.307 77.6108C523.3 80.2032 516.474 81.4994 507.83 81.4994H497.895V115.281H486.99V28.5189H509.89ZM508.921 37.8755H497.895V72.1427H506.619C514.858 72.1427 520.998 70.8061 525.036 68.1327C529.075 65.4594 531.095 60.9228 531.095 54.5231C531.095 48.9334 529.317 44.7613 525.763 42.007C522.21 39.2528 516.595 37.8755 508.921 37.8755Z"/>
</mask>
<path d="M102.469 36.9034C93.1794 36.9034 85.8689 40.0222 80.5376 46.26C75.2063 52.4979 72.5406 61.0443 72.5406 71.8997C72.5406 82.6739 75.0044 91.2205 79.9318 97.5393C84.9401 103.777 92.4119 106.896 102.348 106.896C106.144 106.896 109.739 106.572 113.131 105.924C116.524 105.276 119.836 104.466 123.067 103.494V112.972C119.836 114.187 116.484 115.078 113.01 115.645C109.618 116.212 105.538 116.496 100.773 116.496C91.9677 116.496 84.6168 114.673 78.7201 111.027C72.8234 107.382 68.3806 102.197 65.3918 95.4735C62.4838 88.7497 61.0298 80.8512 61.0298 71.7781C61.0298 63.0291 62.605 55.3331 65.7553 48.6904C68.9863 41.9665 73.7119 36.7413 79.9318 33.015C86.1518 29.2074 93.7043 27.3038 102.59 27.3038C111.718 27.3038 119.674 29.005 126.46 32.4074L122.098 41.6425C119.432 40.4273 116.443 39.3337 113.131 38.3616C109.9 37.3895 106.346 36.9034 102.469 36.9034ZM166.304 115.281H135.043V108.962L145.221 106.653V37.268L135.043 34.8377V28.5189H166.304V34.8377L156.126 37.268V106.653L166.304 108.962V115.281ZM210.392 115.281H199.487V38.1186H172.467V28.5189H237.291V38.1186H210.392V115.281ZM272.873 71.1706L295.41 28.5189H307.163L278.325 81.6208V115.281H267.421V82.1069L238.583 28.5189H250.457L272.873 71.1706ZM341.867 28.5189C353.177 28.5189 361.416 30.7467 366.585 35.2022C371.754 39.6577 374.34 45.9361 374.34 54.037C374.34 58.8166 373.249 63.3127 371.068 67.5252C368.967 71.6567 365.374 75.0185 360.284 77.6108C355.275 80.2032 348.451 81.4994 339.807 81.4994H329.871V115.281H318.966V28.5189H341.867ZM340.898 37.8755H329.871V72.1427H338.596C346.835 72.1427 352.974 70.8061 357.012 68.1327C361.052 65.4594 363.071 60.9228 363.071 54.5231C363.071 48.9334 361.295 44.7613 357.739 42.007C354.185 39.2528 348.572 37.8755 340.898 37.8755ZM467.815 71.7781C467.815 80.7703 466.281 88.6282 463.211 95.352C460.223 101.995 455.78 107.18 449.882 110.906C443.986 114.632 436.675 116.496 427.952 116.496C418.985 116.496 411.513 114.632 405.535 110.906C399.639 107.18 395.237 101.954 392.328 95.2305C389.42 88.5066 387.967 80.6487 387.967 71.6567C387.967 62.7455 389.42 54.9685 392.328 48.3258C395.237 41.683 399.639 36.4983 405.535 32.7719C411.513 29.0455 419.026 27.1823 428.073 27.1823C436.716 27.1823 443.986 29.0455 449.882 32.7719C455.78 36.4174 460.223 41.602 463.211 48.3258C466.281 54.9685 467.815 62.7861 467.815 71.7781ZM399.477 71.7781C399.477 82.7145 401.78 91.3421 406.383 97.6608C410.988 103.899 418.178 107.017 427.952 107.017C437.807 107.017 444.996 103.899 449.519 97.6608C454.043 91.3421 456.304 82.7145 456.304 71.7781C456.304 60.8418 454.043 52.2953 449.519 46.1386C444.996 39.9008 437.848 36.7819 428.073 36.7819C418.299 36.7819 411.07 39.9008 406.383 46.1386C401.78 52.2953 399.477 60.8418 399.477 71.7781ZM509.89 28.5189C521.2 28.5189 529.439 30.7467 534.608 35.2022C539.779 39.6577 542.363 45.9361 542.363 54.037C542.363 58.8166 541.272 63.3127 539.091 67.5252C536.992 71.6567 533.396 75.0185 528.307 77.6108C523.3 80.2032 516.474 81.4994 507.83 81.4994H497.895V115.281H486.99V28.5189H509.89ZM508.921 37.8755H497.895V72.1427H506.619C514.858 72.1427 520.998 70.8061 525.036 68.1327C529.075 65.4594 531.095 60.9228 531.095 54.5231C531.095 48.9334 529.317 44.7613 525.763 42.007C522.21 39.2528 516.595 37.8755 508.921 37.8755Z" fill="#D450D7" stroke="#3F3F3F" stroke-width="2" mask="url(#path-4-inside-3)"/>
</g>
<rect x="0.5" y="0.5" width="606" height="272" rx="39.5" stroke="black"/>
<defs>
<filter id="filter0_bd" x="-9" y="-43" width="625" height="359" filterUnits="userSpaceOnUse" color-interpolation-filters="sRGB">
<feFlood flood-opacity="0" result="BackgroundImageFix"/>
<feGaussianBlur in="BackgroundImage" stdDeviation="35"/>
<feComposite in2="SourceAlpha" operator="in" result="effect1_backgroundBlur"/>
<feColorMatrix in="SourceAlpha" type="matrix" values="0 0 0 0 0 0 0 0 0 0 0 0 0 0 0 0 0 0 127 0"/>
<feOffset dy="4"/>
<feGaussianBlur stdDeviation="2"/>
<feColorMatrix type="matrix" values="0 0 0 0 0 0 0 0 0 0 0 0 0 0 0 0 0 0 0.25 0"/>
<feBlend mode="normal" in2="effect1_backgroundBlur" result="effect2_dropShadow"/>
<feBlend mode="normal" in="SourceGraphic" in2="effect2_dropShadow" result="shape"/>
</filter>
</defs>
</svg>
