<svg width="18" height="18" viewBox="0 0 18 18" fill="none" xmlns="http://www.w3.org/2000/svg">
<path fill-rule="evenodd" clip-rule="evenodd" d="M6.75 0.75H11.25C12.0784 0.75 12.75 1.42157 12.75 2.25V3H15C15.8284 3 16.5 3.67157 16.5 4.5V6C16.5 6.82843 15.8284 7.5 15 7.5H14.9399L14.25 15.75C14.25 16.5784 13.5785 17.25 12.75 17.25H5.25003C4.4216 17.25 3.75003 16.5784 3.75262 15.8123L3.05993 7.5H3C2.17157 7.5 1.5 6.82843 1.5 6V4.5C1.5 3.67157 2.17157 3 3 3H5.25V2.25C5.25 1.42157 5.92157 0.75 6.75 0.75ZM3 4.5H5.25H12.75H15V6H3V4.5ZM4.565 7.5H13.435L12.7527 15.6877L12.7501 15.75H5.25014L4.565 7.5ZM11.25 2.25V3H6.75V2.25H11.25Z" fill="#C4C4C4"/>
</svg>
